SplineFontDB: 3.0
FontName: GentiumBasic-BoldItalic
FullName: Gentium Basic Bold Italic
FamilyName: Gentium Basic
Weight: Bold
Copyright: Copyright (c) SIL International, 2003-2008.
Version: 1.100
ItalicAngle: -8
UnderlinePosition: -200
UnderlineWidth: 100
Ascent: 1638
Descent: 410
sfntRevision: 0x00011999
LayerCount: 2
Layer: 0 1 "Back"  1
Layer: 1 1 "Fore"  0
XUID: [1021 288 713564382 8066647]
FSType: 0
OS2Version: 3
OS2_WeightWidthSlopeOnly: 0
OS2_UseTypoMetrics: 1
CreationTime: 1207154154
ModificationTime: 1309535600
PfmFamily: 17
TTFWeight: 700
TTFWidth: 5
LineGap: 0
VLineGap: 0
Panose: 2 0 6 6 8 0 0 2 0 4
OS2TypoAscent: 2219
OS2TypoAOffset: 0
OS2TypoDescent: -735
OS2TypoDOffset: 0
OS2TypoLinegap: 0
OS2WinAscent: 2219
OS2WinAOffset: 0
OS2WinDescent: 735
OS2WinDOffset: 0
HheadAscent: 2219
HheadAOffset: 0
HheadDescent: -735
HheadDOffset: 0
OS2SubXSize: 856
OS2SubYSize: 856
OS2SubXOff: 0
OS2SubYOff: 1200
OS2SupXSize: 856
OS2SupYSize: 856
OS2SupXOff: 0
OS2SupYOff: 1200
OS2StrikeYSize: 100
OS2StrikeYPos: 500
OS2Vendor: 'SIL '
OS2CodePages: 20000013.00000000
OS2UnicodeRanges: a000007f.4000204a.00000000.00000000
Lookup: 5 0 0 "'ccmp' Glyph Composition/Decomposition lookup 0"  {"'ccmp' Glyph Composition/Decomposition lookup 0 subtable"  } ['ccmp' ('cyrl' <'dflt' > 'latn' <'IPA ' 'VIT ' 'dflt' > ) ]
Lookup: 1 0 0 "Single Substitution lookup 1"  {"Single Substitution lookup 1 subtable"  } []
Lookup: 2 0 0 "Multiple Substitution lookup 2"  {"Multiple Substitution lookup 2 subtable"  } []
Lookup: 4 0 0 "'ccmp' Glyph Composition/Decomposition lookup 3"  {"'ccmp' Glyph Composition/Decomposition lookup 3 subtable"  } ['ccmp' ('cyrl' <'dflt' > 'latn' <'IPA ' 'VIT ' 'dflt' > ) ]
Lookup: 4 256 0 "'ccmp' Glyph Composition/Decomposition in Latin lookup 4"  {"'ccmp' Glyph Composition/Decomposition in Latin lookup 4 subtable"  } ['ccmp' ('latn' <'VIT ' > ) ]

StartChar: .notdef
Encoding: 65536 -1 0
Width: 1400
Flags: W
LayerCount: 2
Fore
SplineSet
150 50 m 1,0,-1
 1250 50 l 1,1,-1
 1250 1750 l 1,2,-1
 150 1750 l 1,3,-1
 150 50 l 1,0,-1
100 1800 m 1,4,-1
 1300 1800 l 1,5,-1
 1300 0 l 1,6,-1
 100 0 l 1,7,-1
 100 1800 l 1,4,-1
EndSplineSet
EndChar

StartChar: exclam
Encoding: 33 33 4
Width: 478
Flags: W
LayerCount: 2
Fore
SplineSet
351 167 m 0,0,1
 351 134 351 134 339 98.5 c 128,-1,2
 327 63 327 63 303 34.5 c 128,-1,3
 279 6 279 6 244.5 -12.5 c 128,-1,4
 210 -31 210 -31 165 -31 c 0,5,6
 102 -31 102 -31 73 0.5 c 128,-1,7
 44 32 44 32 44 83 c 0,8,9
 44 115 44 115 57 149 c 128,-1,10
 70 183 70 183 94.5 211.5 c 128,-1,11
 119 240 119 240 153.5 258 c 128,-1,12
 188 276 188 276 231 276 c 0,13,14
 291 276 291 276 321 245.5 c 128,-1,15
 351 215 351 215 351 167 c 0,0,1
300 412 m 1,16,17
 280 398 280 398 250.5 385.5 c 128,-1,18
 221 373 221 373 196 365 c 1,19,-1
 172 386 l 1,20,-1
 227 1321 l 1,21,22
 247 1333 247 1333 279.5 1349.5 c 128,-1,23
 312 1366 312 1366 347 1383 c 128,-1,24
 382 1400 382 1400 414.5 1414.5 c 128,-1,25
 447 1429 447 1429 467 1436 c 1,26,-1
 509 1404 l 1,27,-1
 300 412 l 1,16,17
EndSplineSet
EndChar

StartChar: quotedbl
Encoding: 34 34 5
Width: 890
Flags: W
LayerCount: 2
Fore
SplineSet
333 855 m 1,0,1
 325 850 325 850 311.5 846.5 c 128,-1,2
 298 843 298 843 283.5 841 c 128,-1,3
 269 839 269 839 254.5 837.5 c 128,-1,4
 240 836 240 836 229 836 c 1,5,-1
 224 1352 l 1,6,7
 236 1358 236 1358 267 1370 c 128,-1,8
 298 1382 298 1382 333 1394.5 c 128,-1,9
 368 1407 368 1407 399 1417 c 128,-1,10
 430 1427 430 1427 441 1430 c 1,11,-1
 485 1402 l 1,12,-1
 333 855 l 1,0,1
707 855 m 1,13,14
 699 850 699 850 685.5 846.5 c 128,-1,15
 672 843 672 843 657.5 841 c 128,-1,16
 643 839 643 839 628.5 837.5 c 128,-1,17
 614 836 614 836 603 836 c 1,18,-1
 598 1352 l 1,19,20
 610 1358 610 1358 641 1370 c 128,-1,21
 672 1382 672 1382 707 1394.5 c 128,-1,22
 742 1407 742 1407 773 1417 c 128,-1,23
 804 1427 804 1427 815 1430 c 1,24,-1
 859 1402 l 1,25,-1
 707 855 l 1,13,14
EndSplineSet
EndChar

StartChar: numbersign
Encoding: 35 35 6
Width: 932
Flags: W
LayerCount: 2
Fore
SplineSet
840 976 m 1,0,-1
 984 976 l 1,1,-1
 1004 951 l 1,2,3
 1000 940 1000 940 992 923 c 128,-1,4
 984 906 984 906 975 888.5 c 128,-1,5
 966 871 966 871 957.5 855 c 128,-1,6
 949 839 949 839 945 831 c 1,7,-1
 782 831 l 1,8,-1
 693 605 l 1,9,-1
 839 605 l 1,10,-1
 856 578 l 1,11,12
 853 568 853 568 845.5 551.5 c 128,-1,13
 838 535 838 535 829.5 517.5 c 128,-1,14
 821 500 821 500 812.5 484.5 c 128,-1,15
 804 469 804 469 800 460 c 1,16,-1
 636 460 l 1,17,-1
 522 170 l 1,18,19
 513 163 513 163 498 157 c 128,-1,20
 483 151 483 151 466 146 c 2,21,-1
 433 136 l 2,22,23
 417 131 417 131 404 127 c 1,24,-1
 383 147 l 1,25,-1
 506 460 l 1,26,-1
 343 460 l 1,27,-1
 229 170 l 1,28,29
 220 163 220 163 205 157 c 128,-1,30
 190 151 190 151 173 146 c 2,31,-1
 140 136 l 2,32,33
 124 131 124 131 111 127 c 1,34,-1
 90 147 l 1,35,-1
 213 460 l 1,36,-1
 60 460 l 1,37,-1
 42 485 l 1,38,39
 46 495 46 495 53.5 511 c 128,-1,40
 61 527 61 527 69.5 544.5 c 128,-1,41
 78 562 78 562 86.5 578.5 c 128,-1,42
 95 595 95 595 101 605 c 1,43,-1
 270 605 l 1,44,-1
 359 831 l 1,45,-1
 207 831 l 1,46,-1
 187 855 l 1,47,48
 191 866 191 866 198.5 882.5 c 128,-1,49
 206 899 206 899 215 916.5 c 128,-1,50
 224 934 224 934 232.5 950 c 128,-1,51
 241 966 241 966 246 976 c 1,52,-1
 416 976 l 1,53,-1
 525 1251 l 1,54,55
 536 1259 536 1259 551.5 1264.5 c 128,-1,56
 567 1270 567 1270 583 1274.5 c 128,-1,57
 599 1279 599 1279 614 1283 c 128,-1,58
 629 1287 629 1287 640 1292 c 1,59,-1
 664 1270 l 1,60,-1
 548 976 l 1,61,-1
 709 976 l 1,62,-1
 818 1251 l 1,63,64
 829 1259 829 1259 844.5 1264.5 c 128,-1,65
 860 1270 860 1270 876 1274.5 c 128,-1,66
 892 1279 892 1279 907 1283 c 128,-1,67
 922 1287 922 1287 933 1292 c 1,68,-1
 956 1270 l 1,69,-1
 840 976 l 1,0,-1
401 605 m 1,70,-1
 563 605 l 1,71,-1
 652 831 l 1,72,-1
 490 831 l 1,73,-1
 401 605 l 1,70,-1
EndSplineSet
EndChar

StartChar: dollar
Encoding: 36 36 7
Width: 932
Flags: W
LayerCount: 2
Fore
SplineSet
309 950 m 0,0,1
 309 927 309 927 314 906.5 c 128,-1,2
 319 886 319 886 333.5 866.5 c 128,-1,3
 348 847 348 847 372.5 827.5 c 128,-1,4
 397 808 397 808 436 788 c 1,5,-1
 481 1109 l 1,6,7
 443 1104 443 1104 411 1089 c 128,-1,8
 379 1074 379 1074 356.5 1052.5 c 128,-1,9
 334 1031 334 1031 321.5 1004.5 c 128,-1,10
 309 978 309 978 309 950 c 0,0,1
644 343 m 0,11,12
 644 398 644 398 613.5 439.5 c 128,-1,13
 583 481 583 481 514 521 c 1,14,-1
 458 118 l 1,15,16
 546 134 546 134 595 192.5 c 128,-1,17
 644 251 644 251 644 343 c 0,11,12
906 1144 m 0,18,19
 910 1141 910 1141 905.5 1125.5 c 128,-1,20
 901 1110 901 1110 891.5 1087.5 c 128,-1,21
 882 1065 882 1065 869 1038.5 c 128,-1,22
 856 1012 856 1012 843 989 c 128,-1,23
 830 966 830 966 818.5 949.5 c 128,-1,24
 807 933 807 933 801 929 c 1,25,-1
 743 937 l 1,26,27
 728 992 728 992 692 1036 c 128,-1,28
 656 1080 656 1080 595 1099 c 1,29,-1
 545 739 l 1,30,31
 617 708 617 708 672.5 676 c 128,-1,32
 728 644 728 644 766 606.5 c 128,-1,33
 804 569 804 569 824 523 c 128,-1,34
 844 477 844 477 844 418 c 0,35,36
 844 340 844 340 818 268.5 c 128,-1,37
 792 197 792 197 741 138.5 c 128,-1,38
 690 80 690 80 614 38.5 c 128,-1,39
 538 -3 538 -3 438 -20 c 1,40,-1
 423 -131 l 1,41,42
 405 -146 405 -146 380.5 -158 c 128,-1,43
 356 -170 356 -170 332 -176 c 1,44,-1
 304 -147 l 1,45,-1
 320 -30 l 1,46,47
 317 -30 317 -30 313.5 -30.5 c 128,-1,48
 310 -31 310 -31 307 -31 c 0,49,50
 261 -31 261 -31 206 -15.5 c 128,-1,51
 151 0 151 0 103 24 c 128,-1,52
 55 48 55 48 23 76.5 c 128,-1,53
 -9 105 -9 105 -9 131 c 0,54,55
 -9 141 -9 141 -2.5 160.5 c 128,-1,56
 4 180 4 180 15 203.5 c 128,-1,57
 26 227 26 227 40 251 c 128,-1,58
 54 275 54 275 68 294.5 c 128,-1,59
 82 314 82 314 95.5 326.5 c 128,-1,60
 109 339 109 339 119 339 c 0,61,62
 128 339 128 339 137.5 325.5 c 128,-1,63
 147 312 147 312 159.5 290.5 c 128,-1,64
 172 269 172 269 188 243 c 128,-1,65
 204 217 204 217 226 192.5 c 128,-1,66
 248 168 248 168 276 148 c 128,-1,67
 304 128 304 128 341 119 c 1,68,-1
 406 574 l 1,69,-1
 370 589 l 1,70,71
 307 614 307 614 258.5 643 c 128,-1,72
 210 672 210 672 177.5 707 c 128,-1,73
 145 742 145 742 128 784 c 128,-1,74
 111 826 111 826 111 878 c 0,75,76
 111 933 111 933 133.5 989 c 128,-1,77
 156 1045 156 1045 203 1092.5 c 128,-1,78
 250 1140 250 1140 323 1174.5 c 128,-1,79
 396 1209 396 1209 497 1223 c 1,80,-1
 514 1338 l 1,81,82
 540 1354 540 1354 558 1367.5 c 128,-1,83
 576 1381 576 1381 602 1389 c 1,84,-1
 632 1359 l 1,85,-1
 614 1231 l 1,86,-1
 617 1231 l 2,87,88
 659 1231 659 1231 699.5 1223.5 c 128,-1,89
 740 1216 740 1216 777.5 1204 c 128,-1,90
 815 1192 815 1192 847.5 1176.5 c 128,-1,91
 880 1161 880 1161 906 1144 c 0,18,19
EndSplineSet
EndChar

StartChar: percent
Encoding: 37 37 8
Width: 1387
Flags: W
LayerCount: 2
Fore
SplineSet
1116 416 m 0,0,1
 1116 502 1116 502 1093 539 c 128,-1,2
 1070 576 1070 576 1036 576 c 0,3,4
 1006 576 1006 576 983.5 555 c 128,-1,5
 961 534 961 534 944.5 500 c 128,-1,6
 928 466 928 466 917 424 c 128,-1,7
 906 382 906 382 899.5 339.5 c 128,-1,8
 893 297 893 297 890.5 259 c 128,-1,9
 888 221 888 221 888 196 c 0,10,11
 888 117 888 117 908.5 80.5 c 128,-1,12
 929 44 929 44 972 44 c 0,13,14
 997 44 997 44 1017.5 62 c 128,-1,15
 1038 80 1038 80 1054 110 c 128,-1,16
 1070 140 1070 140 1082 178.5 c 128,-1,17
 1094 217 1094 217 1101.5 258.5 c 128,-1,18
 1109 300 1109 300 1112.5 341 c 128,-1,19
 1116 382 1116 382 1116 416 c 0,0,1
1307 400 m 0,20,21
 1307 324 1307 324 1282.5 247 c 128,-1,22
 1258 170 1258 170 1210.5 108 c 128,-1,23
 1163 46 1163 46 1093.5 7 c 128,-1,24
 1024 -32 1024 -32 935 -32 c 0,25,26
 881 -32 881 -32 836.5 -11.5 c 128,-1,27
 792 9 792 9 759.5 43.5 c 128,-1,28
 727 78 727 78 709.5 123.5 c 128,-1,29
 692 169 692 169 692 220 c 0,30,31
 692 296 692 296 717.5 373 c 128,-1,32
 743 450 743 450 791.5 511.5 c 128,-1,33
 840 573 840 573 910.5 612 c 128,-1,34
 981 651 981 651 1071 651 c 0,35,36
 1122 651 1122 651 1165 633.5 c 128,-1,37
 1208 616 1208 616 1239.5 583 c 128,-1,38
 1271 550 1271 550 1289 503.5 c 128,-1,39
 1307 457 1307 457 1307 400 c 0,20,21
269 6 m 1,40,41
 258 0 258 0 238.5 -5.5 c 128,-1,42
 219 -11 219 -11 198 -15.5 c 128,-1,43
 177 -20 177 -20 157.5 -24 c 128,-1,44
 138 -28 138 -28 125 -31 c 1,45,-1
 106 0 l 1,46,-1
 1120 1199 l 1,47,48
 1130 1204 1130 1204 1149 1209.5 c 128,-1,49
 1168 1215 1168 1215 1189 1220 c 128,-1,50
 1210 1225 1210 1225 1229.5 1229 c 128,-1,51
 1249 1233 1249 1233 1260 1236 c 1,52,-1
 1281 1206 l 1,53,-1
 269 6 l 1,40,41
505 1004 m 0,54,55
 505 1047 505 1047 499 1077.5 c 128,-1,56
 493 1108 493 1108 482 1127 c 128,-1,57
 471 1146 471 1146 456 1154.5 c 128,-1,58
 441 1163 441 1163 424 1163 c 0,59,60
 394 1163 394 1163 371.5 1142 c 128,-1,61
 349 1121 349 1121 332.5 1087 c 128,-1,62
 316 1053 316 1053 305 1011 c 128,-1,63
 294 969 294 969 287.5 927 c 128,-1,64
 281 885 281 885 278.5 847 c 128,-1,65
 276 809 276 809 276 784 c 0,66,67
 276 704 276 704 296.5 668 c 128,-1,68
 317 632 317 632 360 632 c 0,69,70
 385 632 385 632 405.5 650 c 128,-1,71
 426 668 426 668 442.5 697.5 c 128,-1,72
 459 727 459 727 470.5 765.5 c 128,-1,73
 482 804 482 804 490 845.5 c 128,-1,74
 498 887 498 887 501.5 928 c 128,-1,75
 505 969 505 969 505 1004 c 0,54,55
694 988 m 0,76,77
 694 912 694 912 669.5 835 c 128,-1,78
 645 758 645 758 598 696 c 128,-1,79
 551 634 551 634 482 595 c 128,-1,80
 413 556 413 556 323 556 c 0,81,82
 269 556 269 556 224 576 c 128,-1,83
 179 596 179 596 147 630.5 c 128,-1,84
 115 665 115 665 97.5 710.5 c 128,-1,85
 80 756 80 756 80 807 c 0,86,87
 80 883 80 883 105.5 960 c 128,-1,88
 131 1037 131 1037 179.5 1098.5 c 128,-1,89
 228 1160 228 1160 298.5 1199 c 128,-1,90
 369 1238 369 1238 459 1238 c 0,91,92
 510 1238 510 1238 553 1220.5 c 128,-1,93
 596 1203 596 1203 627.5 1170 c 128,-1,94
 659 1137 659 1137 676.5 1091 c 128,-1,95
 694 1045 694 1045 694 988 c 0,76,77
EndSplineSet
EndChar

StartChar: ampersand
Encoding: 38 38 9
Width: 1293
Flags: W
LayerCount: 2
Fore
SplineSet
576 1130 m 0,0,1
 568 1078 568 1078 573.5 1022.5 c 128,-1,2
 579 967 579 967 595 908 c 1,3,4
 643 937 643 937 676.5 969.5 c 128,-1,5
 710 1002 710 1002 732.5 1035.5 c 128,-1,6
 755 1069 755 1069 767 1103 c 128,-1,7
 779 1137 779 1137 784 1169 c 0,8,9
 795 1240 795 1240 770.5 1280.5 c 128,-1,10
 746 1321 746 1321 701 1321 c 0,11,12
 675 1321 675 1321 654 1306 c 128,-1,13
 633 1291 633 1291 617.5 1265 c 128,-1,14
 602 1239 602 1239 592 1204 c 128,-1,15
 582 1169 582 1169 576 1130 c 0,0,1
507 114 m 0,16,17
 560 114 560 114 610.5 130.5 c 128,-1,18
 661 147 661 147 709 176 c 1,19,20
 672 221 672 221 634 274 c 128,-1,21
 596 327 596 327 560.5 385 c 128,-1,22
 525 443 525 443 492.5 505 c 128,-1,23
 460 567 460 567 434 632 c 1,24,25
 375 569 375 569 347.5 507 c 128,-1,26
 320 445 320 445 310 376 c 1,27,28
 301 306 301 306 315 256 c 128,-1,29
 329 206 329 206 358 174.5 c 128,-1,30
 387 143 387 143 426.5 128.5 c 128,-1,31
 466 114 466 114 507 114 c 0,16,17
1369 748 m 1,32,33
 1356 733 1356 733 1340 714.5 c 128,-1,34
 1324 696 1324 696 1307.5 678.5 c 128,-1,35
 1291 661 1291 661 1275.5 646 c 128,-1,36
 1260 631 1260 631 1248 622 c 1,37,38
 1216 639 1216 639 1178 653.5 c 128,-1,39
 1140 668 1140 668 1109 670 c 1,40,41
 1124 641 1124 641 1125.5 609 c 128,-1,42
 1127 577 1127 577 1122 538 c 0,43,44
 1113 472 1113 472 1075.5 398 c 128,-1,45
 1038 324 1038 324 978 253 c 1,46,47
 994 235 994 235 1009.5 218 c 128,-1,48
 1025 201 1025 201 1040 186 c 0,49,50
 1082 143 1082 143 1131.5 132 c 128,-1,51
 1181 121 1181 121 1229 133 c 1,52,-1
 1234 60 l 1,53,54
 1192 41 1192 41 1146 24.5 c 128,-1,55
 1100 8 1100 8 1059.5 -4 c 128,-1,56
 1019 -16 1019 -16 989 -23 c 128,-1,57
 959 -30 959 -30 949 -30 c 0,58,59
 926 -30 926 -30 884 0.5 c 128,-1,60
 842 31 842 31 789 86 c 1,61,62
 709 33 709 33 619 1.5 c 128,-1,63
 529 -30 529 -30 432 -30 c 256,64,65
 335 -30 335 -30 261 -5 c 128,-1,66
 187 20 187 20 139.5 68.5 c 128,-1,67
 92 117 92 117 73.5 189 c 128,-1,68
 55 261 55 261 68 355 c 0,69,70
 82 461 82 461 159 566 c 128,-1,71
 236 671 236 671 385 777 c 1,72,73
 365 853 365 853 357.5 927 c 128,-1,74
 350 1001 350 1001 360 1073 c 0,75,76
 371 1154 371 1154 409 1223 c 128,-1,77
 447 1292 447 1292 503.5 1342.5 c 128,-1,78
 560 1393 560 1393 630 1421.5 c 128,-1,79
 700 1450 700 1450 775 1450 c 0,80,81
 845 1450 845 1450 892.5 1429.5 c 128,-1,82
 940 1409 940 1409 968 1374.5 c 128,-1,83
 996 1340 996 1340 1005.5 1295.5 c 128,-1,84
 1015 1251 1015 1251 1008 1202 c 0,85,86
 1001 1150 1001 1150 969 1096.5 c 128,-1,87
 937 1043 937 1043 889 992 c 128,-1,88
 841 941 841 941 783 894.5 c 128,-1,89
 725 848 725 848 665 811 c 2,90,-1
 635 792 l 1,91,92
 681 676 681 676 750 564 c 128,-1,93
 819 452 819 452 893 356 c 1,94,95
 938 427 938 427 949 497 c 0,96,97
 955 540 955 540 947.5 574.5 c 128,-1,98
 940 609 940 609 923.5 633 c 128,-1,99
 907 657 907 657 883.5 670 c 128,-1,100
 860 683 860 683 833 683 c 1,101,-1
 810 718 l 1,102,103
 816 724 816 724 827.5 735 c 128,-1,104
 839 746 839 746 852.5 757.5 c 128,-1,105
 866 769 866 769 879 778.5 c 128,-1,106
 892 788 892 788 902 792 c 1,107,-1
 1347 792 l 1,108,-1
 1369 748 l 1,32,33
EndSplineSet
EndChar

StartChar: quotesingle
Encoding: 39 39 10
Width: 478
Flags: W
LayerCount: 2
Fore
SplineSet
333 855 m 1,0,1
 325 850 325 850 311.5 846.5 c 128,-1,2
 298 843 298 843 283.5 841 c 128,-1,3
 269 839 269 839 254.5 837.5 c 128,-1,4
 240 836 240 836 229 836 c 1,5,-1
 224 1352 l 1,6,7
 236 1358 236 1358 267 1370 c 128,-1,8
 298 1382 298 1382 333 1394.5 c 128,-1,9
 368 1407 368 1407 399 1417 c 128,-1,10
 430 1427 430 1427 441 1430 c 1,11,-1
 485 1402 l 1,12,-1
 333 855 l 1,0,1
EndSplineSet
EndChar

StartChar: parenleft
Encoding: 40 40 11
Width: 632
Flags: W
LayerCount: 2
Fore
SplineSet
748 1529 m 1,0,1
 681 1474 681 1474 620 1395 c 128,-1,2
 559 1316 559 1316 508.5 1210.5 c 128,-1,3
 458 1105 458 1105 419 972.5 c 128,-1,4
 380 840 380 840 358 680 c 0,5,6
 337 534 337 534 334 400 c 128,-1,7
 331 266 331 266 347.5 149 c 128,-1,8
 364 32 364 32 401.5 -66.5 c 128,-1,9
 439 -165 439 -165 499 -240 c 1,10,-1
 440 -315 l 1,11,12
 341 -255 341 -255 268 -156.5 c 128,-1,13
 195 -58 195 -58 152 68 c 128,-1,14
 109 194 109 194 97 342 c 128,-1,15
 85 490 85 490 108 649 c 0,16,17
 131 813 131 813 184.5 961.5 c 128,-1,18
 238 1110 238 1110 316 1233.5 c 128,-1,19
 394 1357 394 1357 494 1452 c 128,-1,20
 594 1547 594 1547 710 1604 c 1,21,-1
 748 1529 l 1,0,1
EndSplineSet
EndChar

StartChar: parenright
Encoding: 41 41 12
Width: 632
Flags: W
LayerCount: 2
Fore
SplineSet
544 635 m 0,0,1
 521 471 521 471 467.5 323.5 c 128,-1,2
 414 176 414 176 336 53 c 128,-1,3
 258 -70 258 -70 158 -164 c 128,-1,4
 58 -258 58 -258 -58 -315 c 1,5,-1
 -96 -240 l 1,6,7
 -29 -185 -29 -185 31.5 -106.5 c 128,-1,8
 92 -28 92 -28 143 76.5 c 128,-1,9
 194 181 194 181 232.5 312.5 c 128,-1,10
 271 444 271 444 294 605 c 0,11,12
 315 750 315 750 318 884.5 c 128,-1,13
 321 1019 321 1019 304.5 1137 c 128,-1,14
 288 1255 288 1255 250.5 1354.5 c 128,-1,15
 213 1454 213 1454 153 1529 c 1,16,-1
 212 1604 l 1,17,18
 311 1544 311 1544 384 1444.5 c 128,-1,19
 457 1345 457 1345 500 1218.5 c 128,-1,20
 543 1092 543 1092 555 943 c 128,-1,21
 567 794 567 794 544 635 c 0,0,1
EndSplineSet
EndChar

StartChar: asterisk
Encoding: 42 42 13
Width: 741
Flags: W
LayerCount: 2
Fore
SplineSet
444 1220 m 1,0,-1
 671 1404 l 1,1,-1
 695 1383 l 2,2,3
 711 1369 711 1369 728 1352.5 c 128,-1,4
 745 1336 745 1336 759.5 1321 c 128,-1,5
 774 1306 774 1306 780 1298 c 1,6,-1
 765 1242 l 1,7,-1
 480 1136 l 1,8,-1
 715 1040 l 1,9,10
 713 1028 713 1028 707 1004 c 128,-1,11
 701 980 701 980 694 954 c 128,-1,12
 687 928 687 928 679.5 905 c 128,-1,13
 672 882 672 882 668 871 c 1,14,-1
 616 851 l 1,15,-1
 424 1049 l 1,16,-1
 432 770 l 1,17,18
 421 764 421 764 399 754.5 c 128,-1,19
 377 745 377 745 353 735.5 c 128,-1,20
 329 726 329 726 307 718 c 128,-1,21
 285 710 285 710 275 708 c 1,22,-1
 240 743 l 1,23,-1
 331 1048 l 1,24,-1
 104 864 l 1,25,26
 95 871 95 871 79 885.5 c 128,-1,27
 63 900 63 900 46 916 c 128,-1,28
 29 932 29 932 14.5 947 c 128,-1,29
 0 962 0 962 -6 970 c 1,30,-1
 11 1026 l 1,31,-1
 296 1132 l 1,32,-1
 60 1228 l 1,33,-1
 69 1264 l 2,34,35
 75 1288 75 1288 82 1314 c 128,-1,36
 89 1340 89 1340 95.5 1363 c 128,-1,37
 102 1386 102 1386 107 1397 c 1,38,-1
 158 1417 l 1,39,-1
 351 1219 l 1,40,-1
 343 1498 l 1,41,42
 354 1504 354 1504 375.5 1513.5 c 128,-1,43
 397 1523 397 1523 421 1532.5 c 128,-1,44
 445 1542 445 1542 467 1550 c 128,-1,45
 489 1558 489 1558 500 1561 c 1,46,-1
 536 1525 l 1,47,-1
 444 1220 l 1,0,-1
EndSplineSet
EndChar

StartChar: plus
Encoding: 43 43 14
Width: 819
Flags: W
LayerCount: 2
Fore
SplineSet
769 604 m 1,0,1
 765 593 765 593 757.5 577 c 128,-1,2
 750 561 750 561 741.5 544.5 c 128,-1,3
 733 528 733 528 724.5 513 c 128,-1,4
 716 498 716 498 712 490 c 1,5,-1
 478 490 l 1,6,-1
 442 225 l 1,7,8
 433 220 433 220 418.5 214 c 128,-1,9
 404 208 404 208 388 202.5 c 128,-1,10
 372 197 372 197 357 192.5 c 128,-1,11
 342 188 342 188 332 186 c 1,12,-1
 308 216 l 1,13,-1
 346 490 l 1,14,-1
 84 490 l 1,15,-1
 60 522 l 1,16,17
 64 532 64 532 71.5 547.5 c 128,-1,18
 79 563 79 563 87 579 c 128,-1,19
 95 595 95 595 103.5 610 c 128,-1,20
 112 625 112 625 117 635 c 1,21,-1
 366 635 l 1,22,-1
 403 902 l 1,23,24
 411 905 411 905 425.5 910 c 128,-1,25
 440 915 440 915 455.5 920.5 c 128,-1,26
 471 926 471 926 486.5 931 c 128,-1,27
 502 936 502 936 512 939 c 1,28,-1
 536 908 l 1,29,-1
 498 635 l 1,30,-1
 743 635 l 1,31,-1
 769 604 l 1,0,1
EndSplineSet
EndChar

StartChar: comma
Encoding: 44 44 15
Width: 478
Flags: W
LayerCount: 2
Fore
SplineSet
375 117 m 0,0,1
 375 76 375 76 360.5 29.5 c 128,-1,2
 346 -17 346 -17 321 -64.5 c 128,-1,3
 296 -112 296 -112 262.5 -158 c 128,-1,4
 229 -204 229 -204 192.5 -245 c 128,-1,5
 156 -286 156 -286 118 -319 c 128,-1,6
 80 -352 80 -352 45 -373 c 1,7,-1
 -12 -323 l 1,8,9
 64 -242 64 -242 102.5 -162 c 128,-1,10
 141 -82 141 -82 141 -23 c 0,11,12
 141 -4 141 -4 134.5 14.5 c 128,-1,13
 128 33 128 33 114.5 47.5 c 128,-1,14
 101 62 101 62 80 69.5 c 128,-1,15
 59 77 59 77 29 74 c 1,16,-1
 25 152 l 1,17,18
 36 161 36 161 57 173 c 128,-1,19
 78 185 78 185 104 197 c 128,-1,20
 130 209 130 209 159 220 c 128,-1,21
 188 231 188 231 215.5 239.5 c 128,-1,22
 243 248 243 248 266 253.5 c 128,-1,23
 289 259 289 259 304 259 c 1,24,25
 322 249 322 249 335 237 c 128,-1,26
 348 225 348 225 357 208.5 c 128,-1,27
 366 192 366 192 370.5 170 c 128,-1,28
 375 148 375 148 375 117 c 0,0,1
EndSplineSet
EndChar

StartChar: period
Encoding: 46 46 17
Width: 478
Flags: W
LayerCount: 2
Fore
SplineSet
351 167 m 0,0,1
 351 134 351 134 339 98.5 c 128,-1,2
 327 63 327 63 303 34.5 c 128,-1,3
 279 6 279 6 244.5 -12.5 c 128,-1,4
 210 -31 210 -31 165 -31 c 0,5,6
 102 -31 102 -31 73 0.5 c 128,-1,7
 44 32 44 32 44 83 c 0,8,9
 44 115 44 115 57 149 c 128,-1,10
 70 183 70 183 94.5 211.5 c 128,-1,11
 119 240 119 240 153.5 258 c 128,-1,12
 188 276 188 276 231 276 c 0,13,14
 291 276 291 276 321 245.5 c 128,-1,15
 351 215 351 215 351 167 c 0,0,1
EndSplineSet
EndChar

StartChar: slash
Encoding: 47 47 18
Width: 888
Flags: W
LayerCount: 2
Fore
SplineSet
102 -270 m 1,0,1
 92 -277 92 -277 67.5 -286.5 c 128,-1,2
 43 -296 43 -296 15.5 -306 c 128,-1,3
 -12 -316 -12 -316 -37.5 -324 c 128,-1,4
 -63 -332 -63 -332 -75 -336 c 1,5,-1
 -111 -304 l 1,6,-1
 787 1535 l 1,7,8
 800 1544 800 1544 823 1553.5 c 128,-1,9
 846 1563 846 1563 871 1572 c 128,-1,10
 896 1581 896 1581 919.5 1588 c 128,-1,11
 943 1595 943 1595 958 1599 c 1,12,-1
 997 1570 l 1,13,-1
 102 -270 l 1,0,1
EndSplineSet
EndChar

StartChar: zero
Encoding: 48 48 19
Width: 932
GlyphClass: 2
Flags: W
AnchorPoint: "Anchor-4" 932 870 basechar 0
AnchorPoint: "Anchor-3" 369 -100 basechar 0
AnchorPoint: "Anchor-2" 369 -100 basechar 0
AnchorPoint: "Anchor-1" 369 -100 basechar 0
AnchorPoint: "Anchor-0" 569 1320 basechar 0
LayerCount: 2
Fore
SplineSet
657 809 m 0,0,1
 657 888 657 888 646.5 944.5 c 128,-1,2
 636 1001 636 1001 617 1036.5 c 128,-1,3
 598 1072 598 1072 573 1088.5 c 128,-1,4
 548 1105 548 1105 518 1105 c 0,5,6
 465 1105 465 1105 426.5 1065.5 c 128,-1,7
 388 1026 388 1026 360.5 962.5 c 128,-1,8
 333 899 333 899 315.5 820 c 128,-1,9
 298 741 298 741 288 662 c 128,-1,10
 278 583 278 583 274 512.5 c 128,-1,11
 270 442 270 442 270 395 c 0,12,13
 270 242 270 242 305 171.5 c 128,-1,14
 340 101 340 101 414 101 c 0,15,16
 460 101 460 101 496.5 135.5 c 128,-1,17
 533 170 533 170 560 227 c 128,-1,18
 587 284 587 284 605.5 358 c 128,-1,19
 624 432 624 432 635.5 510.5 c 128,-1,20
 647 589 647 589 652 666.5 c 128,-1,21
 657 744 657 744 657 809 c 0,0,1
897 784 m 0,22,23
 897 635 897 635 867 500 c 128,-1,24
 837 365 837 365 761 236 c 0,25,26
 728 180 728 180 686.5 131.5 c 128,-1,27
 645 83 645 83 594.5 47 c 128,-1,28
 544 11 544 11 485.5 -10 c 128,-1,29
 427 -31 427 -31 360 -31 c 0,30,31
 285 -31 285 -31 224 5.5 c 128,-1,32
 163 42 163 42 120.5 104.5 c 128,-1,33
 78 167 78 167 55 249 c 128,-1,34
 32 331 32 331 32 422 c 0,35,36
 32 500 32 500 39 569.5 c 128,-1,37
 46 639 46 639 61.5 703.5 c 128,-1,38
 77 768 77 768 102 831.5 c 128,-1,39
 127 895 127 895 162 961 c 0,40,41
 193 1018 193 1018 235.5 1068 c 128,-1,42
 278 1118 278 1118 329.5 1155 c 128,-1,43
 381 1192 381 1192 441 1213.5 c 128,-1,44
 501 1235 501 1235 569 1235 c 0,45,46
 639 1235 639 1235 699 1203 c 128,-1,47
 759 1171 759 1171 803 1112.5 c 128,-1,48
 847 1054 847 1054 872 970.5 c 128,-1,49
 897 887 897 887 897 784 c 0,22,23
EndSplineSet
EndChar

StartChar: one
Encoding: 49 49 20
Width: 932
GlyphClass: 2
Flags: W
AnchorPoint: "Anchor-4" 932 870 basechar 0
AnchorPoint: "Anchor-3" 369 -100 basechar 0
AnchorPoint: "Anchor-2" 369 -100 basechar 0
AnchorPoint: "Anchor-1" 369 -100 basechar 0
AnchorPoint: "Anchor-0" 569 1320 basechar 0
LayerCount: 2
Fore
SplineSet
771 0 m 1,0,-1
 69 0 l 1,1,-1
 80 83 l 1,2,3
 154 92 154 92 203.5 103.5 c 128,-1,4
 253 115 253 115 283.5 127 c 128,-1,5
 314 139 314 139 327.5 150.5 c 128,-1,6
 341 162 341 162 343 173 c 2,7,-1
 443 910 l 2,8,9
 448 950 448 950 448.5 972 c 128,-1,10
 449 994 449 994 440 1008 c 0,11,12
 435 1014 435 1014 421 1018 c 128,-1,13
 407 1022 407 1022 379.5 1021 c 128,-1,14
 352 1020 352 1020 309 1014 c 128,-1,15
 266 1008 266 1008 203 994 c 1,16,-1
 188 1075 l 1,17,18
 215 1081 215 1081 254.5 1093 c 128,-1,19
 294 1105 294 1105 339.5 1120 c 128,-1,20
 385 1135 385 1135 433.5 1152.5 c 128,-1,21
 482 1170 482 1170 526.5 1187 c 128,-1,22
 571 1204 571 1204 608.5 1219 c 128,-1,23
 646 1234 646 1234 670 1245 c 1,24,-1
 705 1203 l 1,25,-1
 565 173 l 2,26,27
 563 163 563 163 571.5 151.5 c 128,-1,28
 580 140 580 140 604 128 c 128,-1,29
 628 116 628 116 671 104 c 128,-1,30
 714 92 714 92 782 83 c 1,31,-1
 771 0 l 1,0,-1
EndSplineSet
EndChar

StartChar: two
Encoding: 50 50 21
Width: 932
GlyphClass: 2
Flags: W
AnchorPoint: "Anchor-4" 932 870 basechar 0
AnchorPoint: "Anchor-3" 369 -100 basechar 0
AnchorPoint: "Anchor-2" 369 -100 basechar 0
AnchorPoint: "Anchor-1" 369 -100 basechar 0
AnchorPoint: "Anchor-0" 569 1320 basechar 0
LayerCount: 2
Fore
SplineSet
887 1021 m 0,0,1
 887 979 887 979 876 935.5 c 128,-1,2
 865 892 865 892 837.5 839.5 c 128,-1,3
 810 787 810 787 764 723.5 c 128,-1,4
 718 660 718 660 647.5 579.5 c 128,-1,5
 577 499 577 499 480.5 398.5 c 128,-1,6
 384 298 384 298 256 171 c 1,7,-1
 616 171 l 2,8,9
 632 171 632 171 646 179.5 c 128,-1,10
 660 188 660 188 671.5 202.5 c 128,-1,11
 683 217 683 217 692 235 c 128,-1,12
 701 253 701 253 709 272 c 0,13,14
 726 317 726 317 737 374 c 1,15,-1
 811 355 l 1,16,-1
 748 0 l 1,17,-1
 8 0 l 1,18,-1
 -8 74 l 1,19,20
 171 255 171 255 295.5 395 c 128,-1,21
 420 535 420 535 498 643.5 c 128,-1,22
 576 752 576 752 611 833 c 128,-1,23
 646 914 646 914 646 977 c 0,24,25
 646 1049 646 1049 614 1084 c 128,-1,26
 582 1119 582 1119 521 1119 c 0,27,28
 484 1119 484 1119 457.5 1101 c 128,-1,29
 431 1083 431 1083 414.5 1054.5 c 128,-1,30
 398 1026 398 1026 390 990.5 c 128,-1,31
 382 955 382 955 383 919 c 1,32,33
 367 910 367 910 340 899.5 c 128,-1,34
 313 889 313 889 282.5 880 c 128,-1,35
 252 871 252 871 223 864 c 128,-1,36
 194 857 194 857 173 855 c 1,37,-1
 149 923 l 1,38,39
 156 975 156 975 195.5 1030 c 128,-1,40
 235 1085 235 1085 297 1130.5 c 128,-1,41
 359 1176 359 1176 438 1205.5 c 128,-1,42
 517 1235 517 1235 603 1235 c 0,43,44
 658 1235 658 1235 709.5 1224 c 128,-1,45
 761 1213 761 1213 800.5 1187.5 c 128,-1,46
 840 1162 840 1162 863.5 1121.5 c 128,-1,47
 887 1081 887 1081 887 1021 c 0,0,1
EndSplineSet
EndChar

StartChar: three
Encoding: 51 51 22
Width: 932
GlyphClass: 2
Flags: W
AnchorPoint: "Anchor-4" 932 870 basechar 0
AnchorPoint: "Anchor-3" 369 -100 basechar 0
AnchorPoint: "Anchor-2" 369 -100 basechar 0
AnchorPoint: "Anchor-1" 369 -100 basechar 0
AnchorPoint: "Anchor-0" 569 1320 basechar 0
LayerCount: 2
Fore
SplineSet
838 1001 m 0,0,1
 838 947 838 947 820.5 900.5 c 128,-1,2
 803 854 803 854 772 815.5 c 128,-1,3
 741 777 741 777 699 747.5 c 128,-1,4
 657 718 657 718 609 698 c 1,5,6
 660 692 660 692 698.5 668 c 128,-1,7
 737 644 737 644 762.5 607 c 128,-1,8
 788 570 788 570 801 524 c 128,-1,9
 814 478 814 478 814 428 c 0,10,11
 814 334 814 334 776 250.5 c 128,-1,12
 738 167 738 167 672.5 104.5 c 128,-1,13
 607 42 607 42 519 5.5 c 128,-1,14
 431 -31 431 -31 330 -31 c 0,15,16
 295 -31 295 -31 252.5 -20 c 128,-1,17
 210 -9 210 -9 166 12 c 128,-1,18
 122 33 122 33 80 64 c 128,-1,19
 38 95 38 95 3 134 c 1,20,-1
 57 231 l 1,21,22
 130 163 130 163 197.5 136.5 c 128,-1,23
 265 110 265 110 334 110 c 0,24,25
 385 110 385 110 429 131.5 c 128,-1,26
 473 153 473 153 504.5 191 c 128,-1,27
 536 229 536 229 554 282.5 c 128,-1,28
 572 336 572 336 572 401 c 0,29,30
 572 453 572 453 559 491 c 128,-1,31
 546 529 546 529 522.5 553.5 c 128,-1,32
 499 578 499 578 467.5 589.5 c 128,-1,33
 436 601 436 601 400 601 c 2,34,-1
 380 601 l 2,35,36
 372 601 372 601 364.5 600 c 128,-1,37
 357 599 357 599 348.5 598 c 128,-1,38
 340 597 340 597 326 594 c 1,39,-1
 320 684 l 1,40,41
 452 718 452 718 526.5 791.5 c 128,-1,42
 601 865 601 865 601 986 c 0,43,44
 601 1049 601 1049 577 1084 c 128,-1,45
 553 1119 553 1119 500 1119 c 0,46,47
 473 1119 473 1119 450.5 1107.5 c 128,-1,48
 428 1096 428 1096 411.5 1075 c 128,-1,49
 395 1054 395 1054 387 1024.5 c 128,-1,50
 379 995 379 995 381 958 c 1,51,52
 361 947 361 947 333.5 935 c 128,-1,53
 306 923 306 923 276.5 913.5 c 128,-1,54
 247 904 247 904 218 897 c 128,-1,55
 189 890 189 890 167 889 c 1,56,-1
 143 950 l 1,57,58
 147 978 147 978 164.5 1010 c 128,-1,59
 182 1042 182 1042 210 1073.5 c 128,-1,60
 238 1105 238 1105 275.5 1134.5 c 128,-1,61
 313 1164 313 1164 357.5 1186 c 128,-1,62
 402 1208 402 1208 452 1221.5 c 128,-1,63
 502 1235 502 1235 556 1235 c 0,64,65
 636 1235 636 1235 690 1215.5 c 128,-1,66
 744 1196 744 1196 777 1163.5 c 128,-1,67
 810 1131 810 1131 824 1088.5 c 128,-1,68
 838 1046 838 1046 838 1001 c 0,0,1
EndSplineSet
EndChar

StartChar: four
Encoding: 52 52 23
Width: 932
GlyphClass: 2
Flags: W
AnchorPoint: "Anchor-4" 932 870 basechar 0
AnchorPoint: "Anchor-3" 369 -100 basechar 0
AnchorPoint: "Anchor-2" 369 -100 basechar 0
AnchorPoint: "Anchor-1" 369 -100 basechar 0
AnchorPoint: "Anchor-0" 569 1320 basechar 0
LayerCount: 2
Fore
SplineSet
232 475 m 1,0,-1
 512 475 l 1,1,-1
 582 980 l 1,2,-1
 232 475 l 1,0,-1
872 444 m 1,3,4
 848 412 848 412 817.5 382 c 128,-1,5
 787 352 787 352 764 335 c 1,6,-1
 705 335 l 1,7,-1
 678 134 l 2,8,9
 676 126 676 126 681 119.5 c 128,-1,10
 686 113 686 113 699.5 105.5 c 128,-1,11
 713 98 713 98 737 90 c 128,-1,12
 761 82 761 82 798 73 c 1,13,-1
 789 0 l 1,14,-1
 253 0 l 1,15,-1
 263 73 l 1,16,17
 324 84 324 84 363.5 93.5 c 128,-1,18
 403 103 403 103 425.5 111.5 c 128,-1,19
 448 120 448 120 457 128 c 128,-1,20
 466 136 466 136 467 145 c 2,21,-1
 493 335 l 1,22,-1
 56 335 l 1,23,-1
 23 376 l 1,24,-1
 575 1167 l 1,25,26
 598 1175 598 1175 626.5 1185 c 128,-1,27
 655 1195 655 1195 684 1205.5 c 128,-1,28
 713 1216 713 1216 740.5 1226.5 c 128,-1,29
 768 1237 768 1237 789 1245 c 1,30,-1
 824 1203 l 1,31,-1
 724 475 l 1,32,-1
 852 475 l 1,33,-1
 872 444 l 1,3,4
EndSplineSet
EndChar

StartChar: five
Encoding: 53 53 24
Width: 932
GlyphClass: 2
Flags: W
AnchorPoint: "Anchor-4" 932 870 basechar 0
AnchorPoint: "Anchor-3" 369 -100 basechar 0
AnchorPoint: "Anchor-2" 369 -100 basechar 0
AnchorPoint: "Anchor-1" 369 -100 basechar 0
AnchorPoint: "Anchor-0" 569 1320 basechar 0
LayerCount: 2
Fore
SplineSet
911 1187 m 1,0,1
 899 1170 899 1170 879 1145.5 c 128,-1,2
 859 1121 859 1121 837 1096.5 c 128,-1,3
 815 1072 815 1072 795 1052 c 128,-1,4
 775 1032 775 1032 763 1023 c 1,5,-1
 367 1023 l 1,6,7
 361 994 361 994 351.5 956.5 c 128,-1,8
 342 919 342 919 332 881.5 c 128,-1,9
 322 844 322 844 312.5 810 c 128,-1,10
 303 776 303 776 296 754 c 1,11,12
 333 772 333 772 388.5 783.5 c 128,-1,13
 444 795 444 795 501 795 c 0,14,15
 584 795 584 795 645 767.5 c 128,-1,16
 706 740 706 740 746.5 695 c 128,-1,17
 787 650 787 650 807 593 c 128,-1,18
 827 536 827 536 827 477 c 0,19,20
 827 417 827 417 813.5 356.5 c 128,-1,21
 800 296 800 296 773 239.5 c 128,-1,22
 746 183 746 183 706 133.5 c 128,-1,23
 666 84 666 84 612.5 47.5 c 128,-1,24
 559 11 559 11 492.5 -10 c 128,-1,25
 426 -31 426 -31 347 -31 c 0,26,27
 303 -31 303 -31 257.5 -20.5 c 128,-1,28
 212 -10 212 -10 168 10 c 128,-1,29
 124 30 124 30 83 60.5 c 128,-1,30
 42 91 42 91 7 130 c 1,31,-1
 63 220 l 1,32,33
 108 185 108 185 147 162 c 128,-1,34
 186 139 186 139 220 125.5 c 128,-1,35
 254 112 254 112 285.5 107 c 128,-1,36
 317 102 317 102 347 102 c 0,37,38
 402 102 402 102 448 128.5 c 128,-1,39
 494 155 494 155 527 199.5 c 128,-1,40
 560 244 560 244 578.5 303.5 c 128,-1,41
 597 363 597 363 597 429 c 0,42,43
 597 478 597 478 583.5 518.5 c 128,-1,44
 570 559 570 559 545.5 587.5 c 128,-1,45
 521 616 521 616 485.5 632 c 128,-1,46
 450 648 450 648 406 648 c 0,47,48
 332 648 332 648 274.5 624 c 128,-1,49
 217 600 217 600 163 560 c 1,50,-1
 122 593 l 1,51,52
 134 629 134 629 149 678.5 c 128,-1,53
 164 728 164 728 179.5 784.5 c 128,-1,54
 195 841 195 841 211 900 c 128,-1,55
 227 959 227 959 240.5 1015 c 128,-1,56
 254 1071 254 1071 265.5 1120 c 128,-1,57
 277 1169 277 1169 283 1204 c 1,58,-1
 770 1204 l 2,59,60
 795 1204 795 1204 815.5 1206.5 c 128,-1,61
 836 1209 836 1209 850 1213 c 0,62,63
 867 1217 867 1217 880 1223 c 1,64,-1
 911 1187 l 1,0,1
EndSplineSet
EndChar

StartChar: six
Encoding: 54 54 25
Width: 932
GlyphClass: 2
Flags: W
AnchorPoint: "Anchor-4" 932 870 basechar 0
AnchorPoint: "Anchor-3" 369 -100 basechar 0
AnchorPoint: "Anchor-2" 369 -100 basechar 0
AnchorPoint: "Anchor-1" 369 -100 basechar 0
AnchorPoint: "Anchor-0" 569 1320 basechar 0
LayerCount: 2
Fore
SplineSet
492 644 m 0,0,1
 451 644 451 644 404 616 c 128,-1,2
 357 588 357 588 307 537 c 1,3,4
 302 496 302 496 299.5 455.5 c 128,-1,5
 297 415 297 415 297 373 c 0,6,7
 297 298 297 298 308.5 246 c 128,-1,8
 320 194 320 194 341 161.5 c 128,-1,9
 362 129 362 129 390.5 114 c 128,-1,10
 419 99 419 99 453 99 c 0,11,12
 486 99 486 99 511.5 115.5 c 128,-1,13
 537 132 537 132 556.5 160 c 128,-1,14
 576 188 576 188 590 224 c 128,-1,15
 604 260 604 260 612.5 298 c 128,-1,16
 621 336 621 336 625 374.5 c 128,-1,17
 629 413 629 413 629 445 c 0,18,19
 629 506 629 506 616.5 545 c 128,-1,20
 604 584 604 584 584.5 606 c 128,-1,21
 565 628 565 628 540.5 636 c 128,-1,22
 516 644 516 644 492 644 c 0,0,1
875 1160 m 1,23,24
 759 1138 759 1138 670.5 1093.5 c 128,-1,25
 582 1049 582 1049 516.5 987 c 128,-1,26
 451 925 451 925 407 847.5 c 128,-1,27
 363 770 363 770 337 682 c 1,28,29
 400 733 400 733 460.5 759 c 128,-1,30
 521 785 521 785 575 785 c 0,31,32
 642 785 642 785 695 763 c 128,-1,33
 748 741 748 741 785.5 701 c 128,-1,34
 823 661 823 661 843 605.5 c 128,-1,35
 863 550 863 550 863 483 c 0,36,37
 863 429 863 429 849 369.5 c 128,-1,38
 835 310 835 310 808 253 c 128,-1,39
 781 196 781 196 742 144.5 c 128,-1,40
 703 93 703 93 652.5 54 c 128,-1,41
 602 15 602 15 541 -8 c 128,-1,42
 480 -31 480 -31 409 -31 c 0,43,44
 336 -31 336 -31 272 -2.5 c 128,-1,45
 208 26 208 26 160 77.5 c 128,-1,46
 112 129 112 129 84.5 201 c 128,-1,47
 57 273 57 273 57 360 c 0,48,49
 57 468 57 468 80.5 571.5 c 128,-1,50
 104 675 104 675 150 768.5 c 128,-1,51
 196 862 196 862 264.5 943 c 128,-1,52
 333 1024 333 1024 422.5 1087 c 128,-1,53
 512 1150 512 1150 622 1192 c 128,-1,54
 732 1234 732 1234 862 1249 c 1,55,-1
 875 1160 l 1,23,24
EndSplineSet
EndChar

StartChar: seven
Encoding: 55 55 26
Width: 932
GlyphClass: 2
Flags: W
AnchorPoint: "Anchor-4" 932 870 basechar 0
AnchorPoint: "Anchor-3" 369 -100 basechar 0
AnchorPoint: "Anchor-2" 369 -100 basechar 0
AnchorPoint: "Anchor-1" 369 -100 basechar 0
AnchorPoint: "Anchor-0" 569 1320 basechar 0
LayerCount: 2
Fore
SplineSet
970 1167 m 1,0,1
 913 1059 913 1059 856.5 949.5 c 128,-1,2
 800 840 800 840 747 734 c 128,-1,3
 694 628 694 628 645 528 c 128,-1,4
 596 428 596 428 554 339.5 c 128,-1,5
 512 251 512 251 478 177.5 c 128,-1,6
 444 104 444 104 421 51 c 1,7,8
 403 39 403 39 376 27 c 128,-1,9
 349 15 349 15 319 4.5 c 128,-1,10
 289 -6 289 -6 259 -15 c 128,-1,11
 229 -24 229 -24 205 -30 c 1,12,-1
 165 10 l 1,13,14
 232 112 232 112 289.5 203 c 128,-1,15
 347 294 347 294 397.5 378.5 c 128,-1,16
 448 463 448 463 493 542.5 c 128,-1,17
 538 622 538 622 581.5 700.5 c 128,-1,18
 625 779 625 779 667.5 859 c 128,-1,19
 710 939 710 939 756 1024 c 1,20,-1
 336 1024 l 2,21,22
 322 1024 322 1024 306.5 1020.5 c 128,-1,23
 291 1017 291 1017 272 1001.5 c 128,-1,24
 253 986 253 986 230.5 953.5 c 128,-1,25
 208 921 208 921 180 863 c 1,26,-1
 120 888 l 1,27,28
 126 911 126 911 138 955 c 128,-1,29
 150 999 150 999 163 1047 c 128,-1,30
 176 1095 176 1095 188.5 1138.5 c 128,-1,31
 201 1182 201 1182 210 1204 c 1,32,-1
 945 1204 l 1,33,-1
 970 1167 l 1,0,1
EndSplineSet
EndChar

StartChar: eight
Encoding: 56 56 27
Width: 932
GlyphClass: 2
Flags: W
AnchorPoint: "Anchor-4" 932 870 basechar 0
AnchorPoint: "Anchor-3" 369 -100 basechar 0
AnchorPoint: "Anchor-2" 369 -100 basechar 0
AnchorPoint: "Anchor-1" 369 -100 basechar 0
AnchorPoint: "Anchor-0" 569 1320 basechar 0
LayerCount: 2
Fore
SplineSet
385 940 m 0,0,1
 385 904 385 904 399 877 c 128,-1,2
 413 850 413 850 436.5 827.5 c 128,-1,3
 460 805 460 805 491 787 c 128,-1,4
 522 769 522 769 557 751 c 1,5,6
 602 792 602 792 634 846 c 128,-1,7
 666 900 666 900 666 975 c 0,8,9
 666 1045 666 1045 631 1082 c 128,-1,10
 596 1119 596 1119 535 1119 c 0,11,12
 503 1119 503 1119 476 1103.5 c 128,-1,13
 449 1088 449 1088 428.5 1062.5 c 128,-1,14
 408 1037 408 1037 396.5 1005 c 128,-1,15
 385 973 385 973 385 940 c 0,0,1
615 342 m 0,16,17
 615 392 615 392 600 429 c 128,-1,18
 585 466 585 466 560.5 494 c 128,-1,19
 536 522 536 522 503 543 c 128,-1,20
 470 564 470 564 434 583 c 1,21,22
 399 552 399 552 370 518.5 c 128,-1,23
 341 485 341 485 320 447 c 128,-1,24
 299 409 299 409 287.5 366 c 128,-1,25
 276 323 276 323 276 274 c 0,26,27
 276 231 276 231 288 197.5 c 128,-1,28
 300 164 300 164 320 140.5 c 128,-1,29
 340 117 340 117 367.5 105 c 128,-1,30
 395 93 395 93 425 93 c 0,31,32
 469 93 469 93 504 115 c 128,-1,33
 539 137 539 137 564 172 c 128,-1,34
 589 207 589 207 602 252 c 128,-1,35
 615 297 615 297 615 342 c 0,16,17
894 1001 m 0,36,37
 894 949 894 949 873 905.5 c 128,-1,38
 852 862 852 862 818 825.5 c 128,-1,39
 784 789 784 789 741.5 758 c 128,-1,40
 699 727 699 727 657 700 c 1,41,42
 696 678 696 678 732.5 651 c 128,-1,43
 769 624 769 624 796.5 588 c 128,-1,44
 824 552 824 552 840.5 505.5 c 128,-1,45
 857 459 857 459 857 397 c 0,46,47
 857 312 857 312 817.5 234.5 c 128,-1,48
 778 157 778 157 712.5 98 c 128,-1,49
 647 39 647 39 562 4 c 128,-1,50
 477 -31 477 -31 386 -31 c 0,51,52
 294 -31 294 -31 227.5 -8 c 128,-1,53
 161 15 161 15 118 54 c 128,-1,54
 75 93 75 93 54 143.5 c 128,-1,55
 33 194 33 194 33 250 c 0,56,57
 33 315 33 315 59 371.5 c 128,-1,58
 85 428 85 428 127.5 476 c 128,-1,59
 170 524 170 524 225 563.5 c 128,-1,60
 280 603 280 603 338 633 c 1,61,62
 304 652 304 652 273 675 c 128,-1,63
 242 698 242 698 219 728 c 128,-1,64
 196 758 196 758 182 797 c 128,-1,65
 168 836 168 836 168 889 c 0,66,67
 168 962 168 962 202.5 1025.5 c 128,-1,68
 237 1089 237 1089 295.5 1135.5 c 128,-1,69
 354 1182 354 1182 431 1208.5 c 128,-1,70
 508 1235 508 1235 594 1235 c 0,71,72
 672 1235 672 1235 729 1217.5 c 128,-1,73
 786 1200 786 1200 822.5 1169 c 128,-1,74
 859 1138 859 1138 876.5 1095 c 128,-1,75
 894 1052 894 1052 894 1001 c 0,36,37
EndSplineSet
EndChar

StartChar: nine
Encoding: 57 57 28
Width: 932
GlyphClass: 2
Flags: W
AnchorPoint: "Anchor-4" 932 870 basechar 0
AnchorPoint: "Anchor-3" 369 -100 basechar 0
AnchorPoint: "Anchor-2" 369 -100 basechar 0
AnchorPoint: "Anchor-1" 369 -100 basechar 0
AnchorPoint: "Anchor-0" 569 1320 basechar 0
LayerCount: 2
Fore
SplineSet
461 570 m 0,0,1
 518 570 518 570 566 600 c 128,-1,2
 614 630 614 630 655 676 c 1,3,4
 664 758 664 758 664 851 c 0,5,6
 664 926 664 926 654 975.5 c 128,-1,7
 644 1025 644 1025 626 1054.5 c 128,-1,8
 608 1084 608 1084 583.5 1096 c 128,-1,9
 559 1108 559 1108 531 1108 c 0,10,11
 474 1108 474 1108 436 1076 c 128,-1,12
 398 1044 398 1044 375 994.5 c 128,-1,13
 352 945 352 945 342.5 885 c 128,-1,14
 333 825 333 825 333 770 c 0,15,16
 333 713 333 713 345 675 c 128,-1,17
 357 637 357 637 375.5 613.5 c 128,-1,18
 394 590 394 590 417 580 c 128,-1,19
 440 570 440 570 461 570 c 0,0,1
907 862 m 0,20,21
 907 691 907 691 855 537 c 128,-1,22
 803 383 803 383 701 261.5 c 128,-1,23
 599 140 599 140 447 60 c 128,-1,24
 295 -20 295 -20 94 -43 c 1,25,-1
 82 46 l 1,26,27
 203 74 203 74 294.5 117.5 c 128,-1,28
 386 161 386 161 452.5 221.5 c 128,-1,29
 519 282 519 282 562.5 360 c 128,-1,30
 606 438 606 438 630 534 c 1,31,32
 578 485 578 485 514.5 453.5 c 128,-1,33
 451 422 451 422 378 422 c 0,34,35
 307 422 307 422 254.5 446.5 c 128,-1,36
 202 471 202 471 167.5 512.5 c 128,-1,37
 133 554 133 554 116.5 609 c 128,-1,38
 100 664 100 664 100 725 c 0,39,40
 100 785 100 785 116.5 846 c 128,-1,41
 133 907 133 907 163.5 964 c 128,-1,42
 194 1021 194 1021 237 1070 c 128,-1,43
 280 1119 280 1119 333 1156 c 128,-1,44
 386 1193 386 1193 447.5 1214 c 128,-1,45
 509 1235 509 1235 576 1235 c 0,46,47
 650 1235 650 1235 711 1212.5 c 128,-1,48
 772 1190 772 1190 815.5 1144 c 128,-1,49
 859 1098 859 1098 883 1027.5 c 128,-1,50
 907 957 907 957 907 862 c 0,20,21
EndSplineSet
EndChar

StartChar: colon
Encoding: 58 58 29
Width: 478
Flags: W
LayerCount: 2
Fore
SplineSet
445 852 m 0,0,1
 445 819 445 819 433 784 c 128,-1,2
 421 749 421 749 397.5 720.5 c 128,-1,3
 374 692 374 692 339.5 673.5 c 128,-1,4
 305 655 305 655 260 655 c 0,5,6
 197 655 197 655 168 686 c 128,-1,7
 139 717 139 717 139 768 c 0,8,9
 139 800 139 800 152 834 c 128,-1,10
 165 868 165 868 189.5 896.5 c 128,-1,11
 214 925 214 925 248.5 943 c 128,-1,12
 283 961 283 961 326 961 c 0,13,14
 386 961 386 961 415.5 930.5 c 128,-1,15
 445 900 445 900 445 852 c 0,0,1
351 167 m 0,16,17
 351 134 351 134 339 98.5 c 128,-1,18
 327 63 327 63 303 34.5 c 128,-1,19
 279 6 279 6 244.5 -12.5 c 128,-1,20
 210 -31 210 -31 165 -31 c 0,21,22
 102 -31 102 -31 73 0.5 c 128,-1,23
 44 32 44 32 44 83 c 0,24,25
 44 115 44 115 57 149 c 128,-1,26
 70 183 70 183 94.5 211.5 c 128,-1,27
 119 240 119 240 153.5 258 c 128,-1,28
 188 276 188 276 231 276 c 0,29,30
 291 276 291 276 321 245.5 c 128,-1,31
 351 215 351 215 351 167 c 0,16,17
EndSplineSet
EndChar

StartChar: semicolon
Encoding: 59 59 30
Width: 478
Flags: W
LayerCount: 2
Fore
SplineSet
447 852 m 0,0,1
 447 819 447 819 435 784 c 128,-1,2
 423 749 423 749 399.5 720.5 c 128,-1,3
 376 692 376 692 341.5 673.5 c 128,-1,4
 307 655 307 655 262 655 c 0,5,6
 199 655 199 655 169.5 686 c 128,-1,7
 140 717 140 717 140 768 c 0,8,9
 140 800 140 800 153 834 c 128,-1,10
 166 868 166 868 190.5 896.5 c 128,-1,11
 215 925 215 925 249.5 943 c 128,-1,12
 284 961 284 961 327 961 c 0,13,14
 387 961 387 961 417 930.5 c 128,-1,15
 447 900 447 900 447 852 c 0,0,1
375 117 m 0,16,17
 375 76 375 76 360.5 29.5 c 128,-1,18
 346 -17 346 -17 321 -64.5 c 128,-1,19
 296 -112 296 -112 262.5 -158 c 128,-1,20
 229 -204 229 -204 192.5 -245 c 128,-1,21
 156 -286 156 -286 118 -319 c 128,-1,22
 80 -352 80 -352 45 -373 c 1,23,-1
 -12 -323 l 1,24,25
 64 -242 64 -242 102.5 -162 c 128,-1,26
 141 -82 141 -82 141 -23 c 0,27,28
 141 -4 141 -4 134.5 14.5 c 128,-1,29
 128 33 128 33 114.5 47.5 c 128,-1,30
 101 62 101 62 80 69.5 c 128,-1,31
 59 77 59 77 29 74 c 1,32,-1
 25 152 l 1,33,34
 36 161 36 161 57 173 c 128,-1,35
 78 185 78 185 104 197 c 128,-1,36
 130 209 130 209 159 220 c 128,-1,37
 188 231 188 231 215.5 239.5 c 128,-1,38
 243 248 243 248 266 253.5 c 128,-1,39
 289 259 289 259 304 259 c 1,40,41
 322 249 322 249 335 237 c 128,-1,42
 348 225 348 225 357 208.5 c 128,-1,43
 366 192 366 192 370.5 170 c 128,-1,44
 375 148 375 148 375 117 c 0,16,17
EndSplineSet
EndChar

StartChar: less
Encoding: 60 60 31
Width: 885
Flags: W
LayerCount: 2
Fore
SplineSet
852 888 m 1,0,-1
 802 759 l 1,1,-1
 298 568 l 1,2,-1
 758 375 l 1,3,-1
 774 331 l 1,4,5
 751 311 751 311 723.5 285.5 c 128,-1,6
 696 260 696 260 666 241 c 1,7,-1
 82 486 l 1,8,-1
 58 526 l 1,9,10
 62 539 62 539 68.5 555 c 128,-1,11
 75 571 75 571 82 588 c 128,-1,12
 89 605 89 605 96 620.5 c 128,-1,13
 103 636 103 636 108 647 c 1,14,-1
 826 920 l 1,15,-1
 852 888 l 1,0,-1
EndSplineSet
EndChar

StartChar: equal
Encoding: 61 61 32
Width: 885
Flags: W
LayerCount: 2
Fore
SplineSet
839 754 m 1,0,1
 835 743 835 743 827.5 727 c 128,-1,2
 820 711 820 711 811.5 694.5 c 128,-1,3
 803 678 803 678 794.5 663 c 128,-1,4
 786 648 786 648 782 640 c 1,5,-1
 108 640 l 1,6,-1
 83 672 l 1,7,8
 87 682 87 682 94.5 697.5 c 128,-1,9
 102 713 102 713 110.5 729 c 128,-1,10
 119 745 119 745 127 760 c 128,-1,11
 135 775 135 775 141 785 c 1,12,-1
 814 785 l 1,13,-1
 839 754 l 1,0,1
798 454 m 1,14,15
 794 443 794 443 786.5 427 c 128,-1,16
 779 411 779 411 770.5 394.5 c 128,-1,17
 762 378 762 378 753.5 363 c 128,-1,18
 745 348 745 348 741 340 c 1,19,-1
 67 340 l 1,20,-1
 43 372 l 1,21,22
 47 382 47 382 54 397.5 c 128,-1,23
 61 413 61 413 69.5 429 c 128,-1,24
 78 445 78 445 86 460 c 128,-1,25
 94 475 94 475 100 485 c 1,26,-1
 773 485 l 1,27,-1
 798 454 l 1,14,15
EndSplineSet
EndChar

StartChar: greater
Encoding: 62 62 33
Width: 885
Flags: W
LayerCount: 2
Fore
SplineSet
820 635 m 1,0,1
 815 621 815 621 808.5 605 c 128,-1,2
 802 589 802 589 795.5 572.5 c 128,-1,3
 789 556 789 556 782 541 c 128,-1,4
 775 526 775 526 769 514 c 1,5,-1
 51 241 l 1,6,-1
 26 274 l 1,7,8
 30 284 30 284 36.5 302 c 128,-1,9
 43 320 43 320 50.5 339.5 c 128,-1,10
 58 359 58 359 65 376.5 c 128,-1,11
 72 394 72 394 76 403 c 1,12,-1
 579 593 l 1,13,-1
 119 786 l 1,14,-1
 104 830 l 1,15,16
 126 850 126 850 153.5 875.5 c 128,-1,17
 181 901 181 901 211 920 c 1,18,-1
 795 675 l 1,19,-1
 820 635 l 1,0,1
EndSplineSet
EndChar

StartChar: question
Encoding: 63 63 34
Width: 878
Flags: W
LayerCount: 2
Fore
SplineSet
518 167 m 0,0,1
 518 134 518 134 506 98.5 c 128,-1,2
 494 63 494 63 470 34.5 c 128,-1,3
 446 6 446 6 411.5 -12.5 c 128,-1,4
 377 -31 377 -31 332 -31 c 0,5,6
 270 -31 270 -31 240.5 0.5 c 128,-1,7
 211 32 211 32 211 83 c 0,8,9
 211 115 211 115 224 149 c 128,-1,10
 237 183 237 183 261.5 211.5 c 128,-1,11
 286 240 286 240 320.5 258 c 128,-1,12
 355 276 355 276 398 276 c 0,13,14
 458 276 458 276 488 245.5 c 128,-1,15
 518 215 518 215 518 167 c 0,0,1
892 1186 m 0,16,17
 892 1102 892 1102 863.5 1036.5 c 128,-1,18
 835 971 835 971 791.5 916.5 c 128,-1,19
 748 862 748 862 696 815 c 128,-1,20
 644 768 644 768 597.5 719.5 c 128,-1,21
 551 671 551 671 517 618 c 128,-1,22
 483 565 483 565 474 500 c 2,23,-1
 463 412 l 1,24,25
 444 398 444 398 413.5 384.5 c 128,-1,26
 383 371 383 371 358 363 c 1,27,-1
 335 384 l 1,28,-1
 340 508 l 2,29,30
 342 571 342 571 365.5 625.5 c 128,-1,31
 389 680 389 680 422.5 729.5 c 128,-1,32
 456 779 456 779 494.5 825.5 c 128,-1,33
 533 872 533 872 566 919.5 c 128,-1,34
 599 967 599 967 620.5 1018 c 128,-1,35
 642 1069 642 1069 642 1128 c 0,36,37
 642 1169 642 1169 634 1204.5 c 128,-1,38
 626 1240 626 1240 609.5 1265.5 c 128,-1,39
 593 1291 593 1291 569 1305.5 c 128,-1,40
 545 1320 545 1320 513 1320 c 0,41,42
 480 1320 480 1320 455 1302 c 128,-1,43
 430 1284 430 1284 415.5 1253 c 128,-1,44
 401 1222 401 1222 397.5 1180.5 c 128,-1,45
 394 1139 394 1139 403 1091 c 1,46,47
 381 1081 381 1081 351 1071 c 128,-1,48
 321 1061 321 1061 289 1052.5 c 128,-1,49
 257 1044 257 1044 227 1037.5 c 128,-1,50
 197 1031 197 1031 175 1029 c 1,51,-1
 147 1068 l 1,52,53
 147 1132 147 1132 180 1196.5 c 128,-1,54
 213 1261 213 1261 273.5 1313 c 128,-1,55
 334 1365 334 1365 418.5 1397.5 c 128,-1,56
 503 1430 503 1430 606 1430 c 0,57,58
 675 1430 675 1430 728.5 1411 c 128,-1,59
 782 1392 782 1392 818.5 1359 c 128,-1,60
 855 1326 855 1326 873.5 1281.5 c 128,-1,61
 892 1237 892 1237 892 1186 c 0,16,17
EndSplineSet
EndChar

StartChar: at
Encoding: 64 64 35
Width: 1695
Flags: W
LayerCount: 2
Fore
SplineSet
946 355 m 1,0,1
 951 397 951 397 959.5 450 c 128,-1,2
 968 503 968 503 977 556.5 c 128,-1,3
 986 610 986 610 994.5 658.5 c 128,-1,4
 1003 707 1003 707 1009 739 c 1,5,6
 983 762 983 762 956 778 c 128,-1,7
 929 794 929 794 901 794 c 0,8,9
 861 794 861 794 828 774 c 128,-1,10
 795 754 795 754 769 721.5 c 128,-1,11
 743 689 743 689 723.5 646 c 128,-1,12
 704 603 704 603 691 557 c 128,-1,13
 678 511 678 511 671.5 464.5 c 128,-1,14
 665 418 665 418 665 379 c 0,15,16
 665 323 665 323 673 281 c 128,-1,17
 681 239 681 239 693.5 211.5 c 128,-1,18
 706 184 706 184 721 170 c 128,-1,19
 736 156 736 156 751 156 c 0,20,21
 783 156 783 156 833 206.5 c 128,-1,22
 883 257 883 257 946 355 c 1,0,1
1620 549 m 0,23,24
 1608 462 1608 462 1574.5 385 c 128,-1,25
 1541 308 1541 308 1493.5 242.5 c 128,-1,26
 1446 177 1446 177 1390 124.5 c 128,-1,27
 1334 72 1334 72 1277.5 35 c 128,-1,28
 1221 -2 1221 -2 1169 -21.5 c 128,-1,29
 1117 -41 1117 -41 1077 -41 c 0,30,31
 1062 -41 1062 -41 1042 -31.5 c 128,-1,32
 1022 -22 1022 -22 1002.5 3 c 128,-1,33
 983 28 983 28 967 72.5 c 128,-1,34
 951 117 951 117 944 187 c 1,35,36
 918 144 918 144 884.5 103 c 128,-1,37
 851 62 851 62 814 30 c 128,-1,38
 777 -2 777 -2 739 -21.5 c 128,-1,39
 701 -41 701 -41 666 -41 c 0,40,41
 632 -41 632 -41 592.5 -22 c 128,-1,42
 553 -3 553 -3 518.5 38.5 c 128,-1,43
 484 80 484 80 461 145.5 c 128,-1,44
 438 211 438 211 438 305 c 0,45,46
 438 384 438 384 457 459.5 c 128,-1,47
 476 535 476 535 512.5 604 c 128,-1,48
 549 673 549 673 603 733.5 c 128,-1,49
 657 794 657 794 728 842 c 0,50,51
 755 860 755 860 791 877 c 128,-1,52
 827 894 827 894 865 907 c 128,-1,53
 903 920 903 920 941 928 c 128,-1,54
 979 936 979 936 1011 936 c 0,55,56
 1052 936 1052 936 1090.5 918 c 128,-1,57
 1129 900 1129 900 1162 880 c 1,58,59
 1194 896 1194 896 1226 910 c 128,-1,60
 1258 924 1258 924 1284 936 c 1,61,-1
 1316 871 l 1,62,63
 1299 857 1299 857 1287.5 846 c 128,-1,64
 1276 835 1276 835 1267 820.5 c 128,-1,65
 1258 806 1258 806 1251.5 785 c 128,-1,66
 1245 764 1245 764 1238 730 c 0,67,68
 1223 658 1223 658 1211 590.5 c 128,-1,69
 1199 523 1199 523 1190.5 466.5 c 128,-1,70
 1182 410 1182 410 1178 367 c 128,-1,71
 1174 324 1174 324 1174 302 c 0,72,73
 1174 227 1174 227 1191 194.5 c 128,-1,74
 1208 162 1208 162 1232 162 c 0,75,76
 1257 162 1257 162 1283.5 184.5 c 128,-1,77
 1310 207 1310 207 1334 251 c 128,-1,78
 1358 295 1358 295 1378 360 c 128,-1,79
 1398 425 1398 425 1411 510 c 0,80,81
 1436 679 1436 679 1408 805.5 c 128,-1,82
 1380 932 1380 932 1313.5 1016 c 128,-1,83
 1247 1100 1247 1100 1150.5 1142 c 128,-1,84
 1054 1184 1054 1184 943 1184 c 0,85,86
 860 1184 860 1184 784 1158.5 c 128,-1,87
 708 1133 708 1133 641 1087.5 c 128,-1,88
 574 1042 574 1042 518 979 c 128,-1,89
 462 916 462 916 418.5 840.5 c 128,-1,90
 375 765 375 765 345.5 679.5 c 128,-1,91
 316 594 316 594 303 504 c 0,92,93
 286 383 286 383 299 282.5 c 128,-1,94
 312 182 312 182 348 101.5 c 128,-1,95
 384 21 384 21 439.5 -39 c 128,-1,96
 495 -99 495 -99 563.5 -139 c 128,-1,97
 632 -179 632 -179 710 -199 c 128,-1,98
 788 -219 788 -219 869 -219 c 256,99,100
 950 -219 950 -219 1029 -198 c 128,-1,101
 1108 -177 1108 -177 1177.5 -146 c 128,-1,102
 1247 -115 1247 -115 1301.5 -81.5 c 128,-1,103
 1356 -48 1356 -48 1388 -22 c 1,104,-1
 1419 -115 l 1,105,106
 1381 -153 1381 -153 1319 -198.5 c 128,-1,107
 1257 -244 1257 -244 1176.5 -283 c 128,-1,108
 1096 -322 1096 -322 998 -348.5 c 128,-1,109
 900 -375 900 -375 790 -375 c 0,110,111
 676 -375 676 -375 572.5 -348.5 c 128,-1,112
 469 -322 469 -322 382.5 -271 c 128,-1,113
 296 -220 296 -220 229 -147 c 128,-1,114
 162 -74 162 -74 119.5 19.5 c 128,-1,115
 77 113 77 113 62.5 225 c 128,-1,116
 48 337 48 337 66 465 c 0,117,118
 82 577 82 577 124.5 685.5 c 128,-1,119
 167 794 167 794 232 890 c 128,-1,120
 297 986 297 986 382 1067.5 c 128,-1,121
 467 1149 467 1149 568 1208 c 128,-1,122
 669 1267 669 1267 783 1300 c 128,-1,123
 897 1333 897 1333 1020 1333 c 0,124,125
 1161 1333 1161 1333 1282.5 1281 c 128,-1,126
 1404 1229 1404 1229 1488 1128.5 c 128,-1,127
 1572 1028 1572 1028 1609.5 882 c 128,-1,128
 1647 736 1647 736 1620 549 c 0,23,24
EndSplineSet
EndChar

StartChar: A
Encoding: 65 65 36
Width: 1194
GlyphClass: 2
Flags: W
AnchorPoint: "Anchor-4" 1194 870 basechar 0
AnchorPoint: "Anchor-3" 869 0 basechar 0
AnchorPoint: "Anchor-2" 910 0 basechar 0
AnchorPoint: "Anchor-1" 525 -100 basechar 0
AnchorPoint: "Anchor-0" 712 1320 basechar 0
LayerCount: 2
Fore
SplineSet
371 429 m 1,0,-1
 244 141 l 2,1,2
 231 110 231 110 260 96.5 c 128,-1,3
 289 83 289 83 364 73 c 1,4,-1
 355 0 l 1,5,-1
 -50 0 l 1,6,-1
 -40 73 l 1,7,8
 24 85 24 85 59.5 98 c 128,-1,9
 95 111 95 111 108 141 c 2,10,-1
 576 1205 l 1,11,12
 601 1225 601 1225 629.5 1242.5 c 128,-1,13
 658 1260 658 1260 688 1274 c 128,-1,14
 718 1288 718 1288 747 1298.5 c 128,-1,15
 776 1309 776 1309 801 1317 c 1,16,-1
 1028 141 l 2,17,18
 1031 127 1031 127 1036.5 116 c 128,-1,19
 1042 105 1042 105 1053.5 97 c 128,-1,20
 1065 89 1065 89 1084 83 c 128,-1,21
 1103 77 1103 77 1133 73 c 1,22,-1
 1124 0 l 1,23,-1
 663 0 l 1,24,-1
 673 73 l 1,25,26
 745 78 745 78 773.5 93 c 128,-1,27
 802 108 802 108 796 141 c 2,28,-1
 742 429 l 1,29,-1
 371 429 l 1,0,-1
719 550 m 1,30,-1
 629 1022 l 1,31,-1
 424 550 l 1,32,-1
 719 550 l 1,30,-1
EndSplineSet
EndChar

StartChar: B
Encoding: 66 66 37
Width: 1089
GlyphClass: 2
Flags: W
AnchorPoint: "Anchor-4" 1089 870 basechar 0
AnchorPoint: "Anchor-3" 454 -100 basechar 0
AnchorPoint: "Anchor-2" 454 -100 basechar 0
AnchorPoint: "Anchor-1" 454 -100 basechar 0
AnchorPoint: "Anchor-0" 642 1320 basechar 0
LayerCount: 2
Fore
SplineSet
1024 410 m 0,0,1
 1024 312 1024 312 982.5 231 c 128,-1,2
 941 150 941 150 868.5 92 c 128,-1,3
 796 34 796 34 699 1.5 c 128,-1,4
 602 -31 602 -31 491 -31 c 0,5,6
 471 -31 471 -31 441.5 -30 c 128,-1,7
 412 -29 412 -29 377.5 -26.5 c 128,-1,8
 343 -24 343 -24 305 -21.5 c 128,-1,9
 267 -19 267 -19 231 -16 c 0,10,11
 146 -9 146 -9 51 0 c 1,12,-1
 -8 0 l 1,13,-1
 -2 73 l 1,14,15
 62 87 62 87 96 103.5 c 128,-1,16
 130 120 130 120 132 134 c 2,17,-1
 276 1168 l 1,18,19
 235 1163 235 1163 200.5 1156.5 c 128,-1,20
 166 1150 166 1150 134 1143 c 1,21,-1
 134 1227 l 1,22,23
 227 1253 227 1253 347.5 1271.5 c 128,-1,24
 468 1290 468 1290 608 1290 c 0,25,26
 813 1290 813 1290 915.5 1223.5 c 128,-1,27
 1018 1157 1018 1157 1018 1040 c 0,28,29
 1018 935 1018 935 953.5 851.5 c 128,-1,30
 889 768 889 768 767 723 c 1,31,32
 824 715 824 715 871 687.5 c 128,-1,33
 918 660 918 660 952 618 c 128,-1,34
 986 576 986 576 1005 523 c 128,-1,35
 1024 470 1024 470 1024 410 c 0,0,1
548 634 m 0,36,37
 505 634 505 634 480.5 630 c 128,-1,38
 456 626 456 626 432 621 c 1,39,-1
 364 134 l 1,40,41
 361 124 361 124 379 112 c 1,42,43
 412 95 412 95 451.5 89 c 128,-1,44
 491 83 491 83 532 83 c 0,45,46
 592 83 592 83 637.5 106 c 128,-1,47
 683 129 683 129 714.5 168.5 c 128,-1,48
 746 208 746 208 762 261 c 128,-1,49
 778 314 778 314 778 375 c 0,50,51
 778 425 778 425 766.5 471.5 c 128,-1,52
 755 518 755 518 728 554 c 128,-1,53
 701 590 701 590 657 612 c 128,-1,54
 613 634 613 634 548 634 c 0,36,37
566 1184 m 2,55,-1
 537 1184 l 2,56,57
 524 1184 524 1184 510 1183 c 1,58,-1
 448 740 l 1,59,-1
 481 740 l 2,60,61
 534 740 534 740 586 753.5 c 128,-1,62
 638 767 638 767 679.5 796 c 128,-1,63
 721 825 721 825 746.5 872 c 128,-1,64
 772 919 772 919 772 987 c 0,65,66
 772 1042 772 1042 752.5 1080 c 128,-1,67
 733 1118 733 1118 703 1141 c 128,-1,68
 673 1164 673 1164 636.5 1174 c 128,-1,69
 600 1184 600 1184 566 1184 c 2,55,-1
EndSplineSet
EndChar

StartChar: C
Encoding: 67 67 38
Width: 1040
GlyphClass: 2
Flags: W
AnchorPoint: "Anchor-4" 1040 870 basechar 0
AnchorPoint: "Anchor-3" 514 -100 basechar 0
AnchorPoint: "Anchor-2" 488 0 basechar 0
AnchorPoint: "Anchor-1" 514 -100 basechar 0
AnchorPoint: "Anchor-0" 701 1320 basechar 0
LayerCount: 2
Fore
SplineSet
1076 1190 m 0,0,1
 1078 1187 1078 1187 1072 1172 c 128,-1,2
 1066 1157 1066 1157 1055 1135.5 c 128,-1,3
 1044 1114 1044 1114 1029.5 1089 c 128,-1,4
 1015 1064 1015 1064 1000 1041.5 c 128,-1,5
 985 1019 985 1019 971.5 1000.5 c 128,-1,6
 958 982 958 982 949 975 c 1,7,-1
 889 990 l 1,8,9
 875 1022 875 1022 855.5 1051.5 c 128,-1,10
 836 1081 836 1081 809.5 1104 c 128,-1,11
 783 1127 783 1127 749.5 1140.5 c 128,-1,12
 716 1154 716 1154 675 1154 c 0,13,14
 635 1154 635 1154 598 1142.5 c 128,-1,15
 561 1131 561 1131 521 1100 c 0,16,17
 458 1051 458 1051 416 977 c 128,-1,18
 374 903 374 903 348.5 821.5 c 128,-1,19
 323 740 323 740 312.5 659.5 c 128,-1,20
 302 579 302 579 302 516 c 0,21,22
 302 407 302 407 330 333.5 c 128,-1,23
 358 260 358 260 400.5 216 c 128,-1,24
 443 172 443 172 493 153 c 128,-1,25
 543 134 543 134 588 134 c 0,26,27
 613 134 613 134 645.5 139.5 c 128,-1,28
 678 145 678 145 718.5 161.5 c 128,-1,29
 759 178 759 178 809 206 c 128,-1,30
 859 234 859 234 921 279 c 1,31,32
 926 277 926 277 931.5 267 c 128,-1,33
 937 257 937 257 942 245.5 c 128,-1,34
 947 234 947 234 951 224 c 128,-1,35
 955 214 955 214 957 211 c 1,36,37
 889 143 889 143 823.5 97.5 c 128,-1,38
 758 52 758 52 697.5 24.5 c 128,-1,39
 637 -3 637 -3 582 -15 c 128,-1,40
 527 -27 527 -27 480 -27 c 0,41,42
 393 -27 393 -27 317 5.5 c 128,-1,43
 241 38 241 38 184 100 c 128,-1,44
 127 162 127 162 94 252.5 c 128,-1,45
 61 343 61 343 61 459 c 0,46,47
 61 553 61 553 81 650.5 c 128,-1,48
 101 748 101 748 141.5 840.5 c 128,-1,49
 182 933 182 933 244 1016.5 c 128,-1,50
 306 1100 306 1100 390 1167 c 0,51,52
 426 1195 426 1195 470.5 1218 c 128,-1,53
 515 1241 515 1241 562.5 1257 c 128,-1,54
 610 1273 610 1273 659.5 1281.5 c 128,-1,55
 709 1290 709 1290 756 1290 c 0,56,57
 805 1290 805 1290 853 1282 c 128,-1,58
 901 1274 901 1274 943.5 1260.5 c 128,-1,59
 986 1247 986 1247 1020 1229 c 128,-1,60
 1054 1211 1054 1211 1076 1190 c 0,0,1
EndSplineSet
EndChar

StartChar: D
Encoding: 68 68 39
Width: 1208
GlyphClass: 2
Flags: W
AnchorPoint: "Anchor-4" 1208 870 basechar 0
AnchorPoint: "Anchor-3" 513 -100 basechar 0
AnchorPoint: "Anchor-2" 513 -100 basechar 0
AnchorPoint: "Anchor-1" 513 -100 basechar 0
AnchorPoint: "Anchor-0" 700 1320 basechar 0
LayerCount: 2
Fore
SplineSet
572 1184 m 0,0,1
 557 1184 557 1184 542 1182.5 c 128,-1,2
 527 1181 527 1181 512 1180 c 1,3,-1
 374 162 l 2,4,5
 370 133 370 133 397 120 c 128,-1,6
 424 107 424 107 500 107 c 0,7,8
 569 107 569 107 627.5 133.5 c 128,-1,9
 686 160 686 160 734 205.5 c 128,-1,10
 782 251 782 251 818.5 311.5 c 128,-1,11
 855 372 855 372 880 441 c 128,-1,12
 905 510 905 510 917.5 583.5 c 128,-1,13
 930 657 930 657 930 727 c 0,14,15
 930 834 930 834 910 918.5 c 128,-1,16
 890 1003 890 1003 846.5 1062 c 128,-1,17
 803 1121 803 1121 735 1152.5 c 128,-1,18
 667 1184 667 1184 572 1184 c 0,0,1
1182 753 m 0,19,20
 1182 665 1182 665 1161 575 c 128,-1,21
 1140 485 1140 485 1100 401.5 c 128,-1,22
 1060 318 1060 318 1002 244.5 c 128,-1,23
 944 171 944 171 869.5 117 c 128,-1,24
 795 63 795 63 705 31.5 c 128,-1,25
 615 0 615 0 511 0 c 2,26,-1
 -8 0 l 1,27,-1
 2 73 l 1,28,29
 65 87 65 87 99 103.5 c 128,-1,30
 133 120 133 120 135 134 c 2,31,-1
 277 1159 l 1,32,-1
 136 1139 l 1,33,-1
 136 1232 l 1,34,35
 193 1246 193 1246 256 1256.5 c 128,-1,36
 319 1267 319 1267 382 1274.5 c 128,-1,37
 445 1282 445 1282 505 1286 c 128,-1,38
 565 1290 565 1290 616 1290 c 0,39,40
 761 1290 761 1290 868 1252.5 c 128,-1,41
 975 1215 975 1215 1044.5 1145 c 128,-1,42
 1114 1075 1114 1075 1148 976 c 128,-1,43
 1182 877 1182 877 1182 753 c 0,19,20
EndSplineSet
EndChar

StartChar: E
Encoding: 69 69 40
Width: 1009
GlyphClass: 2
Flags: W
AnchorPoint: "Anchor-4" 1009 870 basechar 0
AnchorPoint: "Anchor-3" 656 0 basechar 0
AnchorPoint: "Anchor-2" 446 0 basechar 0
AnchorPoint: "Anchor-1" 432 -100 basechar 0
AnchorPoint: "Anchor-0" 619 1320 basechar 0
LayerCount: 2
Fore
SplineSet
947 304 m 1,0,1
 937 261 937 261 925.5 213.5 c 128,-1,2
 914 166 914 166 903 123.5 c 128,-1,3
 892 81 892 81 882.5 48 c 128,-1,4
 873 15 873 15 867 0 c 1,5,-1
 -8 0 l 1,6,-1
 2 73 l 1,7,8
 67 87 67 87 101.5 103.5 c 128,-1,9
 136 120 136 120 138 134 c 2,10,-1
 274 1125 l 2,11,12
 276 1137 276 1137 248 1155 c 128,-1,13
 220 1173 220 1173 155 1187 c 1,14,-1
 165 1260 l 1,15,-1
 982 1260 l 1,16,-1
 1014 1228 l 1,17,18
 1009 1202 1009 1202 1000 1163 c 128,-1,19
 991 1124 991 1124 980 1083 c 128,-1,20
 969 1042 969 1042 958 1005.5 c 128,-1,21
 947 969 947 969 939 950 c 1,22,-1
 869 950 l 1,23,24
 877 1043 877 1043 865 1091.5 c 128,-1,25
 853 1140 853 1140 818 1140 c 2,26,-1
 507 1140 l 1,27,-1
 451 735 l 1,28,-1
 820 735 l 1,29,-1
 847 700 l 1,30,31
 838 686 838 686 824.5 667 c 128,-1,32
 811 648 811 648 797 629.5 c 128,-1,33
 783 611 783 611 769 594.5 c 128,-1,34
 755 578 755 578 744 570 c 1,35,36
 731 585 731 585 715.5 595.5 c 128,-1,37
 700 606 700 606 678.5 612.5 c 128,-1,38
 657 619 657 619 626 622 c 128,-1,39
 595 625 595 625 552 625 c 2,40,-1
 436 625 l 1,41,-1
 376 184 l 2,42,43
 374 169 374 169 379 157.5 c 128,-1,44
 384 146 384 146 403.5 137.5 c 128,-1,45
 423 129 423 129 459.5 124.5 c 128,-1,46
 496 120 496 120 557 120 c 2,47,-1
 649 120 l 2,48,49
 691 120 691 120 722.5 131 c 128,-1,50
 754 142 754 142 780 166.5 c 128,-1,51
 806 191 806 191 830 231 c 128,-1,52
 854 271 854 271 882 330 c 1,53,-1
 947 304 l 1,0,1
EndSplineSet
EndChar

StartChar: F
Encoding: 70 70 41
Width: 953
GlyphClass: 2
Flags: W
AnchorPoint: "Anchor-4" 953 870 basechar 0
AnchorPoint: "Anchor-3" 408 -100 basechar 0
AnchorPoint: "Anchor-2" 408 -100 basechar 0
AnchorPoint: "Anchor-1" 408 -100 basechar 0
AnchorPoint: "Anchor-0" 594 1320 basechar 0
LayerCount: 2
Fore
SplineSet
815 700 m 1,0,1
 804 683 804 683 790.5 663.5 c 128,-1,2
 777 644 777 644 763 626 c 128,-1,3
 749 608 749 608 735.5 593 c 128,-1,4
 722 578 722 578 711 570 c 1,5,6
 698 585 698 585 682.5 595.5 c 128,-1,7
 667 606 667 606 646 612.5 c 128,-1,8
 625 619 625 619 597 622 c 128,-1,9
 569 625 569 625 532 625 c 2,10,-1
 436 625 l 1,11,-1
 369 134 l 2,12,13
 368 128 368 128 374.5 121 c 128,-1,14
 381 114 381 114 398 106.5 c 128,-1,15
 415 99 415 99 444 90.5 c 128,-1,16
 473 82 473 82 517 73 c 1,17,-1
 507 0 l 1,18,-1
 -8 0 l 1,19,-1
 2 73 l 1,20,21
 67 87 67 87 101.5 103.5 c 128,-1,22
 136 120 136 120 138 134 c 2,23,-1
 274 1125 l 2,24,25
 276 1137 276 1137 248 1155 c 128,-1,26
 220 1173 220 1173 155 1187 c 1,27,-1
 165 1260 l 1,28,-1
 991 1260 l 1,29,-1
 1021 1228 l 1,30,31
 1017 1202 1017 1202 1008 1163 c 128,-1,32
 999 1124 999 1124 988.5 1083 c 128,-1,33
 978 1042 978 1042 967 1005.5 c 128,-1,34
 956 969 956 969 948 950 c 1,35,-1
 877 950 l 1,36,37
 886 1043 886 1043 873.5 1091.5 c 128,-1,38
 861 1140 861 1140 826 1140 c 2,39,-1
 507 1140 l 1,40,-1
 451 735 l 1,41,-1
 786 735 l 1,42,-1
 815 700 l 1,0,1
EndSplineSet
EndChar

StartChar: G
Encoding: 71 71 42
Width: 1120
GlyphClass: 2
Flags: W
AnchorPoint: "Anchor-4" 1120 870 basechar 0
AnchorPoint: "Anchor-3" 549 -100 basechar 0
AnchorPoint: "Anchor-2" 543 0 basechar 0
AnchorPoint: "Anchor-1" 549 -100 basechar 0
AnchorPoint: "Anchor-0" 737 1320 basechar 0
LayerCount: 2
Fore
SplineSet
1119 547 m 1,0,1
 1065 531 1065 531 1041 509.5 c 128,-1,2
 1017 488 1017 488 1014 465 c 0,3,4
 1010 438 1010 438 1004.5 396 c 128,-1,5
 999 354 999 354 994 309.5 c 128,-1,6
 989 265 989 265 984 226.5 c 128,-1,7
 979 188 979 188 977 169 c 1,8,9
 901 108 901 108 836 69.5 c 128,-1,10
 771 31 771 31 715.5 8.5 c 128,-1,11
 660 -14 660 -14 612.5 -22.5 c 128,-1,12
 565 -31 565 -31 525 -31 c 0,13,14
 433 -31 433 -31 349.5 5 c 128,-1,15
 266 41 266 41 201.5 108 c 128,-1,16
 137 175 137 175 99 271.5 c 128,-1,17
 61 368 61 368 61 488 c 0,18,19
 61 583 61 583 82.5 675.5 c 128,-1,20
 104 768 104 768 143.5 851.5 c 128,-1,21
 183 935 183 935 238 1007.5 c 128,-1,22
 293 1080 293 1080 359 1136 c 0,23,24
 401 1172 401 1172 448.5 1200.5 c 128,-1,25
 496 1229 496 1229 550 1249 c 128,-1,26
 604 1269 604 1269 666.5 1279.5 c 128,-1,27
 729 1290 729 1290 801 1290 c 0,28,29
 836 1290 836 1290 880 1283 c 128,-1,30
 924 1276 924 1276 967.5 1263 c 128,-1,31
 1011 1250 1011 1250 1050 1231 c 128,-1,32
 1089 1212 1089 1212 1115 1188 c 0,33,34
 1119 1184 1119 1184 1113.5 1169 c 128,-1,35
 1108 1154 1108 1154 1097 1133 c 128,-1,36
 1086 1112 1086 1112 1070.5 1087.5 c 128,-1,37
 1055 1063 1055 1063 1039.5 1040.5 c 128,-1,38
 1024 1018 1024 1018 1009.5 1000.5 c 128,-1,39
 995 983 995 983 986 975 c 1,40,-1
 928 988 l 1,41,42
 910 1025 910 1025 887.5 1057 c 128,-1,43
 865 1089 865 1089 835 1113 c 128,-1,44
 805 1137 805 1137 766 1150.5 c 128,-1,45
 727 1164 727 1164 677 1164 c 0,46,47
 633 1164 633 1164 583.5 1140 c 128,-1,48
 534 1116 534 1116 484 1068 c 0,49,50
 445 1031 445 1031 411 968.5 c 128,-1,51
 377 906 377 906 352.5 832 c 128,-1,52
 328 758 328 758 314 679.5 c 128,-1,53
 300 601 300 601 300 531 c 0,54,55
 300 424 300 424 327.5 347.5 c 128,-1,56
 355 271 355 271 399 222.5 c 128,-1,57
 443 174 443 174 496.5 151 c 128,-1,58
 550 128 550 128 603 128 c 0,59,60
 637 128 637 128 676.5 136.5 c 128,-1,61
 716 145 716 145 751 171 c 1,62,-1
 793 465 l 2,63,64
 794 475 794 475 790 485 c 128,-1,65
 786 495 786 495 765 505 c 128,-1,66
 744 515 744 515 701 525 c 128,-1,67
 658 535 658 535 583 547 c 1,68,-1
 589 620 l 1,69,-1
 1125 620 l 1,70,-1
 1119 547 l 1,0,1
EndSplineSet
EndChar

StartChar: H
Encoding: 72 72 43
Width: 1306
GlyphClass: 2
Flags: W
AnchorPoint: "Anchor-4" 1306 870 basechar 0
AnchorPoint: "Anchor-3" 586 -100 basechar 0
AnchorPoint: "Anchor-2" 275 0 basechar 0
AnchorPoint: "Anchor-1" 586 -100 basechar 0
AnchorPoint: "Anchor-0" 777 1320 basechar 0
LayerCount: 2
Fore
SplineSet
642 1187 m 1,0,1
 577 1173 577 1173 542 1156 c 128,-1,2
 507 1139 507 1139 505 1125 c 2,3,-1
 450 720 l 1,4,-1
 930 720 l 1,5,-1
 986 1125 l 2,6,7
 988 1137 988 1137 960.5 1155 c 128,-1,8
 933 1173 933 1173 868 1187 c 1,9,-1
 877 1260 l 1,10,-1
 1364 1260 l 1,11,-1
 1354 1187 l 1,12,13
 1289 1173 1289 1173 1254.5 1156 c 128,-1,14
 1220 1139 1220 1139 1218 1125 c 2,15,-1
 1082 134 l 2,16,17
 1080 122 1080 122 1108 104.5 c 128,-1,18
 1136 87 1136 87 1201 73 c 1,19,-1
 1192 0 l 1,20,-1
 705 0 l 1,21,-1
 715 73 l 1,22,23
 780 87 780 87 814 103.5 c 128,-1,24
 848 120 848 120 850 134 c 2,25,-1
 914 600 l 1,26,-1
 433 600 l 1,27,-1
 370 134 l 2,28,29
 368 122 368 122 395.5 104.5 c 128,-1,30
 423 87 423 87 489 73 c 1,31,-1
 479 0 l 1,32,-1
 -8 0 l 1,33,-1
 2 73 l 1,34,35
 67 87 67 87 101.5 103.5 c 128,-1,36
 136 120 136 120 138 134 c 2,37,-1
 274 1125 l 2,38,39
 276 1137 276 1137 248 1155 c 128,-1,40
 220 1173 220 1173 155 1187 c 1,41,-1
 165 1260 l 1,42,-1
 652 1260 l 1,43,-1
 642 1187 l 1,0,1
EndSplineSet
EndChar

StartChar: I
Encoding: 73 73 44
Width: 632
GlyphClass: 2
Flags: W
AnchorPoint: "Anchor-4" 632 870 basechar 0
AnchorPoint: "Anchor-3" 314 0 basechar 0
AnchorPoint: "Anchor-2" 248 0 basechar 0
AnchorPoint: "Anchor-1" 240 -100 basechar 0
AnchorPoint: "Anchor-0" 428 1320 basechar 0
LayerCount: 2
Fore
SplineSet
661 1187 m 1,0,1
 597 1173 597 1173 562 1156 c 128,-1,2
 527 1139 527 1139 525 1125 c 2,3,-1
 389 134 l 2,4,5
 387 122 387 122 414.5 104.5 c 128,-1,6
 442 87 442 87 508 73 c 1,7,-1
 498 0 l 1,8,-1
 13 0 l 1,9,-1
 23 73 l 1,10,11
 86 87 86 87 121 103.5 c 128,-1,12
 156 120 156 120 158 134 c 2,13,-1
 293 1125 l 2,14,15
 295 1137 295 1137 267.5 1155 c 128,-1,16
 240 1173 240 1173 175 1187 c 1,17,-1
 185 1260 l 1,18,-1
 671 1260 l 1,19,-1
 661 1187 l 1,0,1
EndSplineSet
EndChar

StartChar: J
Encoding: 74 74 45
Width: 638
GlyphClass: 2
Flags: W
AnchorPoint: "Anchor-4" 638 870 basechar 0
AnchorPoint: "Anchor-3" 194 -600 basechar 0
AnchorPoint: "Anchor-2" 194 -600 basechar 0
AnchorPoint: "Anchor-1" 194 -600 basechar 0
AnchorPoint: "Anchor-0" 459 1320 basechar 0
LayerCount: 2
Fore
SplineSet
685 1187 m 1,0,1
 622 1173 622 1173 586.5 1156 c 128,-1,2
 551 1139 551 1139 549 1125 c 2,3,-1
 425 205 l 2,4,5
 410 93 410 93 378.5 14 c 128,-1,6
 347 -65 347 -65 307 -121.5 c 128,-1,7
 267 -178 267 -178 223 -217.5 c 128,-1,8
 179 -257 179 -257 138 -289 c 0,9,10
 111 -310 111 -310 76 -329.5 c 128,-1,11
 41 -349 41 -349 3 -364 c 128,-1,12
 -35 -379 -35 -379 -72.5 -387.5 c 128,-1,13
 -110 -396 -110 -396 -140 -396 c 0,14,15
 -177 -396 -177 -396 -212.5 -385.5 c 128,-1,16
 -248 -375 -248 -375 -276 -360 c 128,-1,17
 -304 -345 -304 -345 -321.5 -329 c 128,-1,18
 -339 -313 -339 -313 -339 -301 c 0,19,20
 -339 -294 -339 -294 -328.5 -279.5 c 128,-1,21
 -318 -265 -318 -265 -301.5 -247 c 128,-1,22
 -285 -229 -285 -229 -265 -210.5 c 128,-1,23
 -245 -192 -245 -192 -225.5 -176.5 c 128,-1,24
 -206 -161 -206 -161 -190 -151 c 128,-1,25
 -174 -141 -174 -141 -166 -141 c 0,26,27
 -156 -141 -156 -141 -141 -154.5 c 128,-1,28
 -126 -168 -126 -168 -105.5 -184.5 c 128,-1,29
 -85 -201 -85 -201 -59.5 -214.5 c 128,-1,30
 -34 -228 -34 -228 -3 -228 c 0,31,32
 21 -228 21 -228 47 -215.5 c 128,-1,33
 73 -203 73 -203 97.5 -165 c 128,-1,34
 122 -127 122 -127 144 -55.5 c 128,-1,35
 166 16 166 16 182 133 c 2,36,-1
 318 1125 l 2,37,38
 319 1131 319 1131 313 1138 c 128,-1,39
 307 1145 307 1145 289 1153 c 128,-1,40
 271 1161 271 1161 238.5 1169.5 c 128,-1,41
 206 1178 206 1178 152 1187 c 1,42,-1
 162 1260 l 1,43,-1
 697 1260 l 1,44,-1
 685 1187 l 1,0,1
EndSplineSet
EndChar

StartChar: K
Encoding: 75 75 46
Width: 1205
GlyphClass: 2
Flags: W
AnchorPoint: "Anchor-4" 1205 870 basechar 0
AnchorPoint: "Anchor-3" 553 -100 basechar 0
AnchorPoint: "Anchor-2" 238 0 basechar 0
AnchorPoint: "Anchor-1" 553 -100 basechar 0
AnchorPoint: "Anchor-0" 740 1320 basechar 0
LayerCount: 2
Fore
SplineSet
642 1187 m 1,0,1
 577 1173 577 1173 542 1156 c 128,-1,2
 507 1139 507 1139 505 1125 c 2,3,-1
 442 660 l 1,4,-1
 851 1098 l 2,5,6
 876 1125 876 1125 887 1141 c 128,-1,7
 898 1157 898 1157 894 1166 c 128,-1,8
 890 1175 890 1175 871 1179.5 c 128,-1,9
 852 1184 852 1184 816 1187 c 1,10,-1
 825 1260 l 1,11,-1
 1242 1260 l 1,12,-1
 1232 1187 l 1,13,14
 1201 1183 1201 1183 1179.5 1179 c 128,-1,15
 1158 1175 1158 1175 1141.5 1168.5 c 128,-1,16
 1125 1162 1125 1162 1110.5 1151.5 c 128,-1,17
 1096 1141 1096 1141 1080 1125 c 2,18,-1
 618 676 l 1,19,-1
 971 203 l 2,20,21
 984 186 984 186 1004.5 178.5 c 128,-1,22
 1025 171 1025 171 1050.5 171 c 128,-1,23
 1076 171 1076 171 1104 178 c 128,-1,24
 1132 185 1132 185 1160 197 c 1,25,-1
 1187 126 l 1,26,27
 1156 100 1156 100 1112 75 c 128,-1,28
 1068 50 1068 50 1024 30 c 128,-1,29
 980 10 980 10 941 -2 c 128,-1,30
 902 -14 902 -14 880 -14 c 0,31,32
 851 -14 851 -14 831.5 -4 c 128,-1,33
 812 6 812 6 794 35 c 2,34,-1
 437 625 l 1,35,-1
 370 134 l 2,36,37
 368 122 368 122 395.5 104.5 c 128,-1,38
 423 87 423 87 489 73 c 1,39,-1
 479 0 l 1,40,-1
 -8 0 l 1,41,-1
 2 73 l 1,42,43
 67 87 67 87 101.5 103.5 c 128,-1,44
 136 120 136 120 138 134 c 2,45,-1
 274 1125 l 2,46,47
 276 1137 276 1137 248 1155 c 128,-1,48
 220 1173 220 1173 155 1187 c 1,49,-1
 165 1260 l 1,50,-1
 652 1260 l 1,51,-1
 642 1187 l 1,0,1
EndSplineSet
EndChar

StartChar: L
Encoding: 76 76 47
Width: 993
GlyphClass: 2
Flags: W
AnchorPoint: "Anchor-4" 746 870 basechar 0
AnchorPoint: "Anchor-3" 434 -100 basechar 0
AnchorPoint: "Anchor-2" 236 0 basechar 0
AnchorPoint: "Anchor-1" 434 -100 basechar 0
AnchorPoint: "Anchor-0" 591 1320 basechar 0
LayerCount: 2
Fore
SplineSet
938 304 m 1,0,1
 929 261 929 261 917 213.5 c 128,-1,2
 905 166 905 166 894 123.5 c 128,-1,3
 883 81 883 81 873.5 48 c 128,-1,4
 864 15 864 15 858 0 c 1,5,-1
 -8 0 l 1,6,-1
 2 73 l 1,7,8
 67 87 67 87 101.5 103.5 c 128,-1,9
 136 120 136 120 138 134 c 2,10,-1
 274 1125 l 2,11,12
 276 1137 276 1137 248 1155 c 128,-1,13
 220 1173 220 1173 155 1187 c 1,14,-1
 165 1260 l 1,15,-1
 652 1260 l 1,16,-1
 642 1187 l 1,17,18
 577 1173 577 1173 542 1156 c 128,-1,19
 507 1139 507 1139 505 1125 c 2,20,-1
 377 192 l 2,21,22
 375 174 375 174 381 160.5 c 128,-1,23
 387 147 387 147 405.5 138 c 128,-1,24
 424 129 424 129 456.5 124.5 c 128,-1,25
 489 120 489 120 540 120 c 2,26,-1
 644 120 l 2,27,28
 686 120 686 120 717 131 c 128,-1,29
 748 142 748 142 773.5 166.5 c 128,-1,30
 799 191 799 191 822.5 231 c 128,-1,31
 846 271 846 271 874 330 c 1,32,-1
 938 304 l 1,0,1
EndSplineSet
EndChar

StartChar: M
Encoding: 77 77 48
Width: 1606
GlyphClass: 2
Flags: W
AnchorPoint: "Anchor-4" 1606 870 basechar 0
AnchorPoint: "Anchor-3" 741 -100 basechar 0
AnchorPoint: "Anchor-2" 741 -100 basechar 0
AnchorPoint: "Anchor-1" 741 -100 basechar 0
AnchorPoint: "Anchor-0" 929 1320 basechar 0
LayerCount: 2
Fore
SplineSet
1632 1187 m 1,0,1
 1609 1187 1609 1187 1576.5 1180 c 128,-1,2
 1544 1173 1544 1173 1509 1159 c 1,3,-1
 1382 134 l 2,4,5
 1380 122 1380 122 1411.5 104.5 c 128,-1,6
 1443 87 1443 87 1509 73 c 1,7,-1
 1499 0 l 1,8,-1
 1018 0 l 1,9,-1
 1028 73 l 1,10,11
 1092 87 1092 87 1131 103.5 c 128,-1,12
 1170 120 1170 120 1172 134 c 2,13,-1
 1273 955 l 1,14,-1
 750 0 l 1,15,-1
 663 0 l 1,16,-1
 403 954 l 1,17,-1
 283 134 l 2,18,19
 281 122 281 122 309 104.5 c 128,-1,20
 337 87 337 87 402 73 c 1,21,-1
 393 0 l 1,22,-1
 6 0 l 1,23,-1
 15 73 l 1,24,25
 81 87 81 87 115 103.5 c 128,-1,26
 149 120 149 120 151 134 c 2,27,-1
 300 1153 l 1,28,29
 270 1173 270 1173 237.5 1180 c 128,-1,30
 205 1187 205 1187 178 1187 c 1,31,-1
 188 1260 l 1,32,-1
 509 1260 l 2,33,34
 518 1260 518 1260 525 1257 c 128,-1,35
 532 1254 532 1254 538 1245 c 128,-1,36
 544 1236 544 1236 550 1219.5 c 128,-1,37
 556 1203 556 1203 564 1176 c 2,38,-1
 793 344 l 1,39,-1
 1250 1176 l 2,40,41
 1265 1205 1265 1205 1276 1221.5 c 128,-1,42
 1287 1238 1287 1238 1295.5 1246.5 c 128,-1,43
 1304 1255 1304 1255 1311.5 1257.5 c 128,-1,44
 1319 1260 1319 1260 1328 1260 c 2,45,-1
 1641 1260 l 1,46,-1
 1632 1187 l 1,0,1
EndSplineSet
EndChar

StartChar: N
Encoding: 78 78 49
Width: 1265
GlyphClass: 2
Flags: W
AnchorPoint: "Anchor-4" 1265 870 basechar 0
AnchorPoint: "Anchor-3" 569 -100 basechar 0
AnchorPoint: "Anchor-2" 978 0 basechar 0
AnchorPoint: "Anchor-1" 569 -100 basechar 0
AnchorPoint: "Anchor-0" 757 1320 basechar 0
LayerCount: 2
Fore
SplineSet
1341 1187 m 1,0,1
 1272 1177 1272 1177 1240 1158.5 c 128,-1,2
 1208 1140 1208 1140 1206 1125 c 2,3,-1
 1047 -30 l 1,4,5
 960 -22 960 -22 909.5 6.5 c 128,-1,6
 859 35 859 35 836 80 c 2,7,-1
 389 922 l 1,8,-1
 281 134 l 2,9,10
 280 128 280 128 285 119.5 c 128,-1,11
 290 111 290 111 304 102.5 c 128,-1,12
 318 94 318 94 341 86 c 128,-1,13
 364 78 364 78 399 73 c 1,14,-1
 389 0 l 1,15,-1
 -2 0 l 1,16,-1
 8 73 l 1,17,18
 77 82 77 82 108.5 101 c 128,-1,19
 140 120 140 120 142 134 c 2,20,-1
 277 1115 l 1,21,22
 226 1175 226 1175 158 1187 c 1,23,-1
 168 1260 l 1,24,-1
 423 1260 l 2,25,26
 439 1260 439 1260 448.5 1258 c 128,-1,27
 458 1256 458 1256 466.5 1248 c 128,-1,28
 475 1240 475 1240 483.5 1224.5 c 128,-1,29
 492 1209 492 1209 506 1182 c 2,30,-1
 959 329 l 1,31,-1
 1068 1125 l 2,32,33
 1069 1131 1069 1131 1064 1139.5 c 128,-1,34
 1059 1148 1059 1148 1046 1156.5 c 128,-1,35
 1033 1165 1033 1165 1009.5 1173 c 128,-1,36
 986 1181 986 1181 950 1187 c 1,37,-1
 959 1260 l 1,38,-1
 1350 1260 l 1,39,-1
 1341 1187 l 1,0,1
EndSplineSet
EndChar

StartChar: O
Encoding: 79 79 50
Width: 1172
GlyphClass: 2
Flags: W
AnchorPoint: "Anchor-4" 1019 870 basechar 0
AnchorPoint: "Anchor-3" 602 0 basechar 0
AnchorPoint: "Anchor-2" 530 0 basechar 0
AnchorPoint: "Anchor-1" 535 -100 basechar 0
AnchorPoint: "Anchor-0" 722 1320 basechar 0
LayerCount: 2
Fore
SplineSet
917 756 m 0,0,1
 917 840 917 840 901 913.5 c 128,-1,2
 885 987 885 987 854 1041.5 c 128,-1,3
 823 1096 823 1096 776.5 1127 c 128,-1,4
 730 1158 730 1158 670 1158 c 0,5,6
 609 1158 609 1158 559 1129 c 128,-1,7
 509 1100 509 1100 470 1051.5 c 128,-1,8
 431 1003 431 1003 402 939.5 c 128,-1,9
 373 876 373 876 354 806.5 c 128,-1,10
 335 737 335 737 326 666 c 128,-1,11
 317 595 317 595 317 532 c 0,12,13
 317 439 317 439 333 361 c 128,-1,14
 349 283 349 283 380.5 226.5 c 128,-1,15
 412 170 412 170 457 139 c 128,-1,16
 502 108 502 108 561 108 c 0,17,18
 625 108 625 108 676 138.5 c 128,-1,19
 727 169 727 169 766.5 219.5 c 128,-1,20
 806 270 806 270 834.5 336.5 c 128,-1,21
 863 403 863 403 881.5 475 c 128,-1,22
 900 547 900 547 908.5 620 c 128,-1,23
 917 693 917 693 917 756 c 0,0,1
1156 774 m 0,24,25
 1156 703 1156 703 1142.5 630 c 128,-1,26
 1129 557 1129 557 1104 486 c 128,-1,27
 1079 415 1079 415 1042.5 348.5 c 128,-1,28
 1006 282 1006 282 961 225 c 0,29,30
 919 171 919 171 866.5 124.5 c 128,-1,31
 814 78 814 78 755 43.5 c 128,-1,32
 696 9 696 9 632 -11 c 128,-1,33
 568 -31 568 -31 501 -31 c 0,34,35
 399 -31 399 -31 320 10 c 128,-1,36
 241 51 241 51 186.5 121.5 c 128,-1,37
 132 192 132 192 103.5 286 c 128,-1,38
 75 380 75 380 75 485 c 0,39,40
 75 559 75 559 87.5 631 c 128,-1,41
 100 703 100 703 123 771 c 128,-1,42
 146 839 146 839 178.5 901 c 128,-1,43
 211 963 211 963 251 1018 c 1,44,45
 293 1074 293 1074 344 1123.5 c 128,-1,46
 395 1173 395 1173 455.5 1210 c 128,-1,47
 516 1247 516 1247 586 1268.5 c 128,-1,48
 656 1290 656 1290 735 1290 c 0,49,50
 842 1290 842 1290 921 1249 c 128,-1,51
 1000 1208 1000 1208 1052.5 1137.5 c 128,-1,52
 1105 1067 1105 1067 1130.5 973 c 128,-1,53
 1156 879 1156 879 1156 774 c 0,24,25
EndSplineSet
EndChar

StartChar: P
Encoding: 80 80 51
Width: 1063
GlyphClass: 2
Flags: W
AnchorPoint: "Anchor-4" 1063 870 basechar 0
AnchorPoint: "Anchor-3" 450 -100 basechar 0
AnchorPoint: "Anchor-2" 450 -100 basechar 0
AnchorPoint: "Anchor-1" 450 -100 basechar 0
AnchorPoint: "Anchor-0" 637 1320 basechar 0
LayerCount: 2
Fore
SplineSet
1088 942 m 0,0,1
 1088 857 1088 857 1051.5 780.5 c 128,-1,2
 1015 704 1015 704 952 646 c 128,-1,3
 889 588 889 588 805.5 554 c 128,-1,4
 722 520 722 520 628 520 c 0,5,6
 590 520 590 520 551 529.5 c 128,-1,7
 512 539 512 539 485 554 c 1,8,-1
 468 658 l 1,9,10
 502 644 502 644 529.5 634.5 c 128,-1,11
 557 625 557 625 592 625 c 0,12,13
 651 625 651 625 698 644.5 c 128,-1,14
 745 664 745 664 778 700 c 128,-1,15
 811 736 811 736 828.5 788 c 128,-1,16
 846 840 846 840 846 905 c 0,17,18
 846 989 846 989 821 1043 c 128,-1,19
 796 1097 796 1097 755 1128.5 c 128,-1,20
 714 1160 714 1160 660 1172 c 128,-1,21
 606 1184 606 1184 549 1184 c 2,22,-1
 532 1184 l 2,23,24
 524 1184 524 1184 516 1183 c 1,25,-1
 371 134 l 1,26,27
 369 128 369 128 375 121 c 128,-1,28
 381 114 381 114 398 106 c 128,-1,29
 415 98 415 98 445 90 c 128,-1,30
 475 82 475 82 522 73 c 1,31,-1
 513 0 l 1,32,-1
 -8 0 l 1,33,-1
 2 73 l 1,34,35
 65 87 65 87 99 103.5 c 128,-1,36
 133 120 133 120 135 134 c 2,37,-1
 277 1161 l 1,38,39
 242 1156 242 1156 206.5 1149.5 c 128,-1,40
 171 1143 171 1143 134 1135 c 1,41,-1
 134 1225 l 1,42,43
 183 1240 183 1240 240.5 1252 c 128,-1,44
 298 1264 298 1264 358 1272.5 c 128,-1,45
 418 1281 418 1281 479 1285.5 c 128,-1,46
 540 1290 540 1290 597 1290 c 0,47,48
 713 1290 713 1290 804.5 1268 c 128,-1,49
 896 1246 896 1246 959 1202 c 128,-1,50
 1022 1158 1022 1158 1055 1093 c 128,-1,51
 1088 1028 1088 1028 1088 942 c 0,0,1
EndSplineSet
EndChar

StartChar: Q
Encoding: 81 81 52
Width: 1200
GlyphClass: 2
Flags: W
AnchorPoint: "Anchor-4" 1200 870 basechar 0
AnchorPoint: "Anchor-3" 554 -100 basechar 0
AnchorPoint: "Anchor-2" 554 -100 basechar 0
AnchorPoint: "Anchor-1" 554 -100 basechar 0
AnchorPoint: "Anchor-0" 740 1320 basechar 0
LayerCount: 2
Fore
SplineSet
917 756 m 0,0,1
 917 840 917 840 901 913.5 c 128,-1,2
 885 987 885 987 854 1041.5 c 128,-1,3
 823 1096 823 1096 776.5 1127 c 128,-1,4
 730 1158 730 1158 670 1158 c 0,5,6
 609 1158 609 1158 559 1129 c 128,-1,7
 509 1100 509 1100 470 1051.5 c 128,-1,8
 431 1003 431 1003 402 939.5 c 128,-1,9
 373 876 373 876 354 806.5 c 128,-1,10
 335 737 335 737 326 666 c 128,-1,11
 317 595 317 595 317 532 c 0,12,13
 317 439 317 439 333 361 c 128,-1,14
 349 283 349 283 380.5 226.5 c 128,-1,15
 412 170 412 170 457 139 c 128,-1,16
 502 108 502 108 561 108 c 0,17,18
 625 108 625 108 676 138.5 c 128,-1,19
 727 169 727 169 766.5 219.5 c 128,-1,20
 806 270 806 270 834.5 336.5 c 128,-1,21
 863 403 863 403 881.5 475 c 128,-1,22
 900 547 900 547 908.5 620 c 128,-1,23
 917 693 917 693 917 756 c 0,0,1
1253 -125 m 1,24,25
 1224 -169 1224 -169 1193.5 -205.5 c 128,-1,26
 1163 -242 1163 -242 1134.5 -269 c 128,-1,27
 1106 -296 1106 -296 1082 -311 c 128,-1,28
 1058 -326 1058 -326 1044 -326 c 0,29,30
 1001 -326 1001 -326 959.5 -310.5 c 128,-1,31
 918 -295 918 -295 878 -270 c 128,-1,32
 838 -245 838 -245 798.5 -212.5 c 128,-1,33
 759 -180 759 -180 719.5 -147 c 128,-1,34
 680 -114 680 -114 640.5 -82 c 128,-1,35
 601 -50 601 -50 560 -26 c 1,36,37
 546 -28 546 -28 531 -29.5 c 128,-1,38
 516 -31 516 -31 501 -31 c 0,39,40
 399 -31 399 -31 320 10 c 128,-1,41
 241 51 241 51 186.5 121.5 c 128,-1,42
 132 192 132 192 103.5 286 c 128,-1,43
 75 380 75 380 75 485 c 0,44,45
 75 559 75 559 87.5 631 c 128,-1,46
 100 703 100 703 123 771 c 128,-1,47
 146 839 146 839 178.5 901 c 128,-1,48
 211 963 211 963 251 1018 c 1,49,50
 293 1074 293 1074 344 1123.5 c 128,-1,51
 395 1173 395 1173 455.5 1210 c 128,-1,52
 516 1247 516 1247 586 1268.5 c 128,-1,53
 656 1290 656 1290 735 1290 c 0,54,55
 842 1290 842 1290 921 1249 c 128,-1,56
 1000 1208 1000 1208 1052.5 1137.5 c 128,-1,57
 1105 1067 1105 1067 1130.5 973 c 128,-1,58
 1156 879 1156 879 1156 774 c 0,59,60
 1156 703 1156 703 1142.5 630 c 128,-1,61
 1129 557 1129 557 1104 486 c 128,-1,62
 1079 415 1079 415 1042.5 348.5 c 128,-1,63
 1006 282 1006 282 961 225 c 0,64,65
 913 165 913 165 854 114 c 128,-1,66
 795 63 795 63 727 28 c 1,67,68
 777 8 777 8 822.5 -19.5 c 128,-1,69
 868 -47 868 -47 910.5 -71.5 c 128,-1,70
 953 -96 953 -96 993.5 -113 c 128,-1,71
 1034 -130 1034 -130 1076 -130 c 0,72,73
 1088 -130 1088 -130 1099.5 -127.5 c 128,-1,74
 1111 -125 1111 -125 1126.5 -117.5 c 128,-1,75
 1142 -110 1142 -110 1163 -96 c 128,-1,76
 1184 -82 1184 -82 1215 -60 c 1,77,-1
 1253 -125 l 1,24,25
EndSplineSet
EndChar

StartChar: R
Encoding: 82 82 53
Width: 1145
GlyphClass: 2
Flags: W
AnchorPoint: "Anchor-4" 1145 870 basechar 0
AnchorPoint: "Anchor-3" 461 -100 basechar 0
AnchorPoint: "Anchor-2" 238 0 basechar 0
AnchorPoint: "Anchor-1" 461 -100 basechar 0
AnchorPoint: "Anchor-0" 648 1320 basechar 0
LayerCount: 2
Fore
SplineSet
562 1184 m 0,0,1
 550 1184 550 1184 538 1183.5 c 128,-1,2
 526 1183 526 1183 514 1183 c 1,3,-1
 449 704 l 1,4,5
 473 696 473 696 496 694 c 128,-1,6
 519 692 519 692 545 692 c 0,7,8
 597 692 597 692 645.5 708.5 c 128,-1,9
 694 725 694 725 731.5 757 c 128,-1,10
 769 789 769 789 791 835.5 c 128,-1,11
 813 882 813 882 813 942 c 0,12,13
 813 1016 813 1016 789.5 1063 c 128,-1,14
 766 1110 766 1110 729 1137 c 128,-1,15
 692 1164 692 1164 648 1174 c 128,-1,16
 604 1184 604 1184 562 1184 c 0,0,1
1160 117 m 1,17,18
 1121 91 1121 91 1075 67 c 128,-1,19
 1029 43 1029 43 986.5 25 c 128,-1,20
 944 7 944 7 910.5 -3.5 c 128,-1,21
 877 -14 877 -14 864 -14 c 0,22,23
 847 -14 847 -14 830.5 -9.5 c 128,-1,24
 814 -5 814 -5 797.5 9 c 128,-1,25
 781 23 781 23 764.5 49 c 128,-1,26
 748 75 748 75 732 117 c 2,27,-1
 552 581 l 1,28,29
 524 582 524 582 492.5 584.5 c 128,-1,30
 461 587 461 587 434 594 c 1,31,-1
 372 134 l 1,32,33
 369 122 369 122 400.5 104.5 c 128,-1,34
 432 87 432 87 495 73 c 1,35,-1
 485 0 l 1,36,-1
 -8 0 l 1,37,-1
 2 73 l 1,38,39
 65 87 65 87 99.5 103.5 c 128,-1,40
 134 120 134 120 136 134 c 2,41,-1
 275 1161 l 1,42,43
 237 1156 237 1156 201 1149.5 c 128,-1,44
 165 1143 165 1143 133 1136 c 1,45,-1
 134 1227 l 1,46,47
 179 1240 179 1240 234 1251.5 c 128,-1,48
 289 1263 289 1263 350 1271.5 c 128,-1,49
 411 1280 411 1280 477.5 1285 c 128,-1,50
 544 1290 544 1290 612 1290 c 0,51,52
 717 1290 717 1290 799 1269.5 c 128,-1,53
 881 1249 881 1249 937.5 1208.5 c 128,-1,54
 994 1168 994 1168 1023.5 1108.5 c 128,-1,55
 1053 1049 1053 1049 1053 971 c 0,56,57
 1053 922 1053 922 1031.5 867.5 c 128,-1,58
 1010 813 1010 813 969 762 c 128,-1,59
 928 711 928 711 868 669 c 128,-1,60
 808 627 808 627 730 604 c 1,61,-1
 951 214 l 2,62,63
 966 188 966 188 981 175.5 c 128,-1,64
 996 163 996 163 1016.5 161 c 128,-1,65
 1037 159 1037 159 1065 165.5 c 128,-1,66
 1093 172 1093 172 1134 185 c 1,67,-1
 1160 117 l 1,17,18
EndSplineSet
EndChar

StartChar: S
Encoding: 83 83 54
Width: 975
GlyphClass: 2
Flags: W
AnchorPoint: "Anchor-4" 975 870 basechar 0
AnchorPoint: "Anchor-3" 413 -100 basechar 0
AnchorPoint: "Anchor-2" 427 0 basechar 0
AnchorPoint: "Anchor-1" 413 -100 basechar 0
AnchorPoint: "Anchor-0" 600 1320 basechar 0
LayerCount: 2
Fore
SplineSet
962 1198 m 0,0,1
 966 1195 966 1195 961.5 1180 c 128,-1,2
 957 1165 957 1165 947.5 1144.5 c 128,-1,3
 938 1124 938 1124 924.5 1100 c 128,-1,4
 911 1076 911 1076 897.5 1055 c 128,-1,5
 884 1034 884 1034 872 1018.5 c 128,-1,6
 860 1003 860 1003 853 999 c 1,7,-1
 794 1005 l 1,8,9
 782 1047 782 1047 761 1078 c 128,-1,10
 740 1109 740 1109 714.5 1129.5 c 128,-1,11
 689 1150 689 1150 659.5 1160.5 c 128,-1,12
 630 1171 630 1171 600 1171 c 0,13,14
 549 1171 549 1171 511.5 1156 c 128,-1,15
 474 1141 474 1141 449.5 1116 c 128,-1,16
 425 1091 425 1091 413 1059.5 c 128,-1,17
 401 1028 401 1028 401 995 c 0,18,19
 401 973 401 973 408 949 c 128,-1,20
 415 925 415 925 437 899 c 128,-1,21
 459 873 459 873 499.5 843.5 c 128,-1,22
 540 814 540 814 607 780 c 0,23,24
 686 739 686 739 743 701 c 128,-1,25
 800 663 800 663 837 622 c 128,-1,26
 874 581 874 581 891.5 535 c 128,-1,27
 909 489 909 489 909 433 c 0,28,29
 909 339 909 339 868 255 c 128,-1,30
 827 171 827 171 755.5 107.5 c 128,-1,31
 684 44 684 44 587.5 6.5 c 128,-1,32
 491 -31 491 -31 381 -31 c 0,33,34
 347 -31 347 -31 307 -25 c 128,-1,35
 267 -19 267 -19 227.5 -8.5 c 128,-1,36
 188 2 188 2 151.5 16.5 c 128,-1,37
 115 31 115 31 87 48.5 c 128,-1,38
 59 66 59 66 42 85 c 128,-1,39
 25 104 25 104 25 123 c 0,40,41
 25 133 25 133 32.5 151 c 128,-1,42
 40 169 40 169 53 190 c 128,-1,43
 66 211 66 211 81.5 233 c 128,-1,44
 97 255 97 255 113 273 c 128,-1,45
 129 291 129 291 144 302.5 c 128,-1,46
 159 314 159 314 169 314 c 0,47,48
 180 314 180 314 193.5 299 c 128,-1,49
 207 284 207 284 224.5 261.5 c 128,-1,50
 242 239 242 239 264 212.5 c 128,-1,51
 286 186 286 186 314.5 163.5 c 128,-1,52
 343 141 343 141 377.5 126 c 128,-1,53
 412 111 412 111 455 111 c 0,54,55
 503 111 503 111 545.5 127 c 128,-1,56
 588 143 588 143 619.5 172 c 128,-1,57
 651 201 651 201 669.5 243 c 128,-1,58
 688 285 688 285 688 338 c 0,59,60
 688 381 688 381 673.5 418 c 128,-1,61
 659 455 659 455 626.5 489.5 c 128,-1,62
 594 524 594 524 541.5 557 c 128,-1,63
 489 590 489 590 413 626 c 0,64,65
 347 657 347 657 304 691.5 c 128,-1,66
 261 726 261 726 236.5 763.5 c 128,-1,67
 212 801 212 801 202 842 c 128,-1,68
 192 883 192 883 192 928 c 0,69,70
 192 994 192 994 225.5 1059 c 128,-1,71
 259 1124 259 1124 321.5 1175 c 128,-1,72
 384 1226 384 1226 471.5 1258 c 128,-1,73
 559 1290 559 1290 667 1290 c 0,74,75
 762 1290 762 1290 838 1262.5 c 128,-1,76
 914 1235 914 1235 962 1198 c 0,0,1
EndSplineSet
EndChar

StartChar: T
Encoding: 84 84 55
Width: 1109
GlyphClass: 2
Flags: W
AnchorPoint: "Anchor-4" 1109 870 basechar 0
AnchorPoint: "Anchor-3" 476 -100 basechar 0
AnchorPoint: "Anchor-2" 490 0 basechar 0
AnchorPoint: "Anchor-1" 476 -100 basechar 0
AnchorPoint: "Anchor-0" 670 1320 basechar 0
LayerCount: 2
Fore
SplineSet
758 0 m 1,0,-1
 237 0 l 1,1,-1
 246 73 l 1,2,3
 290 82 290 82 319 92 c 128,-1,4
 348 102 348 102 366 111.5 c 128,-1,5
 384 121 384 121 392 129.5 c 128,-1,6
 400 138 400 138 401 145 c 2,7,-1
 537 1140 l 1,8,-1
 303 1140 l 2,9,10
 289 1140 289 1140 275.5 1129.5 c 128,-1,11
 262 1119 262 1119 245.5 1094 c 128,-1,12
 229 1069 229 1069 208 1029 c 128,-1,13
 187 989 187 989 158 931 c 1,14,-1
 94 958 l 1,15,16
 100 986 100 986 109.5 1027.5 c 128,-1,17
 119 1069 119 1069 130.5 1112 c 128,-1,18
 142 1155 142 1155 153 1194.5 c 128,-1,19
 164 1234 164 1234 173 1260 c 1,20,-1
 1164 1260 l 1,21,-1
 1193 1228 l 1,22,23
 1189 1203 1189 1203 1180.5 1166 c 128,-1,24
 1172 1129 1172 1129 1161.5 1088.5 c 128,-1,25
 1151 1048 1151 1048 1140 1009 c 128,-1,26
 1129 970 1129 970 1120 940 c 1,27,-1
 1051 940 l 1,28,29
 1048 987 1048 987 1046.5 1024.5 c 128,-1,30
 1045 1062 1045 1062 1040.5 1087.5 c 128,-1,31
 1036 1113 1036 1113 1026 1126.5 c 128,-1,32
 1016 1140 1016 1140 996 1140 c 2,33,-1
 769 1140 l 1,34,-1
 633 145 l 2,35,36
 632 139 632 139 637.5 130.5 c 128,-1,37
 643 122 643 122 658 112 c 128,-1,38
 673 102 673 102 700 92 c 128,-1,39
 727 82 727 82 768 73 c 1,40,-1
 758 0 l 1,0,-1
EndSplineSet
EndChar

StartChar: U
Encoding: 85 85 56
Width: 1268
GlyphClass: 2
Flags: W
AnchorPoint: "Anchor-4" 1182 870 basechar 0
AnchorPoint: "Anchor-3" 681 0 basechar 0
AnchorPoint: "Anchor-2" 610 0 basechar 0
AnchorPoint: "Anchor-1" 583 -100 basechar 0
AnchorPoint: "Anchor-0" 770 1320 basechar 0
LayerCount: 2
Fore
SplineSet
1325 1187 m 1,0,1
 1262 1173 1262 1173 1231 1156 c 128,-1,2
 1200 1139 1200 1139 1198 1125 c 2,3,-1
 1111 512 l 2,4,5
 1093 381 1093 381 1045 279.5 c 128,-1,6
 997 178 997 178 927.5 109 c 128,-1,7
 858 40 858 40 770 4.5 c 128,-1,8
 682 -31 682 -31 583 -31 c 0,9,10
 501 -31 501 -31 427 -6 c 128,-1,11
 353 19 353 19 297 67 c 128,-1,12
 241 115 241 115 208 185.5 c 128,-1,13
 175 256 175 256 175 348 c 0,14,15
 175 401 175 401 184 463 c 2,16,-1
 278 1125 l 2,17,18
 280 1137 280 1137 253 1155 c 128,-1,19
 226 1173 226 1173 161 1187 c 1,20,-1
 170 1260 l 1,21,-1
 652 1260 l 1,22,-1
 642 1187 l 1,23,24
 579 1173 579 1173 544 1156 c 128,-1,25
 509 1139 509 1139 507 1125 c 2,26,-1
 419 510 l 2,27,28
 415 481 415 481 412.5 452 c 128,-1,29
 410 423 410 423 410 397 c 0,30,31
 410 257 410 257 470.5 186.5 c 128,-1,32
 531 116 531 116 657 116 c 0,33,34
 722 116 722 116 771 143 c 128,-1,35
 820 170 820 170 855 217.5 c 128,-1,36
 890 265 890 265 911.5 329.5 c 128,-1,37
 933 394 933 394 943 469 c 2,38,-1
 1035 1125 l 2,39,40
 1036 1131 1036 1131 1030.5 1139 c 128,-1,41
 1025 1147 1025 1147 1012 1155 c 128,-1,42
 999 1163 999 1163 977 1171.5 c 128,-1,43
 955 1180 955 1180 923 1187 c 1,44,-1
 933 1260 l 1,45,-1
 1335 1260 l 1,46,-1
 1325 1187 l 1,0,1
EndSplineSet
EndChar

StartChar: V
Encoding: 86 86 57
Width: 1246
GlyphClass: 2
Flags: W
AnchorPoint: "Anchor-4" 1246 870 basechar 0
AnchorPoint: "Anchor-3" 534 0 basechar 0
AnchorPoint: "Anchor-2" 583 0 basechar 0
AnchorPoint: "Anchor-1" 554 -100 basechar 0
AnchorPoint: "Anchor-0" 741 1320 basechar 0
LayerCount: 2
Fore
SplineSet
1342 1187 m 1,0,1
 1276 1174 1276 1174 1239 1161.5 c 128,-1,2
 1202 1149 1202 1149 1189 1121 c 2,3,-1
 699 82 l 2,4,5
 689 60 689 60 665.5 42 c 128,-1,6
 642 24 642 24 613.5 9.5 c 128,-1,7
 585 -5 585 -5 555.5 -14.5 c 128,-1,8
 526 -24 526 -24 502 -30 c 1,9,-1
 239 1121 l 2,10,11
 233 1147 233 1147 207.5 1163 c 128,-1,12
 182 1179 182 1179 124 1187 c 1,13,-1
 134 1260 l 1,14,-1
 607 1260 l 1,15,-1
 597 1187 l 1,16,17
 523 1181 523 1181 496.5 1166 c 128,-1,18
 470 1151 470 1151 477 1123 c 2,19,-1
 661 284 l 1,20,-1
 1052 1121 l 2,21,22
 1065 1150 1065 1150 1041 1163.5 c 128,-1,23
 1017 1177 1017 1177 943 1187 c 1,24,-1
 953 1260 l 1,25,-1
 1352 1260 l 1,26,-1
 1342 1187 l 1,0,1
EndSplineSet
EndChar

StartChar: W
Encoding: 87 87 58
Width: 1595
GlyphClass: 2
Flags: W
AnchorPoint: "Anchor-4" 1595 870 basechar 0
AnchorPoint: "Anchor-3" 742 -100 basechar 0
AnchorPoint: "Anchor-2" 742 -100 basechar 0
AnchorPoint: "Anchor-1" 742 -100 basechar 0
AnchorPoint: "Anchor-0" 933 1320 basechar 0
LayerCount: 2
Fore
SplineSet
1699 1187 m 1,0,1
 1620 1170 1620 1170 1587 1156.5 c 128,-1,2
 1554 1143 1554 1143 1548 1125 c 2,3,-1
 1191 59 l 2,4,5
 1183 38 1183 38 1164.5 22.5 c 128,-1,6
 1146 7 1146 7 1123.5 -3.5 c 128,-1,7
 1101 -14 1101 -14 1079 -20.5 c 128,-1,8
 1057 -27 1057 -27 1042 -30 c 1,9,-1
 850 877 l 1,10,-1
 473 59 l 1,11,12
 464 37 464 37 444.5 22 c 128,-1,13
 425 7 425 7 402 -3 c 128,-1,14
 379 -13 379 -13 356 -19.5 c 128,-1,15
 333 -26 333 -26 315 -30 c 1,16,-1
 232 1117 l 2,17,18
 230 1142 230 1142 204 1158 c 128,-1,19
 178 1174 178 1174 114 1187 c 1,20,-1
 124 1260 l 1,21,-1
 576 1260 l 1,22,-1
 567 1187 l 1,23,24
 521 1182 521 1182 495 1174.5 c 128,-1,25
 469 1167 469 1167 456 1158 c 128,-1,26
 443 1149 443 1149 440 1138.5 c 128,-1,27
 437 1128 437 1128 438 1117 c 2,28,-1
 495 386 l 1,29,-1
 886 1260 l 1,30,-1
 980 1260 l 1,31,-1
 1169 386 l 1,32,-1
 1419 1125 l 2,33,34
 1423 1137 1423 1137 1414 1146 c 128,-1,35
 1405 1155 1405 1155 1387 1162 c 128,-1,36
 1369 1169 1369 1169 1343 1175 c 128,-1,37
 1317 1181 1317 1181 1286 1187 c 1,38,-1
 1295 1260 l 1,39,-1
 1708 1260 l 1,40,-1
 1699 1187 l 1,0,1
EndSplineSet
EndChar

StartChar: X
Encoding: 88 88 59
Width: 1212
GlyphClass: 2
Flags: W
AnchorPoint: "Anchor-4" 1212 870 basechar 0
AnchorPoint: "Anchor-3" 532 -100 basechar 0
AnchorPoint: "Anchor-2" 532 -100 basechar 0
AnchorPoint: "Anchor-1" 532 -100 basechar 0
AnchorPoint: "Anchor-0" 718 1320 basechar 0
LayerCount: 2
Fore
SplineSet
1118 0 m 1,0,-1
 625 0 l 1,1,-1
 634 73 l 1,2,3
 676 77 676 77 702 83.5 c 128,-1,4
 728 90 728 90 740.5 99.5 c 128,-1,5
 753 109 753 109 752.5 123 c 128,-1,6
 752 137 752 137 742 157 c 2,7,-1
 569 503 l 1,8,-1
 310 157 l 2,9,10
 293 135 293 135 288 120.5 c 128,-1,11
 283 106 283 106 292 96.5 c 128,-1,12
 301 87 301 87 325 81.5 c 128,-1,13
 349 76 349 76 391 73 c 1,14,-1
 381 0 l 1,15,-1
 -35 0 l 1,16,-1
 -25 73 l 1,17,18
 36 78 36 78 80 97.5 c 128,-1,19
 124 117 124 117 154 157 c 2,20,-1
 506 631 l 1,21,-1
 271 1103 l 2,22,23
 259 1125 259 1125 248 1139 c 128,-1,24
 237 1153 237 1153 222.5 1162 c 128,-1,25
 208 1171 208 1171 187.5 1176.5 c 128,-1,26
 167 1182 167 1182 137 1187 c 1,27,-1
 147 1260 l 1,28,-1
 648 1260 l 1,29,-1
 638 1187 l 1,30,31
 558 1179 558 1179 531.5 1162.5 c 128,-1,32
 505 1146 505 1146 527 1103 c 2,33,-1
 678 799 l 1,34,-1
 896 1103 l 2,35,36
 912 1126 912 1126 916.5 1140.5 c 128,-1,37
 921 1155 921 1155 912 1164.5 c 128,-1,38
 903 1174 903 1174 878.5 1179 c 128,-1,39
 854 1184 854 1184 814 1187 c 1,40,-1
 824 1260 l 1,41,-1
 1243 1260 l 1,42,-1
 1233 1187 l 1,43,44
 1199 1183 1199 1183 1172 1177 c 128,-1,45
 1145 1171 1145 1171 1123.5 1161.5 c 128,-1,46
 1102 1152 1102 1152 1084.5 1138 c 128,-1,47
 1067 1124 1067 1124 1052 1103 c 2,48,-1
 740 676 l 1,49,-1
 1000 157 l 2,50,51
 1010 136 1010 136 1021.5 121.5 c 128,-1,52
 1033 107 1033 107 1048 97.5 c 128,-1,53
 1063 88 1063 88 1082 82.5 c 128,-1,54
 1101 77 1101 77 1128 73 c 1,55,-1
 1118 0 l 1,0,-1
EndSplineSet
EndChar

StartChar: Y
Encoding: 89 89 60
Width: 1170
GlyphClass: 2
Flags: W
AnchorPoint: "Anchor-4" 1170 870 basechar 0
AnchorPoint: "Anchor-3" 529 -100 basechar 0
AnchorPoint: "Anchor-2" 529 -100 basechar 0
AnchorPoint: "Anchor-1" 529 -100 basechar 0
AnchorPoint: "Anchor-0" 716 1320 basechar 0
LayerCount: 2
Fore
SplineSet
802 0 m 1,0,-1
 279 0 l 1,1,-1
 289 73 l 1,2,3
 332 82 332 82 361 92 c 128,-1,4
 390 102 390 102 408 111.5 c 128,-1,5
 426 121 426 121 434 129.5 c 128,-1,6
 442 138 442 138 443 145 c 2,7,-1
 496 533 l 1,8,9
 475 611 475 611 445.5 694.5 c 128,-1,10
 416 778 416 778 384 857.5 c 128,-1,11
 352 937 352 937 319.5 1005.5 c 128,-1,12
 287 1074 287 1074 259 1122 c 0,13,14
 252 1134 252 1134 243.5 1142.5 c 128,-1,15
 235 1151 235 1151 220 1156.5 c 128,-1,16
 205 1162 205 1162 181 1164 c 128,-1,17
 157 1166 157 1166 119 1165 c 1,18,-1
 122 1238 l 1,19,20
 150 1243 150 1243 186.5 1249 c 128,-1,21
 223 1255 223 1255 259 1260 c 128,-1,22
 295 1265 295 1265 327 1268.5 c 128,-1,23
 359 1272 359 1272 378 1272 c 0,24,25
 401 1272 401 1272 425 1260 c 128,-1,26
 449 1248 449 1248 462 1225 c 0,27,28
 490 1175 490 1175 521 1108.5 c 128,-1,29
 552 1042 552 1042 581.5 968.5 c 128,-1,30
 611 895 611 895 637 819.5 c 128,-1,31
 663 744 663 744 683 678 c 1,32,-1
 960 1121 l 2,33,34
 977 1148 977 1148 956 1162.5 c 128,-1,35
 935 1177 935 1177 865 1187 c 1,36,-1
 875 1260 l 1,37,-1
 1262 1260 l 1,38,-1
 1252 1187 l 1,39,40
 1220 1181 1220 1181 1196 1174.5 c 128,-1,41
 1172 1168 1172 1168 1155 1160.5 c 128,-1,42
 1138 1153 1138 1153 1126 1143.5 c 128,-1,43
 1114 1134 1114 1134 1106 1121 c 2,44,-1
 727 523 l 1,45,-1
 675 145 l 2,46,47
 674 139 674 139 679.5 130.5 c 128,-1,48
 685 122 685 122 700.5 112 c 128,-1,49
 716 102 716 102 743 92 c 128,-1,50
 770 82 770 82 812 73 c 1,51,-1
 802 0 l 1,0,-1
EndSplineSet
EndChar

StartChar: Z
Encoding: 90 90 61
Width: 1064
GlyphClass: 2
Flags: W
AnchorPoint: "Anchor-4" 1064 870 basechar 0
AnchorPoint: "Anchor-3" 486 -100 basechar 0
AnchorPoint: "Anchor-2" 486 -100 basechar 0
AnchorPoint: "Anchor-1" 486 -100 basechar 0
AnchorPoint: "Anchor-0" 653 1320 basechar 0
LayerCount: 2
Fore
SplineSet
319 130 m 1,0,-1
 743 130 l 2,1,2
 763 130 763 130 781 145 c 128,-1,3
 799 160 799 160 817.5 191 c 128,-1,4
 836 222 836 222 857 268.5 c 128,-1,5
 878 315 878 315 904 377 c 1,6,-1
 981 356 l 1,7,8
 975 323 975 323 966.5 274.5 c 128,-1,9
 958 226 958 226 949.5 174.5 c 128,-1,10
 941 123 941 123 933 76 c 128,-1,11
 925 29 925 29 921 0 c 1,12,-1
 42 0 l 1,13,-1
 16 53 l 1,14,-1
 784 1132 l 1,15,-1
 421 1132 l 2,16,17
 406 1132 406 1132 385 1115 c 128,-1,18
 364 1098 364 1098 341 1067 c 128,-1,19
 318 1036 318 1036 296 992.5 c 128,-1,20
 274 949 274 949 256 896 c 1,21,-1
 178 915 l 1,22,-1
 262 1279 l 1,23,24
 287 1272 287 1272 307 1268 c 128,-1,25
 327 1264 327 1264 346.5 1262.5 c 128,-1,26
 366 1261 366 1261 387.5 1260.5 c 128,-1,27
 409 1260 409 1260 436 1260 c 2,28,-1
 1058 1260 l 1,29,-1
 1081 1209 l 1,30,-1
 319 130 l 1,0,-1
EndSplineSet
EndChar

StartChar: bracketleft
Encoding: 91 91 62
Width: 724
Flags: W
LayerCount: 2
Fore
SplineSet
824 1566 m 1,0,1
 821 1554 821 1554 814 1537.5 c 128,-1,2
 807 1521 807 1521 799 1505 c 128,-1,3
 791 1489 791 1489 784 1476 c 128,-1,4
 777 1463 777 1463 773 1457 c 1,5,-1
 511 1457 l 1,6,-1
 284 -191 l 1,7,-1
 540 -191 l 1,8,-1
 576 -228 l 1,9,10
 573 -238 573 -238 566.5 -252.5 c 128,-1,11
 560 -267 560 -267 552.5 -283 c 128,-1,12
 545 -299 545 -299 538 -313 c 128,-1,13
 531 -327 531 -327 526 -336 c 1,14,-1
 50 -336 l 1,15,-1
 322 1599 l 1,16,-1
 790 1599 l 1,17,-1
 824 1566 l 1,0,1
EndSplineSet
EndChar

StartChar: backslash
Encoding: 92 92 63
Width: 857
Flags: W
LayerCount: 2
Fore
SplineSet
685 -336 m 1,0,1
 674 -332 674 -332 650.5 -324 c 128,-1,2
 627 -316 627 -316 601.5 -306 c 128,-1,3
 576 -296 576 -296 554 -286.5 c 128,-1,4
 532 -277 532 -277 525 -270 c 1,5,-1
 138 1570 l 1,6,-1
 182 1599 l 1,7,8
 196 1595 196 1595 218 1588 c 128,-1,9
 240 1581 240 1581 263.5 1572 c 128,-1,10
 287 1563 287 1563 308.5 1553.5 c 128,-1,11
 330 1544 330 1544 342 1535 c 1,12,-1
 727 -304 l 1,13,-1
 685 -336 l 1,0,1
EndSplineSet
EndChar

StartChar: bracketright
Encoding: 93 93 64
Width: 676
Flags: W
LayerCount: 2
Fore
SplineSet
418 -336 m 1,0,-1
 -50 -336 l 1,1,-1
 -86 -300 l 1,2,3
 -82 -288 -82 -288 -75.5 -272 c 128,-1,4
 -69 -256 -69 -256 -61.5 -240 c 128,-1,5
 -54 -224 -54 -224 -47 -210.5 c 128,-1,6
 -40 -197 -40 -197 -36 -191 c 1,7,-1
 226 -191 l 1,8,-1
 458 1457 l 1,9,-1
 204 1457 l 1,10,-1
 167 1491 l 1,11,12
 170 1502 170 1502 176 1517 c 128,-1,13
 182 1532 182 1532 189.5 1547.5 c 128,-1,14
 197 1563 197 1563 203.5 1577 c 128,-1,15
 210 1591 210 1591 215 1599 c 1,16,-1
 688 1599 l 1,17,-1
 418 -336 l 1,0,-1
EndSplineSet
EndChar

StartChar: asciicircum
Encoding: 94 94 65
Width: 938
Flags: W
LayerCount: 2
Fore
SplineSet
854 635 m 1,0,1
 826 612 826 612 801.5 596.5 c 128,-1,2
 777 581 777 581 743 565 c 1,3,-1
 713 592 l 1,4,-1
 553 1315 l 1,5,-1
 223 635 l 1,6,7
 212 625 212 625 197 614.5 c 128,-1,8
 182 604 182 604 166.5 594.5 c 128,-1,9
 151 585 151 585 137 577.5 c 128,-1,10
 123 570 123 570 113 565 c 1,11,-1
 94 592 l 1,12,-1
 516 1462 l 1,13,14
 529 1474 529 1474 547 1486.5 c 128,-1,15
 565 1499 565 1499 584 1511 c 128,-1,16
 603 1523 603 1523 621 1533 c 128,-1,17
 639 1543 639 1543 653 1550 c 1,18,-1
 854 635 l 1,0,1
EndSplineSet
EndChar

StartChar: underscore
Encoding: 95 95 66
Width: 921
Flags: W
LayerCount: 2
Fore
SplineSet
791 -164 m 1,0,1
 788 -175 788 -175 781 -190 c 128,-1,2
 774 -205 774 -205 766 -221 c 128,-1,3
 758 -237 758 -237 750 -252 c 128,-1,4
 742 -267 742 -267 737 -276 c 1,5,-1
 -7 -276 l 1,6,-1
 -31 -242 l 1,7,8
 -28 -232 -28 -232 -21 -217.5 c 128,-1,9
 -14 -203 -14 -203 -6 -187 c 128,-1,10
 2 -171 2 -171 11 -156 c 2,11,-1
 26 -131 l 1,12,-1
 766 -131 l 1,13,-1
 791 -164 l 1,0,1
EndSplineSet
EndChar

StartChar: grave
Encoding: 96 96 67
Width: 606
Flags: W
LayerCount: 2
Fore
SplineSet
577 1055 m 1,0,1
 557 1043 557 1043 534 1032.5 c 128,-1,2
 511 1022 511 1022 493 1019 c 1,3,-1
 205 1382 l 1,4,-1
 245 1433 l 1,5,6
 257 1435 257 1435 286 1440.5 c 128,-1,7
 315 1446 315 1446 348 1452 c 128,-1,8
 381 1458 381 1458 410.5 1462.5 c 128,-1,9
 440 1467 440 1467 453 1467 c 1,10,-1
 577 1055 l 1,0,1
EndSplineSet
EndChar

StartChar: a
Encoding: 97 97 68
Width: 986
GlyphClass: 2
Flags: W
AnchorPoint: "Anchor-4" 1153 870 basechar 0
AnchorPoint: "Anchor-3" 747 0 basechar 0
AnchorPoint: "Anchor-2" 710 0 basechar 0
AnchorPoint: "Anchor-1" 432 -100 basechar 0
AnchorPoint: "Anchor-0" 582 1000 basechar 0
LayerCount: 2
Fore
SplineSet
583 378 m 1,0,1
 589 420 589 420 596.5 468 c 128,-1,2
 604 516 604 516 611.5 562.5 c 128,-1,3
 619 609 619 609 626 651.5 c 128,-1,4
 633 694 633 694 639 725 c 1,5,6
 610 752 610 752 578 773 c 128,-1,7
 546 794 546 794 515 794 c 0,8,9
 473 793 473 793 438 773 c 128,-1,10
 403 753 403 753 375.5 720 c 128,-1,11
 348 687 348 687 327 644.5 c 128,-1,12
 306 602 306 602 292.5 556 c 128,-1,13
 279 510 279 510 272 464.5 c 128,-1,14
 265 419 265 419 265 379 c 0,15,16
 265 323 265 323 273 281 c 128,-1,17
 281 239 281 239 294.5 211.5 c 128,-1,18
 308 184 308 184 325.5 170 c 128,-1,19
 343 156 343 156 362 156 c 0,20,21
 394 156 394 156 452 213 c 128,-1,22
 510 270 510 270 583 378 c 1,0,1
980 106 m 1,23,24
 938 76 938 76 896.5 49.5 c 128,-1,25
 855 23 855 23 819 2.5 c 128,-1,26
 783 -18 783 -18 754.5 -29.5 c 128,-1,27
 726 -41 726 -41 708 -41 c 0,28,29
 691 -41 691 -41 669.5 -30 c 128,-1,30
 648 -19 648 -19 628.5 8.5 c 128,-1,31
 609 36 609 36 593.5 82 c 128,-1,32
 578 128 578 128 573 198 c 1,33,34
 541 154 541 154 504.5 111 c 128,-1,35
 468 68 468 68 428.5 34 c 128,-1,36
 389 0 389 0 347.5 -20.5 c 128,-1,37
 306 -41 306 -41 266 -41 c 0,38,39
 230 -41 230 -41 190 -22 c 128,-1,40
 150 -3 150 -3 116.5 38.5 c 128,-1,41
 83 80 83 80 60.5 145.5 c 128,-1,42
 38 211 38 211 38 305 c 0,43,44
 38 384 38 384 58 459.5 c 128,-1,45
 78 535 78 535 116 604 c 128,-1,46
 154 673 154 673 209 733.5 c 128,-1,47
 264 794 264 794 335 842 c 0,48,49
 362 860 362 860 395 877 c 128,-1,50
 428 894 428 894 465 907 c 128,-1,51
 502 920 502 920 542.5 928 c 128,-1,52
 583 936 583 936 625 936 c 256,53,54
 667 936 667 936 707.5 917 c 128,-1,55
 748 898 748 898 783 876 c 1,56,57
 817 893 817 893 851 907.5 c 128,-1,58
 885 922 885 922 912 936 c 1,59,-1
 943 871 l 1,60,61
 926 857 926 857 915 846 c 128,-1,62
 904 835 904 835 895.5 820.5 c 128,-1,63
 887 806 887 806 881 785 c 128,-1,64
 875 764 875 764 868 730 c 0,65,66
 853 658 853 658 841 590.5 c 128,-1,67
 829 523 829 523 820.5 466.5 c 128,-1,68
 812 410 812 410 808 367 c 128,-1,69
 804 324 804 324 804 302 c 0,70,71
 804 233 804 233 819 188.5 c 128,-1,72
 834 144 834 144 857 144 c 0,73,74
 877 144 877 144 900.5 149.5 c 128,-1,75
 924 155 924 155 964 172 c 1,76,-1
 980 106 l 1,23,24
EndSplineSet
Substitution2: "'aalt' Access All Alternates lookup 7 subtable" a.SngStory
EndChar

StartChar: b
Encoding: 98 98 69
Width: 1020
GlyphClass: 2
Flags: W
AnchorPoint: "Anchor-4" 1045 880 basechar 0
AnchorPoint: "Anchor-3" 462 -100 basechar 0
AnchorPoint: "Anchor-2" 470 0 basechar 0
AnchorPoint: "Anchor-1" 462 -100 basechar 0
AnchorPoint: "Anchor-0" 718 1580 basechar 0
LayerCount: 2
Fore
SplineSet
623 758 m 0,0,1
 609 758 609 758 584.5 744 c 128,-1,2
 560 730 560 730 528 700 c 128,-1,3
 496 670 496 670 458 622 c 128,-1,4
 420 574 420 574 380 507 c 1,5,6
 370 438 370 438 364.5 385 c 128,-1,7
 359 332 359 332 359 301 c 0,8,9
 359 275 359 275 374.5 247.5 c 128,-1,10
 390 220 390 220 412.5 198 c 128,-1,11
 435 176 435 176 461 161.5 c 128,-1,12
 487 147 487 147 508 146 c 0,13,14
 558 144 558 144 594 170.5 c 128,-1,15
 630 197 630 197 657 237 c 0,16,17
 677 267 677 267 691 303.5 c 128,-1,18
 705 340 705 340 713.5 379 c 128,-1,19
 722 418 722 418 726 457 c 128,-1,20
 730 496 730 496 730 530 c 0,21,22
 730 582 730 582 722.5 624 c 128,-1,23
 715 666 715 666 700.5 696 c 128,-1,24
 686 726 686 726 666.5 742 c 128,-1,25
 647 758 647 758 623 758 c 0,0,1
964 610 m 0,26,27
 962 504 962 504 919 395.5 c 128,-1,28
 876 287 876 287 801 188 c 0,29,30
 766 143 766 143 722.5 101.5 c 128,-1,31
 679 60 679 60 627 28.5 c 128,-1,32
 575 -3 575 -3 517 -22 c 128,-1,33
 459 -41 459 -41 396 -41 c 0,34,35
 362 -41 362 -41 314 -17.5 c 128,-1,36
 266 6 266 6 221.5 45 c 128,-1,37
 177 84 177 84 146 135 c 128,-1,38
 115 186 115 186 114 240 c 0,39,40
 114 266 114 266 120 318.5 c 128,-1,41
 126 371 126 371 135.5 440 c 128,-1,42
 145 509 145 509 157.5 590 c 128,-1,43
 170 671 170 671 183 754.5 c 128,-1,44
 196 838 196 838 208.5 920 c 128,-1,45
 221 1002 221 1002 231 1073 c 128,-1,46
 241 1144 241 1144 247 1199.5 c 128,-1,47
 253 1255 253 1255 253 1286 c 0,48,49
 253 1309 253 1309 248 1322.5 c 128,-1,50
 243 1336 243 1336 235 1342.5 c 128,-1,51
 227 1349 227 1349 218 1351 c 128,-1,52
 209 1353 209 1353 200 1353 c 256,53,54
 191 1353 191 1353 175.5 1348.5 c 128,-1,55
 160 1344 160 1344 145 1339 c 0,56,57
 127 1333 127 1333 108 1326 c 1,58,-1
 91 1395 l 1,59,60
 136 1417 136 1417 192 1439 c 128,-1,61
 248 1461 248 1461 300 1479 c 128,-1,62
 352 1497 352 1497 394 1508.5 c 128,-1,63
 436 1520 436 1520 454 1520 c 0,64,65
 488 1520 488 1520 499.5 1502 c 128,-1,66
 511 1484 511 1484 511 1438 c 0,67,68
 511 1395 511 1395 501.5 1317 c 128,-1,69
 492 1239 492 1239 478 1141.5 c 128,-1,70
 464 1044 464 1044 446 935 c 128,-1,71
 428 826 428 826 412 721 c 1,72,73
 462 787 462 787 508 828.5 c 128,-1,74
 554 870 554 870 595.5 894 c 128,-1,75
 637 918 637 918 672.5 927 c 128,-1,76
 708 936 708 936 736 936 c 0,77,78
 784 937 784 937 825.5 915.5 c 128,-1,79
 867 894 867 894 898 852.5 c 128,-1,80
 929 811 929 811 947 750 c 128,-1,81
 965 689 965 689 964 610 c 0,26,27
EndSplineSet
EndChar

StartChar: c
Encoding: 99 99 70
Width: 873
GlyphClass: 2
Flags: W
AnchorPoint: "Anchor-4" 961 870 basechar 0
AnchorPoint: "Anchor-3" 436 -100 basechar 0
AnchorPoint: "Anchor-2" 409 0 basechar 0
AnchorPoint: "Anchor-1" 436 -100 basechar 0
AnchorPoint: "Anchor-0" 586 1000 basechar 0
LayerCount: 2
Fore
SplineSet
906 823 m 1,0,1
 885 802 885 802 856 775.5 c 128,-1,2
 827 749 827 749 797 725 c 128,-1,3
 767 701 767 701 740 685 c 128,-1,4
 713 669 713 669 697 669 c 256,5,6
 681 669 681 669 664.5 688.5 c 128,-1,7
 648 708 648 708 628.5 731.5 c 128,-1,8
 609 755 609 755 585.5 774.5 c 128,-1,9
 562 794 562 794 533 794 c 0,10,11
 479 794 479 794 436.5 757 c 128,-1,12
 394 720 394 720 365.5 661.5 c 128,-1,13
 337 603 337 603 322 530.5 c 128,-1,14
 307 458 307 458 307 388 c 0,15,16
 307 323 307 323 317.5 272.5 c 128,-1,17
 328 222 328 222 347.5 186.5 c 128,-1,18
 367 151 367 151 393 132.5 c 128,-1,19
 419 114 419 114 451 114 c 0,20,21
 505 114 505 114 580.5 153.5 c 128,-1,22
 656 193 656 193 764 281 c 1,23,24
 768 276 768 276 775 265.5 c 128,-1,25
 782 255 782 255 790 244 c 128,-1,26
 798 233 798 233 804.5 223.5 c 128,-1,27
 811 214 811 214 813 210 c 1,28,29
 735 139 735 139 670 90.5 c 128,-1,30
 605 42 605 42 549.5 13 c 128,-1,31
 494 -16 494 -16 446 -28.5 c 128,-1,32
 398 -41 398 -41 353 -41 c 0,33,34
 311 -41 311 -41 261.5 -24 c 128,-1,35
 212 -7 212 -7 169.5 35 c 128,-1,36
 127 77 127 77 99 147 c 128,-1,37
 71 217 71 217 71 322 c 0,38,39
 71 389 71 389 85 458 c 128,-1,40
 99 527 99 527 130.5 592.5 c 128,-1,41
 162 658 162 658 212.5 718 c 128,-1,42
 263 778 263 778 337 827 c 0,43,44
 365 845 365 845 402 864.5 c 128,-1,45
 439 884 439 884 481 900 c 128,-1,46
 523 916 523 916 567 926 c 128,-1,47
 611 936 611 936 653 936 c 0,48,49
 697 936 697 936 732 921.5 c 128,-1,50
 767 907 767 907 796.5 888 c 128,-1,51
 826 869 826 869 852.5 850.5 c 128,-1,52
 879 832 879 832 906 823 c 1,0,1
EndSplineSet
EndChar

StartChar: d
Encoding: 100 100 71
Width: 1018
GlyphClass: 2
Flags: W
AnchorPoint: "Anchor-4" 1085 870 basechar 0
AnchorPoint: "Anchor-3" 399 -100 basechar 0
AnchorPoint: "Anchor-2" 730 0 basechar 0
AnchorPoint: "Anchor-1" 399 -100 basechar 0
AnchorPoint: "Anchor-0" 326 1000 basechar 0
LayerCount: 2
Fore
SplineSet
589 381 m 1,0,1
 598 447 598 447 612 533.5 c 128,-1,2
 626 620 626 620 641 716 c 1,3,4
 613 746 613 746 581 770 c 128,-1,5
 549 794 549 794 512 794 c 0,6,7
 470 794 470 794 435.5 774 c 128,-1,8
 401 754 401 754 373.5 721.5 c 128,-1,9
 346 689 346 689 325.5 646 c 128,-1,10
 305 603 305 603 291.5 557 c 128,-1,11
 278 511 278 511 271.5 464.5 c 128,-1,12
 265 418 265 418 265 379 c 0,13,14
 265 267 265 267 296 211.5 c 128,-1,15
 327 156 327 156 369 156 c 0,16,17
 383 156 383 156 404 168 c 128,-1,18
 425 180 425 180 453 206.5 c 128,-1,19
 481 233 481 233 515 276 c 128,-1,20
 549 319 549 319 589 381 c 1,0,1
988 104 m 1,21,22
 946 75 946 75 904.5 49 c 128,-1,23
 863 23 863 23 827 3 c 128,-1,24
 791 -17 791 -17 761 -29 c 128,-1,25
 731 -41 731 -41 711 -41 c 0,26,27
 694 -41 694 -41 673 -29 c 128,-1,28
 652 -17 652 -17 632.5 11.5 c 128,-1,29
 613 40 613 40 598.5 86.5 c 128,-1,30
 584 133 584 133 579 201 c 1,31,32
 498 84 498 84 418 21.5 c 128,-1,33
 338 -41 338 -41 269 -41 c 0,34,35
 230 -41 230 -41 189 -20.5 c 128,-1,36
 148 0 148 0 114.5 43.5 c 128,-1,37
 81 87 81 87 59.5 154.5 c 128,-1,38
 38 222 38 222 38 315 c 0,39,40
 38 394 38 394 57.5 468.5 c 128,-1,41
 77 543 77 543 114.5 610.5 c 128,-1,42
 152 678 152 678 206.5 736.5 c 128,-1,43
 261 795 261 795 332 842 c 0,44,45
 360 860 360 860 394 876.5 c 128,-1,46
 428 893 428 893 465 906.5 c 128,-1,47
 502 920 502 920 540.5 928 c 128,-1,48
 579 936 579 936 615 936 c 0,49,50
 628 936 628 936 642.5 930.5 c 128,-1,51
 657 925 657 925 673 916 c 1,52,53
 682 975 682 975 690 1030.5 c 128,-1,54
 698 1086 698 1086 704 1134 c 128,-1,55
 710 1182 710 1182 713.5 1221 c 128,-1,56
 717 1260 717 1260 717 1286 c 0,57,58
 717 1309 717 1309 713.5 1322.5 c 128,-1,59
 710 1336 710 1336 703.5 1342.5 c 128,-1,60
 697 1349 697 1349 689 1351 c 128,-1,61
 681 1353 681 1353 672 1353 c 256,62,63
 663 1353 663 1353 646.5 1348.5 c 128,-1,64
 630 1344 630 1344 613 1339 c 0,65,66
 594 1333 594 1333 572 1326 c 1,67,-1
 556 1395 l 1,68,69
 607 1419 607 1419 660.5 1442 c 128,-1,70
 714 1465 714 1465 762 1482 c 128,-1,71
 810 1499 810 1499 847.5 1509.5 c 128,-1,72
 885 1520 885 1520 903 1520 c 0,73,74
 937 1520 937 1520 955 1502 c 128,-1,75
 973 1484 973 1484 973 1438 c 0,76,77
 973 1399 973 1399 966 1337.5 c 128,-1,78
 959 1276 959 1276 947.5 1200.5 c 128,-1,79
 936 1125 936 1125 921.5 1039 c 128,-1,80
 907 953 907 953 891.5 866 c 128,-1,81
 876 779 876 779 861.5 694.5 c 128,-1,82
 847 610 847 610 835.5 536.5 c 128,-1,83
 824 463 824 463 817 405.5 c 128,-1,84
 810 348 810 348 810 314 c 0,85,86
 810 229 810 229 825 187.5 c 128,-1,87
 840 146 840 146 863 146 c 0,88,89
 889 146 889 146 912.5 151.5 c 128,-1,90
 936 157 936 157 971 172 c 1,91,-1
 988 104 l 1,21,22
EndSplineSet
EndChar

StartChar: e
Encoding: 101 101 72
Width: 865
GlyphClass: 2
Flags: W
AnchorPoint: "Anchor-4" 1032 870 basechar 0
AnchorPoint: "Anchor-3" 438 0 basechar 0
AnchorPoint: "Anchor-2" 388 0 basechar 0
AnchorPoint: "Anchor-1" 374 -100 basechar 0
AnchorPoint: "Anchor-0" 540 1000 basechar 0
LayerCount: 2
Fore
SplineSet
399 737 m 0,0,1
 349 679 349 679 317.5 605.5 c 128,-1,2
 286 532 286 532 281 435 c 1,3,4
 380 479 380 479 438.5 515 c 128,-1,5
 497 551 497 551 527 583 c 128,-1,6
 557 615 557 615 566 645 c 128,-1,7
 575 675 575 675 575 708 c 0,8,9
 575 754 575 754 554.5 777.5 c 128,-1,10
 534 801 534 801 506 801 c 0,11,12
 498 801 498 801 485 796.5 c 128,-1,13
 472 792 472 792 457 784 c 128,-1,14
 442 776 442 776 426.5 764 c 128,-1,15
 411 752 411 752 399 737 c 0,0,1
825 760 m 0,16,17
 825 732 825 732 818.5 701 c 128,-1,18
 812 670 812 670 792.5 636 c 128,-1,19
 773 602 773 602 736.5 564.5 c 128,-1,20
 700 527 700 527 640 487.5 c 128,-1,21
 580 448 580 448 493 406 c 128,-1,22
 406 364 406 364 285 321 c 1,23,24
 292 273 292 273 306 234.5 c 128,-1,25
 320 196 320 196 339.5 169.5 c 128,-1,26
 359 143 359 143 382 128.5 c 128,-1,27
 405 114 405 114 430 114 c 0,28,29
 473 114 473 114 554 153 c 128,-1,30
 635 192 635 192 756 289 c 1,31,32
 762 286 762 286 769 276 c 128,-1,33
 776 266 776 266 783 254.5 c 128,-1,34
 790 243 790 243 795 232.5 c 128,-1,35
 800 222 800 222 802 218 c 1,36,37
 720 147 720 147 653.5 97.5 c 128,-1,38
 587 48 587 48 531 17 c 128,-1,39
 475 -14 475 -14 427.5 -27.5 c 128,-1,40
 380 -41 380 -41 335 -41 c 0,41,42
 294 -41 294 -41 244 -22.5 c 128,-1,43
 194 -4 194 -4 150.5 36.5 c 128,-1,44
 107 77 107 77 77.5 142.5 c 128,-1,45
 48 208 48 208 48 303 c 0,46,47
 48 381 48 381 67 452.5 c 128,-1,48
 86 524 86 524 121.5 589 c 128,-1,49
 157 654 157 654 207 712.5 c 128,-1,50
 257 771 257 771 320 824 c 0,51,52
 342 843 342 843 375 862.5 c 128,-1,53
 408 882 408 882 446 898.5 c 128,-1,54
 484 915 484 915 525 925.5 c 128,-1,55
 566 936 566 936 605 936 c 0,56,57
 662 936 662 936 703.5 920.5 c 128,-1,58
 745 905 745 905 772 880 c 128,-1,59
 799 855 799 855 812 823.5 c 128,-1,60
 825 792 825 792 825 760 c 0,16,17
EndSplineSet
EndChar

StartChar: f
Encoding: 102 102 73
Width: 657
GlyphClass: 2
Flags: W
AnchorPoint: "Anchor-4" 657 870 basechar 0
AnchorPoint: "Anchor-3" 366 -100 basechar 0
AnchorPoint: "Anchor-2" -50 -450 basechar 0
AnchorPoint: "Anchor-1" 366 -100 basechar 0
AnchorPoint: "Anchor-0" 609 1640 basechar 0
LayerCount: 2
Fore
SplineSet
1016 1396 m 1,0,1
 995 1381 995 1381 961.5 1354 c 128,-1,2
 928 1327 928 1327 894 1301.5 c 128,-1,3
 860 1276 860 1276 831 1257 c 128,-1,4
 802 1238 802 1238 790 1238 c 0,5,6
 774 1238 774 1238 758.5 1256.5 c 128,-1,7
 743 1275 743 1275 725.5 1297.5 c 128,-1,8
 708 1320 708 1320 687.5 1338.5 c 128,-1,9
 667 1357 667 1357 641 1357 c 0,10,11
 599 1357 599 1357 570 1317.5 c 128,-1,12
 541 1278 541 1278 521.5 1218 c 128,-1,13
 502 1158 502 1158 491 1087 c 128,-1,14
 480 1016 480 1016 473 952 c 1,15,-1
 467 905 l 1,16,-1
 716 905 l 1,17,-1
 743 870 l 1,18,19
 733 856 733 856 713.5 836 c 128,-1,20
 694 816 694 816 672.5 796.5 c 128,-1,21
 651 777 651 777 631 761 c 128,-1,22
 611 745 611 745 601 740 c 1,23,24
 590 768 590 768 558.5 776.5 c 128,-1,25
 527 785 527 785 463 785 c 2,26,-1
 453 785 l 1,27,-1
 385 193 l 2,28,29
 372 83 372 83 328.5 -19.5 c 128,-1,30
 285 -122 285 -122 223.5 -210.5 c 128,-1,31
 162 -299 162 -299 88.5 -369.5 c 128,-1,32
 15 -440 15 -440 -59 -485 c 1,33,-1
 -100 -400 l 1,34,35
 -50 -372 -50 -372 -9.5 -315 c 128,-1,36
 31 -258 31 -258 61.5 -184.5 c 128,-1,37
 92 -111 92 -111 112 -27 c 128,-1,38
 132 57 132 57 141 139 c 2,39,-1
 216 785 l 1,40,-1
 76 785 l 1,41,-1
 53 824 l 1,42,-1
 184 905 l 1,43,-1
 229 905 l 1,44,45
 239 985 239 985 257.5 1059 c 128,-1,46
 276 1133 276 1133 306 1199 c 128,-1,47
 336 1265 336 1265 381 1322.5 c 128,-1,48
 426 1380 426 1380 489 1427 c 1,49,50
 543 1466 543 1466 600 1493 c 128,-1,51
 657 1520 657 1520 719 1520 c 0,52,53
 768 1520 768 1520 815 1502.5 c 128,-1,54
 862 1485 862 1485 901.5 1463 c 128,-1,55
 941 1441 941 1441 971 1421 c 128,-1,56
 1001 1401 1001 1401 1016 1396 c 1,0,1
EndSplineSet
EndChar

StartChar: g
Encoding: 103 103 74
Width: 961
GlyphClass: 2
Flags: W
AnchorPoint: "Anchor-4" 1072 870 basechar 0
AnchorPoint: "Anchor-3" 321 -600 basechar 0
AnchorPoint: "Anchor-2" 333 -450 basechar 0
AnchorPoint: "Anchor-1" 321 -600 basechar 0
AnchorPoint: "Anchor-0" 540 1000 basechar 0
LayerCount: 2
Fore
SplineSet
944 871 m 1,0,1
 910 843 910 843 890.5 802 c 128,-1,2
 871 761 871 761 862 689 c 0,3,4
 848 570 848 570 842 477 c 128,-1,5
 836 384 836 384 832 303.5 c 128,-1,6
 828 223 828 223 822 150.5 c 128,-1,7
 816 78 816 78 802 1 c 0,8,9
 790 -68 790 -68 760.5 -132 c 128,-1,10
 731 -196 731 -196 689 -252 c 128,-1,11
 647 -308 647 -308 596.5 -353.5 c 128,-1,12
 546 -399 546 -399 491 -431.5 c 128,-1,13
 436 -464 436 -464 379.5 -482 c 128,-1,14
 323 -500 323 -500 271 -500 c 0,15,16
 221 -500 221 -500 169 -489 c 128,-1,17
 117 -478 117 -478 75 -461 c 128,-1,18
 33 -444 33 -444 6.5 -424.5 c 128,-1,19
 -20 -405 -20 -405 -20 -387 c 0,20,21
 -20 -376 -20 -376 -11 -359 c 128,-1,22
 -2 -342 -2 -342 12 -323.5 c 128,-1,23
 26 -305 26 -305 42.5 -286 c 128,-1,24
 59 -267 59 -267 74.5 -252.5 c 128,-1,25
 90 -238 90 -238 102 -228.5 c 128,-1,26
 114 -219 114 -219 118 -219 c 0,27,28
 130 -219 130 -219 147 -236 c 128,-1,29
 164 -253 164 -253 192 -274 c 128,-1,30
 220 -295 220 -295 261.5 -312 c 128,-1,31
 303 -329 303 -329 362 -329 c 0,32,33
 399 -329 399 -329 430.5 -316 c 128,-1,34
 462 -303 462 -303 487.5 -271 c 128,-1,35
 513 -239 513 -239 533 -185 c 128,-1,36
 553 -131 553 -131 568 -48 c 1,37,38
 582 36 582 36 587.5 105 c 128,-1,39
 593 174 593 174 596 240 c 1,40,41
 556 180 556 180 514.5 129 c 128,-1,42
 473 78 473 78 430.5 40 c 128,-1,43
 388 2 388 2 345 -19.5 c 128,-1,44
 302 -41 302 -41 259 -41 c 0,45,46
 226 -41 226 -41 186 -22 c 128,-1,47
 146 -3 146 -3 111 38.5 c 128,-1,48
 76 80 76 80 52.5 145.5 c 128,-1,49
 29 211 29 211 29 305 c 0,50,51
 29 464 29 464 104.5 603.5 c 128,-1,52
 180 743 180 743 329 842 c 0,53,54
 385 879 385 879 459.5 907.5 c 128,-1,55
 534 936 534 936 625 936 c 0,56,57
 663 936 663 936 705 914.5 c 128,-1,58
 747 893 747 893 785 869 c 1,59,60
 819 891 819 891 851 907 c 2,61,-1
 909 936 l 1,62,-1
 944 871 l 1,0,1
361 156 m 0,63,64
 373 156 373 156 395 169.5 c 128,-1,65
 417 183 417 183 448 215 c 128,-1,66
 479 247 479 247 518.5 299 c 128,-1,67
 558 351 558 351 604 428 c 1,68,69
 608 482 608 482 614 541.5 c 128,-1,70
 620 601 620 601 631 672 c 0,71,72
 634 694 634 694 643 715 c 1,73,74
 611 745 611 745 576.5 769.5 c 128,-1,75
 542 794 542 794 510 794 c 0,76,77
 468 794 468 794 433 774 c 128,-1,78
 398 754 398 754 370 721.5 c 128,-1,79
 342 689 342 689 321 646 c 128,-1,80
 300 603 300 603 286 557 c 128,-1,81
 272 511 272 511 265 464.5 c 128,-1,82
 258 418 258 418 258 379 c 0,83,84
 258 267 258 267 287.5 211.5 c 128,-1,85
 317 156 317 156 361 156 c 0,63,64
EndSplineSet
Substitution2: "'aalt' Access All Alternates lookup 7 subtable" g.SngBowl
EndChar

StartChar: h
Encoding: 104 104 75
Width: 1076
GlyphClass: 2
Flags: W
AnchorPoint: "Anchor-4" 1076 870 basechar 0
AnchorPoint: "Anchor-3" 456 -100 basechar 0
AnchorPoint: "Anchor-2" 154 0 basechar 0
AnchorPoint: "Anchor-1" 456 -100 basechar 0
AnchorPoint: "Anchor-0" 689 1580 basechar 0
LayerCount: 2
Fore
SplineSet
1048 110 m 1,0,1
 1002 83 1002 83 952 56 c 128,-1,2
 902 29 902 29 854.5 7.5 c 128,-1,3
 807 -14 807 -14 766.5 -27.5 c 128,-1,4
 726 -41 726 -41 698 -41 c 0,5,6
 669 -41 669 -41 646 -9.5 c 128,-1,7
 623 22 623 22 623 76 c 0,8,9
 623 94 623 94 629 136.5 c 128,-1,10
 635 179 635 179 644 234 c 128,-1,11
 653 289 653 289 663 351 c 128,-1,12
 673 413 673 413 682 469.5 c 128,-1,13
 691 526 691 526 697 572 c 128,-1,14
 703 618 703 618 703 640 c 0,15,16
 703 672 703 672 700 692.5 c 128,-1,17
 697 713 697 713 691 725 c 128,-1,18
 685 737 685 737 675.5 741.5 c 128,-1,19
 666 746 666 746 653 746 c 256,20,21
 640 746 640 746 616 738 c 128,-1,22
 592 730 592 730 562.5 711.5 c 128,-1,23
 533 693 533 693 500.5 661.5 c 128,-1,24
 468 630 468 630 440 582 c 256,25,26
 412 534 412 534 393 462.5 c 128,-1,27
 374 391 374 391 360 301 c 0,28,29
 351 246 351 246 346 208 c 128,-1,30
 341 170 341 170 339 143 c 128,-1,31
 337 116 337 116 336.5 97.5 c 128,-1,32
 336 79 336 79 337 63 c 1,33,34
 324 56 324 56 292 41.5 c 128,-1,35
 260 27 260 27 224 11 c 128,-1,36
 188 -5 188 -5 156 -19.5 c 128,-1,37
 124 -34 124 -34 112 -41 c 1,38,-1
 71 -3 l 1,39,40
 80 51 80 51 93 128 c 128,-1,41
 106 205 106 205 121 295.5 c 128,-1,42
 136 386 136 386 152 486 c 128,-1,43
 168 586 168 586 183.5 685.5 c 128,-1,44
 199 785 199 785 212.5 879 c 128,-1,45
 226 973 226 973 236.5 1053 c 128,-1,46
 247 1133 247 1133 253 1193.5 c 128,-1,47
 259 1254 259 1254 259 1286 c 0,48,49
 259 1309 259 1309 255.5 1322.5 c 128,-1,50
 252 1336 252 1336 246.5 1342.5 c 128,-1,51
 241 1349 241 1349 233.5 1351 c 128,-1,52
 226 1353 226 1353 218 1353 c 0,53,54
 208 1353 208 1353 190.5 1348.5 c 128,-1,55
 173 1344 173 1344 155 1339 c 0,56,57
 134 1333 134 1333 110 1326 c 1,58,-1
 94 1395 l 1,59,60
 136 1414 136 1414 190 1435.5 c 128,-1,61
 244 1457 244 1457 295.5 1476 c 128,-1,62
 347 1495 347 1495 389.5 1507.5 c 128,-1,63
 432 1520 432 1520 451 1520 c 0,64,65
 479 1520 479 1520 498 1502 c 128,-1,66
 517 1484 517 1484 517 1438 c 0,67,68
 517 1414 517 1414 511.5 1362 c 128,-1,69
 506 1310 506 1310 496.5 1242.5 c 128,-1,70
 487 1175 487 1175 476 1099 c 128,-1,71
 465 1023 465 1023 453.5 951.5 c 128,-1,72
 442 880 442 880 432.5 819.5 c 128,-1,73
 423 759 423 759 417 723 c 1,74,75
 534 839 534 839 637.5 887.5 c 128,-1,76
 741 936 741 936 830 936 c 0,77,78
 861 936 861 936 885.5 929 c 128,-1,79
 910 922 910 922 926 904 c 128,-1,80
 942 886 942 886 950.5 854.5 c 128,-1,81
 959 823 959 823 959 775 c 0,82,83
 959 740 959 740 953 692 c 128,-1,84
 947 644 947 644 937.5 589.5 c 128,-1,85
 928 535 928 535 917.5 478.5 c 128,-1,86
 907 422 907 422 897.5 370 c 128,-1,87
 888 318 888 318 882 274.5 c 128,-1,88
 876 231 876 231 876 203 c 0,89,90
 876 169 876 169 885 156.5 c 128,-1,91
 894 144 894 144 912 144 c 0,92,93
 940 144 940 144 962.5 152.5 c 128,-1,94
 985 161 985 161 1022 177 c 1,95,-1
 1048 110 l 1,0,1
EndSplineSet
EndChar

StartChar: i
Encoding: 105 105 76
Width: 568
GlyphClass: 2
Flags: W
AnchorPoint: "Anchor-4" 739 870 basechar 0
AnchorPoint: "Anchor-3" 280 0 basechar 0
AnchorPoint: "Anchor-2" 240 0 basechar 0
AnchorPoint: "Anchor-1" 238 -100 basechar 0
AnchorPoint: "Anchor-0" 389 1000 basechar 0
LayerCount: 2
Fore
SplineSet
538 110 m 1,0,1
 491 82 491 82 442 55 c 128,-1,2
 393 28 393 28 347.5 6.5 c 128,-1,3
 302 -15 302 -15 262.5 -28 c 128,-1,4
 223 -41 223 -41 195 -41 c 0,5,6
 161 -41 161 -41 137.5 -9.5 c 128,-1,7
 114 22 114 22 114 76 c 0,8,9
 114 106 114 106 121 157 c 128,-1,10
 128 208 128 208 138 269 c 128,-1,11
 148 330 148 330 160 396 c 128,-1,12
 172 462 172 462 182 521.5 c 128,-1,13
 192 581 192 581 199 628 c 128,-1,14
 206 675 206 675 206 700 c 0,15,16
 206 723 206 723 203 736.5 c 128,-1,17
 200 750 200 750 195 756.5 c 128,-1,18
 190 763 190 763 182 765 c 128,-1,19
 174 767 174 767 165 767 c 0,20,21
 157 767 157 767 141.5 763.5 c 128,-1,22
 126 760 126 760 111 755 c 0,23,24
 93 750 93 750 73 743 c 1,25,-1
 55 810 l 1,26,27
 97 829 97 829 150 851 c 128,-1,28
 203 873 203 873 253.5 892 c 128,-1,29
 304 911 304 911 345 923.5 c 128,-1,30
 386 936 386 936 405 936 c 0,31,32
 433 936 433 936 448.5 917 c 128,-1,33
 464 898 464 898 464 852 c 0,34,35
 464 823 464 823 457 771.5 c 128,-1,36
 450 720 450 720 439 657.5 c 128,-1,37
 428 595 428 595 415.5 527.5 c 128,-1,38
 403 460 403 460 392 397.5 c 128,-1,39
 381 335 381 335 374 283.5 c 128,-1,40
 367 232 367 232 367 203 c 0,41,42
 367 172 367 172 373.5 158 c 128,-1,43
 380 144 380 144 397 144 c 0,44,45
 412 144 412 144 425.5 146 c 128,-1,46
 439 148 439 148 453 152 c 128,-1,47
 467 156 467 156 482.5 162 c 128,-1,48
 498 168 498 168 519 177 c 1,49,-1
 538 110 l 1,0,1
561 1262 m 0,50,51
 561 1234 561 1234 549.5 1204 c 128,-1,52
 538 1174 538 1174 515.5 1149 c 128,-1,53
 493 1124 493 1124 460.5 1107.5 c 128,-1,54
 428 1091 428 1091 385 1091 c 0,55,56
 332 1091 332 1091 307.5 1116.5 c 128,-1,57
 283 1142 283 1142 283 1176 c 0,58,59
 283 1203 283 1203 294.5 1233 c 128,-1,60
 306 1263 306 1263 328.5 1288.5 c 128,-1,61
 351 1314 351 1314 383.5 1331 c 128,-1,62
 416 1348 416 1348 458 1348 c 0,63,64
 511 1348 511 1348 536 1322 c 128,-1,65
 561 1296 561 1296 561 1262 c 0,50,51
EndSplineSet
Substitution2: "Single Substitution lookup 1 subtable" i.Dotless
EndChar

StartChar: j
Encoding: 106 106 77
Width: 564
GlyphClass: 2
Flags: W
AnchorPoint: "Anchor-4" 564 870 basechar 0
AnchorPoint: "Anchor-3" 140 -600 basechar 0
AnchorPoint: "Anchor-2" 140 -600 basechar 0
AnchorPoint: "Anchor-1" 140 -600 basechar 0
AnchorPoint: "Anchor-0" 359 1000 basechar 0
LayerCount: 2
Fore
SplineSet
454 870 m 0,0,1
 454 859 454 859 451.5 831.5 c 128,-1,2
 449 804 449 804 445 767 c 128,-1,3
 441 730 441 730 436.5 687.5 c 128,-1,4
 432 645 432 645 427.5 604.5 c 128,-1,5
 423 564 423 564 419 529.5 c 128,-1,6
 415 495 415 495 413 473 c 0,7,8
 405 404 405 404 395 309 c 128,-1,9
 385 214 385 214 366 89 c 0,10,11
 350 -11 350 -11 317.5 -89 c 128,-1,12
 285 -167 285 -167 244.5 -227.5 c 128,-1,13
 204 -288 204 -288 159 -332.5 c 128,-1,14
 114 -377 114 -377 73 -409 c 0,15,16
 18 -452 18 -452 -49 -476 c 128,-1,17
 -116 -500 -116 -500 -174 -500 c 0,18,19
 -216 -500 -216 -500 -256 -488.5 c 128,-1,20
 -296 -477 -296 -477 -327 -461 c 128,-1,21
 -358 -445 -358 -445 -377 -428.5 c 128,-1,22
 -396 -412 -396 -412 -396 -402 c 0,23,24
 -396 -389 -396 -389 -378 -361 c 128,-1,25
 -360 -333 -360 -333 -336 -305 c 128,-1,26
 -312 -277 -312 -277 -289 -255.5 c 128,-1,27
 -266 -234 -266 -234 -256 -234 c 0,28,29
 -245 -234 -245 -234 -227 -249 c 128,-1,30
 -209 -264 -209 -264 -185 -282.5 c 128,-1,31
 -161 -301 -161 -301 -131 -316 c 128,-1,32
 -101 -331 -101 -331 -65 -331 c 0,33,34
 -25 -331 -25 -331 2 -312.5 c 128,-1,35
 29 -294 29 -294 48.5 -253.5 c 128,-1,36
 68 -213 68 -213 83 -148 c 128,-1,37
 98 -83 98 -83 113 11 c 0,38,39
 125 85 125 85 134.5 152 c 128,-1,40
 144 219 144 219 151.5 276 c 128,-1,41
 159 333 159 333 164 377.5 c 128,-1,42
 169 422 169 422 172 451 c 0,43,44
 175 475 175 475 178.5 511 c 128,-1,45
 182 547 182 547 185 583.5 c 128,-1,46
 188 620 188 620 190 652 c 128,-1,47
 192 684 192 684 192 700 c 0,48,49
 192 723 192 723 189 736.5 c 128,-1,50
 186 750 186 750 180.5 756.5 c 128,-1,51
 175 763 175 763 167.5 765 c 128,-1,52
 160 767 160 767 151 767 c 256,53,54
 142 767 142 767 126.5 763.5 c 128,-1,55
 111 760 111 760 96 755 c 0,56,57
 78 750 78 750 59 743 c 1,58,-1
 40 810 l 1,59,60
 82 829 82 829 135.5 851 c 128,-1,61
 189 873 189 873 239.5 892 c 128,-1,62
 290 911 290 911 331 923.5 c 128,-1,63
 372 936 372 936 390 936 c 0,64,65
 418 936 418 936 436 924 c 128,-1,66
 454 912 454 912 454 870 c 0,0,1
535 1262 m 0,67,68
 535 1234 535 1234 523.5 1204 c 128,-1,69
 512 1174 512 1174 489.5 1149 c 128,-1,70
 467 1124 467 1124 434.5 1107.5 c 128,-1,71
 402 1091 402 1091 359 1091 c 0,72,73
 306 1091 306 1091 281.5 1116.5 c 128,-1,74
 257 1142 257 1142 257 1176 c 0,75,76
 257 1203 257 1203 268.5 1233 c 128,-1,77
 280 1263 280 1263 302.5 1288.5 c 128,-1,78
 325 1314 325 1314 358 1331 c 128,-1,79
 391 1348 391 1348 433 1348 c 0,80,81
 486 1348 486 1348 510.5 1322 c 128,-1,82
 535 1296 535 1296 535 1262 c 0,67,68
EndSplineSet
Substitution2: "Single Substitution lookup 1 subtable" j.Dotless
EndChar

StartChar: k
Encoding: 107 107 78
Width: 1004
GlyphClass: 2
Flags: W
AnchorPoint: "Anchor-4" 1136 870 basechar 0
AnchorPoint: "Anchor-3" 436 -100 basechar 0
AnchorPoint: "Anchor-2" 185 0 basechar 0
AnchorPoint: "Anchor-1" 436 -100 basechar 0
AnchorPoint: "Anchor-0" 670 1580 basechar 0
LayerCount: 2
Fore
SplineSet
515 1417 m 0,0,1
 515 1378 515 1378 509 1320 c 128,-1,2
 503 1262 503 1262 493.5 1191 c 128,-1,3
 484 1120 484 1120 471 1038.5 c 128,-1,4
 458 957 458 957 444 871.5 c 128,-1,5
 430 786 430 786 415.5 698.5 c 128,-1,6
 401 611 401 611 388 529 c 1,7,-1
 558 655 l 2,8,9
 627 706 627 706 668.5 740.5 c 128,-1,10
 710 775 710 775 720 795 c 128,-1,11
 730 815 730 815 707 822.5 c 128,-1,12
 684 830 684 830 626 828 c 1,13,-1
 618 897 l 1,14,15
 699 909 699 909 778.5 919.5 c 128,-1,16
 858 930 858 930 921 930 c 0,17,18
 980 930 980 930 999.5 912.5 c 128,-1,19
 1019 895 1019 895 1019 861 c 0,20,21
 1019 846 1019 846 997.5 820 c 128,-1,22
 976 794 976 794 934.5 759.5 c 128,-1,23
 893 725 893 725 834 683.5 c 128,-1,24
 775 642 775 642 700 596 c 2,25,-1
 575 519 l 1,26,27
 600 491 600 491 624 452.5 c 128,-1,28
 648 414 648 414 671 372 c 128,-1,29
 694 330 694 330 716 289.5 c 128,-1,30
 738 249 738 249 759 216.5 c 128,-1,31
 780 184 780 184 800.5 164 c 128,-1,32
 821 144 821 144 841 144 c 0,33,34
 864 144 864 144 898 150 c 128,-1,35
 932 156 932 156 970 177 c 1,36,-1
 1002 113 l 1,37,38
 969 85 969 85 931 58 c 128,-1,39
 893 31 893 31 856 9.5 c 128,-1,40
 819 -12 819 -12 786 -25.5 c 128,-1,41
 753 -39 753 -39 731 -39 c 0,42,43
 697 -39 697 -39 665.5 -9 c 128,-1,44
 634 21 634 21 603.5 68 c 128,-1,45
 573 115 573 115 544 173.5 c 128,-1,46
 515 232 515 232 487 289.5 c 128,-1,47
 459 347 459 347 432.5 397 c 128,-1,48
 406 447 406 447 380 478 c 1,49,50
 369 403 369 403 360 336.5 c 128,-1,51
 351 270 351 270 345.5 216 c 128,-1,52
 340 162 340 162 339.5 123 c 128,-1,53
 339 84 339 84 345 65 c 1,54,55
 331 58 331 58 298 43 c 128,-1,56
 265 28 265 28 228 11.5 c 128,-1,57
 191 -5 191 -5 158.5 -19.5 c 128,-1,58
 126 -34 126 -34 114 -41 c 1,59,-1
 71 -3 l 1,60,61
 75 26 75 26 85 88.5 c 128,-1,62
 95 151 95 151 109 235 c 128,-1,63
 123 319 123 319 139.5 419 c 128,-1,64
 156 519 156 519 172.5 623 c 128,-1,65
 189 727 189 727 204.5 828.5 c 128,-1,66
 220 930 220 930 232 1018.5 c 128,-1,67
 244 1107 244 1107 251.5 1176 c 128,-1,68
 259 1245 259 1245 259 1283 c 0,69,70
 259 1308 259 1308 256 1322 c 128,-1,71
 253 1336 253 1336 247 1343 c 128,-1,72
 241 1350 241 1350 232 1351.5 c 128,-1,73
 223 1353 223 1353 211 1353 c 0,74,75
 203 1353 203 1353 186 1348.5 c 128,-1,76
 169 1344 169 1344 152 1339 c 0,77,78
 132 1333 132 1333 110 1326 c 1,79,-1
 92 1395 l 1,80,81
 134 1414 134 1414 189.5 1435.5 c 128,-1,82
 245 1457 245 1457 298 1476 c 128,-1,83
 351 1495 351 1495 394.5 1507.5 c 128,-1,84
 438 1520 438 1520 456 1520 c 0,85,86
 470 1520 470 1520 481 1517 c 128,-1,87
 492 1514 492 1514 499.5 1503.5 c 128,-1,88
 507 1493 507 1493 511 1472.5 c 128,-1,89
 515 1452 515 1452 515 1417 c 0,0,1
EndSplineSet
EndChar

StartChar: l
Encoding: 108 108 79
Width: 547
GlyphClass: 2
Flags: W
AnchorPoint: "Anchor-4" 633 870 basechar 0
AnchorPoint: "Anchor-3" 191 -100 basechar 0
AnchorPoint: "Anchor-2" 210 0 basechar 0
AnchorPoint: "Anchor-1" 191 -100 basechar 0
AnchorPoint: "Anchor-0" 436 1640 basechar 0
LayerCount: 2
Fore
SplineSet
517 110 m 1,0,1
 468 79 468 79 418 51.5 c 128,-1,2
 368 24 368 24 321 3.5 c 128,-1,3
 274 -17 274 -17 233 -29 c 128,-1,4
 192 -41 192 -41 161 -41 c 0,5,6
 133 -41 133 -41 111 -11 c 128,-1,7
 89 19 89 19 89 78 c 0,8,9
 89 103 89 103 96 160.5 c 128,-1,10
 103 218 103 218 114.5 296.5 c 128,-1,11
 126 375 126 375 141 469 c 128,-1,12
 156 563 156 563 171.5 661.5 c 128,-1,13
 187 760 187 760 202 856.5 c 128,-1,14
 217 953 217 953 228.5 1037 c 128,-1,15
 240 1121 240 1121 247 1186 c 128,-1,16
 254 1251 254 1251 254 1286 c 0,17,18
 254 1309 254 1309 249.5 1322.5 c 128,-1,19
 245 1336 245 1336 238 1342.5 c 128,-1,20
 231 1349 231 1349 221.5 1351 c 128,-1,21
 212 1353 212 1353 203 1353 c 0,22,23
 195 1353 195 1353 178.5 1348.5 c 128,-1,24
 162 1344 162 1344 146 1339 c 0,25,26
 127 1333 127 1333 106 1326 c 1,27,-1
 88 1395 l 1,28,29
 130 1414 130 1414 185 1435.5 c 128,-1,30
 240 1457 240 1457 292.5 1476 c 128,-1,31
 345 1495 345 1495 388 1507.5 c 128,-1,32
 431 1520 431 1520 450 1520 c 0,33,34
 478 1520 478 1520 494.5 1502 c 128,-1,35
 511 1484 511 1484 511 1438 c 0,36,37
 511 1399 511 1399 504 1333 c 128,-1,38
 497 1267 497 1267 485 1183.5 c 128,-1,39
 473 1100 473 1100 458.5 1004.5 c 128,-1,40
 444 909 444 909 428 811.5 c 128,-1,41
 412 714 412 714 397.5 619.5 c 128,-1,42
 383 525 383 525 371 444 c 128,-1,43
 359 363 359 363 352 300 c 128,-1,44
 345 237 345 237 345 203 c 256,45,46
 345 169 345 169 354.5 156.5 c 128,-1,47
 364 144 364 144 380 144 c 0,48,49
 403 144 403 144 430 152 c 128,-1,50
 457 160 457 160 501 177 c 1,51,-1
 517 110 l 1,0,1
EndSplineSet
EndChar

StartChar: m
Encoding: 109 109 80
Width: 1563
GlyphClass: 2
Flags: W
AnchorPoint: "Anchor-4" 1563 870 basechar 0
AnchorPoint: "Anchor-3" 705 -100 basechar 0
AnchorPoint: "Anchor-2" 685 0 basechar 0
AnchorPoint: "Anchor-1" 705 -100 basechar 0
AnchorPoint: "Anchor-0" 856 1000 basechar 0
LayerCount: 2
Fore
SplineSet
1514 110 m 1,0,1
 1468 83 1468 83 1418.5 56 c 128,-1,2
 1369 29 1369 29 1323 7.5 c 128,-1,3
 1277 -14 1277 -14 1237 -27.5 c 128,-1,4
 1197 -41 1197 -41 1170 -41 c 0,5,6
 1155 -41 1155 -41 1141.5 -33 c 128,-1,7
 1128 -25 1128 -25 1117 -9.5 c 128,-1,8
 1106 6 1106 6 1099.5 27.5 c 128,-1,9
 1093 49 1093 49 1093 76 c 0,10,11
 1093 94 1093 94 1099.5 134.5 c 128,-1,12
 1106 175 1106 175 1115 229 c 128,-1,13
 1124 283 1124 283 1135.5 344.5 c 128,-1,14
 1147 406 1147 406 1156 464.5 c 128,-1,15
 1165 523 1165 523 1171.5 574.5 c 128,-1,16
 1178 626 1178 626 1178 659 c 0,17,18
 1178 704 1178 704 1167.5 724 c 128,-1,19
 1157 744 1157 744 1139 744 c 0,20,21
 1128 744 1128 744 1109 737.5 c 128,-1,22
 1090 731 1090 731 1065.5 714.5 c 128,-1,23
 1041 698 1041 698 1012.5 670.5 c 128,-1,24
 984 643 984 643 956 600 c 0,25,26
 938 573 938 573 925 543.5 c 128,-1,27
 912 514 912 514 901 478 c 128,-1,28
 890 442 890 442 881.5 397 c 128,-1,29
 873 352 873 352 864 295 c 0,30,31
 851 204 851 204 847.5 148 c 128,-1,32
 844 92 844 92 846 63 c 1,33,34
 832 56 832 56 799.5 41.5 c 128,-1,35
 767 27 767 27 730.5 11 c 128,-1,36
 694 -5 694 -5 661.5 -19.5 c 128,-1,37
 629 -34 629 -34 616 -41 c 1,38,-1
 576 -3 l 1,39,40
 598 99 598 99 617.5 201 c 128,-1,41
 637 303 637 303 651.5 391.5 c 128,-1,42
 666 480 666 480 674.5 549 c 128,-1,43
 683 618 683 618 683 655 c 0,44,45
 683 703 683 703 672 723.5 c 128,-1,46
 661 744 661 744 639 744 c 0,47,48
 631 744 631 744 613.5 737.5 c 128,-1,49
 596 731 596 731 571.5 715 c 128,-1,50
 547 699 547 699 518 671.5 c 128,-1,51
 489 644 489 644 460 602 c 0,52,53
 442 576 442 576 428 546 c 128,-1,54
 414 516 414 516 402.5 478.5 c 128,-1,55
 391 441 391 441 382 396 c 128,-1,56
 373 351 373 351 364 295 c 0,57,58
 349 204 349 204 344 148 c 128,-1,59
 339 92 339 92 341 63 c 1,60,61
 328 56 328 56 295.5 41.5 c 128,-1,62
 263 27 263 27 227 11 c 128,-1,63
 191 -5 191 -5 159 -19.5 c 128,-1,64
 127 -34 127 -34 115 -41 c 1,65,-1
 75 -3 l 1,66,67
 96 103 96 103 115 210 c 128,-1,68
 134 317 134 317 148.5 411.5 c 128,-1,69
 163 506 163 506 171.5 581.5 c 128,-1,70
 180 657 180 657 180 700 c 0,71,72
 180 723 180 723 177 736.5 c 128,-1,73
 174 750 174 750 168.5 757.5 c 128,-1,74
 163 765 163 765 156 767 c 128,-1,75
 149 769 149 769 141 769 c 0,76,77
 131 769 131 769 115 765 c 128,-1,78
 99 761 99 761 82 756 c 0,79,80
 63 750 63 750 42 743 c 1,81,-1
 26 812 l 1,82,83
 68 830 68 830 121.5 852 c 128,-1,84
 175 874 175 874 225.5 892.5 c 128,-1,85
 276 911 276 911 317 923.5 c 128,-1,86
 358 936 358 936 376 936 c 0,87,88
 391 936 391 936 401.5 931 c 128,-1,89
 412 926 412 926 418 913.5 c 128,-1,90
 424 901 424 901 426.5 878.5 c 128,-1,91
 429 856 429 856 429 821 c 0,92,93
 429 805 429 805 426.5 777 c 128,-1,94
 424 749 424 749 421 723 c 1,95,96
 480 785 480 785 531 826 c 128,-1,97
 582 867 582 867 628 891.5 c 128,-1,98
 674 916 674 916 715.5 926 c 128,-1,99
 757 936 757 936 798 936 c 0,100,101
 835 936 835 936 861 922 c 128,-1,102
 887 908 887 908 903.5 885 c 128,-1,103
 920 862 920 862 927 831.5 c 128,-1,104
 934 801 934 801 934 768 c 0,105,106
 934 761 934 761 933.5 753 c 128,-1,107
 933 745 933 745 932 733 c 1,108,109
 990 791 990 791 1038.5 830.5 c 128,-1,110
 1087 870 1087 870 1129 893 c 128,-1,111
 1171 916 1171 916 1208.5 926 c 128,-1,112
 1246 936 1246 936 1284 936 c 0,113,114
 1313 936 1313 936 1339 926.5 c 128,-1,115
 1365 917 1365 917 1384 896 c 128,-1,116
 1403 875 1403 875 1414 841.5 c 128,-1,117
 1425 808 1425 808 1425 760 c 0,118,119
 1425 722 1425 722 1419 673.5 c 128,-1,120
 1413 625 1413 625 1404 572.5 c 128,-1,121
 1395 520 1395 520 1384.5 466 c 128,-1,122
 1374 412 1374 412 1365 363 c 128,-1,123
 1356 314 1356 314 1350 272.5 c 128,-1,124
 1344 231 1344 231 1344 203 c 0,125,126
 1344 169 1344 169 1354 157.5 c 128,-1,127
 1364 146 1364 146 1381 146 c 0,128,129
 1410 146 1410 146 1435 153.5 c 128,-1,130
 1460 161 1460 161 1501 177 c 1,131,-1
 1514 110 l 1,0,1
EndSplineSet
EndChar

StartChar: n
Encoding: 110 110 81
Width: 1080
GlyphClass: 2
Flags: W
AnchorPoint: "Anchor-4" 1080 870 basechar 0
AnchorPoint: "Anchor-3" 467 -100 basechar 0
AnchorPoint: "Anchor-2" 750 0 basechar 0
AnchorPoint: "Anchor-1" 467 -100 basechar 0
AnchorPoint: "Anchor-0" 618 1000 basechar 0
LayerCount: 2
Fore
SplineSet
1056 110 m 1,0,1
 1011 83 1011 83 961 56 c 128,-1,2
 911 29 911 29 864.5 7.5 c 128,-1,3
 818 -14 818 -14 778.5 -27.5 c 128,-1,4
 739 -41 739 -41 714 -41 c 0,5,6
 679 -41 679 -41 656 -9.5 c 128,-1,7
 633 22 633 22 633 76 c 0,8,9
 633 94 633 94 639 136.5 c 128,-1,10
 645 179 645 179 654 234 c 128,-1,11
 663 289 663 289 674 351 c 128,-1,12
 685 413 685 413 694 469.5 c 128,-1,13
 703 526 703 526 709 572 c 128,-1,14
 715 618 715 618 715 640 c 0,15,16
 715 699 715 699 704.5 722.5 c 128,-1,17
 694 746 694 746 662 746 c 0,18,19
 649 746 649 746 625 737.5 c 128,-1,20
 601 729 601 729 572 709.5 c 128,-1,21
 543 690 543 690 511.5 658.5 c 128,-1,22
 480 627 480 627 451 580 c 0,23,24
 421 532 421 532 404.5 465 c 128,-1,25
 388 398 388 398 371 301 c 0,26,27
 363 256 363 256 358 222.5 c 128,-1,28
 353 189 353 189 350.5 161.5 c 128,-1,29
 348 134 348 134 347.5 110.5 c 128,-1,30
 347 87 347 87 348 63 c 1,31,32
 335 56 335 56 302.5 41.5 c 128,-1,33
 270 27 270 27 234 11 c 128,-1,34
 198 -5 198 -5 166 -19.5 c 128,-1,35
 134 -34 134 -34 122 -41 c 1,36,-1
 82 -3 l 1,37,38
 96 64 96 64 109 135.5 c 128,-1,39
 122 207 122 207 134 277.5 c 128,-1,40
 146 348 146 348 156 414.5 c 128,-1,41
 166 481 166 481 173 537 c 128,-1,42
 180 593 180 593 184 635.5 c 128,-1,43
 188 678 188 678 188 702 c 0,44,45
 188 725 188 725 185.5 738.5 c 128,-1,46
 183 752 183 752 178 758.5 c 128,-1,47
 173 765 173 765 166 767 c 128,-1,48
 159 769 159 769 150 769 c 256,49,50
 141 769 141 769 125 765 c 128,-1,51
 109 761 109 761 92 756 c 0,52,53
 73 750 73 750 51 743 c 1,54,-1
 32 812 l 1,55,56
 74 830 74 830 129.5 852 c 128,-1,57
 185 874 185 874 237 892.5 c 128,-1,58
 289 911 289 911 330.5 923.5 c 128,-1,59
 372 936 372 936 387 936 c 0,60,61
 401 936 401 936 410 931.5 c 128,-1,62
 419 927 419 927 424.5 915 c 128,-1,63
 430 903 430 903 432 881 c 128,-1,64
 434 859 434 859 434 823 c 0,65,66
 434 802 434 802 432 775 c 128,-1,67
 430 748 430 748 427 723 c 1,68,69
 536 832 536 832 642 884 c 128,-1,70
 748 936 748 936 838 936 c 0,71,72
 869 936 869 936 894 929.5 c 128,-1,73
 919 923 919 923 935.5 905 c 128,-1,74
 952 887 952 887 961 856 c 128,-1,75
 970 825 970 825 970 777 c 0,76,77
 970 742 970 742 963.5 694 c 128,-1,78
 957 646 957 646 948 591.5 c 128,-1,79
 939 537 939 537 927.5 479.5 c 128,-1,80
 916 422 916 422 907 370 c 128,-1,81
 898 318 898 318 891.5 274.5 c 128,-1,82
 885 231 885 231 885 203 c 0,83,84
 885 169 885 169 894 156.5 c 128,-1,85
 903 144 903 144 921 144 c 0,86,87
 944 144 944 144 966.5 152 c 128,-1,88
 989 160 989 160 1030 177 c 1,89,-1
 1056 110 l 1,0,1
EndSplineSet
EndChar

StartChar: o
Encoding: 111 111 82
Width: 909
GlyphClass: 2
Flags: W
AnchorPoint: "Anchor-4" 928 870 basechar 0
AnchorPoint: "Anchor-3" 452 0 basechar 0
AnchorPoint: "Anchor-2" 401 0 basechar 0
AnchorPoint: "Anchor-1" 377 -100 basechar 0
AnchorPoint: "Anchor-0" 528 1000 basechar 0
LayerCount: 2
Fore
SplineSet
638 481 m 0,0,1
 638 557 638 557 625 616 c 128,-1,2
 612 675 612 675 590.5 715 c 128,-1,3
 569 755 569 755 540 776 c 128,-1,4
 511 797 511 797 479 797 c 0,5,6
 421 797 421 797 381.5 762 c 128,-1,7
 342 727 342 727 317.5 672.5 c 128,-1,8
 293 618 293 618 282.5 551.5 c 128,-1,9
 272 485 272 485 272 421 c 0,10,11
 272 354 272 354 286.5 295 c 128,-1,12
 301 236 301 236 324.5 191.5 c 128,-1,13
 348 147 348 147 378 121 c 128,-1,14
 408 95 408 95 440 95 c 0,15,16
 477 95 477 95 506 112 c 128,-1,17
 535 129 535 129 557 158.5 c 128,-1,18
 579 188 579 188 594.5 226.5 c 128,-1,19
 610 265 610 265 619.5 308 c 128,-1,20
 629 351 629 351 633.5 395.5 c 128,-1,21
 638 440 638 440 638 481 c 0,0,1
871 559 m 0,22,23
 871 492 871 492 854 423.5 c 128,-1,24
 837 355 837 355 805 290.5 c 128,-1,25
 773 226 773 226 728 167.5 c 128,-1,26
 683 109 683 109 627 63 c 0,27,28
 601 42 601 42 569 23 c 128,-1,29
 537 4 537 4 503 -10.5 c 128,-1,30
 469 -25 469 -25 435.5 -33 c 128,-1,31
 402 -41 402 -41 372 -41 c 0,32,33
 294 -41 294 -41 232 -11.5 c 128,-1,34
 170 18 170 18 127 69.5 c 128,-1,35
 84 121 84 121 61 191.5 c 128,-1,36
 38 262 38 262 38 344 c 0,37,38
 38 416 38 416 52 483 c 128,-1,39
 66 550 66 550 96 612 c 128,-1,40
 126 674 126 674 173 731.5 c 128,-1,41
 220 789 220 789 287 840 c 0,42,43
 313 860 313 860 344.5 877.5 c 128,-1,44
 376 895 376 895 410 908 c 128,-1,45
 444 921 444 921 479.5 928.5 c 128,-1,46
 515 936 515 936 548 936 c 0,47,48
 626 936 626 936 686.5 908 c 128,-1,49
 747 880 747 880 788 830 c 128,-1,50
 829 780 829 780 850 711 c 128,-1,51
 871 642 871 642 871 559 c 0,22,23
EndSplineSet
EndChar

StartChar: p
Encoding: 112 112 83
Width: 1025
GlyphClass: 2
Flags: W
AnchorPoint: "Anchor-4" 1086 870 basechar 0
AnchorPoint: "Anchor-3" 373 -600 basechar 0
AnchorPoint: "Anchor-2" 530 0 basechar 0
AnchorPoint: "Anchor-1" 373 -600 basechar 0
AnchorPoint: "Anchor-0" 592 1000 basechar 0
LayerCount: 2
Fore
SplineSet
625 760 m 0,0,1
 608 760 608 760 578.5 743.5 c 128,-1,2
 549 727 549 727 514.5 695.5 c 128,-1,3
 480 664 480 664 443.5 618.5 c 128,-1,4
 407 573 407 573 375 514 c 1,5,6
 367 465 367 465 357.5 409.5 c 128,-1,7
 348 354 348 354 337 289 c 1,8,9
 354 264 354 264 380 240.5 c 128,-1,10
 406 217 406 217 435 199 c 128,-1,11
 464 181 464 181 494 170 c 128,-1,12
 524 159 524 159 549 159 c 0,13,14
 592 159 592 159 625.5 184 c 128,-1,15
 659 209 659 209 677 249 c 0,16,17
 702 303 702 303 713 376.5 c 128,-1,18
 724 450 724 450 724 525 c 0,19,20
 724 578 724 578 715.5 621.5 c 128,-1,21
 707 665 707 665 693 695.5 c 128,-1,22
 679 726 679 726 661 743 c 128,-1,23
 643 760 643 760 625 760 c 0,0,1
423 870 m 0,24,25
 423 829 423 829 408 729 c 1,26,27
 463 793 463 793 509.5 833.5 c 128,-1,28
 556 874 556 874 596.5 897 c 128,-1,29
 637 920 637 920 672.5 928 c 128,-1,30
 708 936 708 936 741 936 c 0,31,32
 785 936 785 936 825 916 c 128,-1,33
 865 896 865 896 895 856.5 c 128,-1,34
 925 817 925 817 942.5 759.5 c 128,-1,35
 960 702 960 702 960 627 c 0,36,37
 960 568 960 568 949.5 506 c 128,-1,38
 939 444 939 444 921 383.5 c 128,-1,39
 903 323 903 323 878.5 267 c 128,-1,40
 854 211 854 211 826 166 c 0,41,42
 803 128 803 128 774 91 c 128,-1,43
 745 54 745 54 711 25 c 128,-1,44
 677 -4 677 -4 639 -22.5 c 128,-1,45
 601 -41 601 -41 560 -41 c 0,46,47
 534 -41 534 -41 503.5 -27.5 c 128,-1,48
 473 -14 473 -14 441 10.5 c 128,-1,49
 409 35 409 35 376 69.5 c 128,-1,50
 343 104 343 104 313 146 c 1,51,-1
 290 6 l 2,52,53
 273 -97 273 -97 263 -170 c 128,-1,54
 253 -243 253 -243 248.5 -291.5 c 128,-1,55
 244 -340 244 -340 245 -368 c 128,-1,56
 246 -396 246 -396 251 -410 c 1,57,58
 236 -414 236 -414 203 -426 c 128,-1,59
 170 -438 170 -438 133.5 -452.5 c 128,-1,60
 97 -467 97 -467 64.5 -480.5 c 128,-1,61
 32 -494 32 -494 19 -500 c 1,62,-1
 -21 -464 l 1,63,64
 -17 -435 -17 -435 -7 -377 c 128,-1,65
 3 -319 3 -319 17 -241.5 c 128,-1,66
 31 -164 31 -164 47.5 -73 c 128,-1,67
 64 18 64 18 81 112 c 128,-1,68
 98 206 98 206 113.5 297.5 c 128,-1,69
 129 389 129 389 141 468 c 128,-1,70
 153 547 153 547 160.5 607.5 c 128,-1,71
 168 668 168 668 168 700 c 0,72,73
 168 723 168 723 164 736.5 c 128,-1,74
 160 750 160 750 153 756.5 c 128,-1,75
 146 763 146 763 138 765 c 128,-1,76
 130 767 130 767 121 767 c 256,77,78
 112 767 112 767 96 763.5 c 128,-1,79
 80 760 80 760 65 755 c 0,80,81
 47 750 47 750 28 743 c 1,82,-1
 10 810 l 1,83,84
 54 831 54 831 109 853.5 c 128,-1,85
 164 876 164 876 215.5 894 c 128,-1,86
 267 912 267 912 309 924 c 128,-1,87
 351 936 351 936 369 936 c 0,88,89
 395 936 395 936 409 922.5 c 128,-1,90
 423 909 423 909 423 870 c 0,24,25
EndSplineSet
EndChar

StartChar: q
Encoding: 113 113 84
Width: 959
GlyphClass: 2
Flags: W
AnchorPoint: "Anchor-4" 1059 870 basechar 0
AnchorPoint: "Anchor-3" 325 -600 basechar 0
AnchorPoint: "Anchor-2" 325 -600 basechar 0
AnchorPoint: "Anchor-1" 325 -600 basechar 0
AnchorPoint: "Anchor-0" 545 1000 basechar 0
LayerCount: 2
Fore
SplineSet
371 156 m 0,0,1
 401 156 401 156 457 210.5 c 128,-1,2
 513 265 513 265 592 379 c 1,3,4
 606 467 606 467 620.5 553 c 128,-1,5
 635 639 635 639 649 722 c 1,6,7
 619 750 619 750 585.5 772 c 128,-1,8
 552 794 552 794 520 794 c 0,9,10
 478 794 478 794 442.5 774 c 128,-1,11
 407 754 407 754 377.5 721.5 c 128,-1,12
 348 689 348 689 325.5 646 c 128,-1,13
 303 603 303 603 288 557 c 128,-1,14
 273 511 273 511 265 464.5 c 128,-1,15
 257 418 257 418 257 379 c 0,16,17
 257 323 257 323 267 281 c 128,-1,18
 277 239 277 239 293 211.5 c 128,-1,19
 309 184 309 184 329.5 170 c 128,-1,20
 350 156 350 156 371 156 c 0,0,1
951 871 m 1,21,22
 934 857 934 857 921.5 846 c 128,-1,23
 909 835 909 835 900 820.5 c 128,-1,24
 891 806 891 806 883.5 785 c 128,-1,25
 876 764 876 764 870 730 c 0,26,27
 848 597 848 597 826.5 467 c 128,-1,28
 805 337 805 337 786.5 218 c 128,-1,29
 768 99 768 99 753.5 -6 c 128,-1,30
 739 -111 739 -111 731.5 -193.5 c 128,-1,31
 724 -276 724 -276 724 -332 c 128,-1,32
 724 -388 724 -388 735 -410 c 1,33,34
 726 -413 726 -413 707.5 -419.5 c 128,-1,35
 689 -426 689 -426 665.5 -435 c 128,-1,36
 642 -444 642 -444 616.5 -453.5 c 128,-1,37
 591 -463 591 -463 568 -472 c 128,-1,38
 545 -481 545 -481 527 -488.5 c 128,-1,39
 509 -496 509 -496 501 -500 c 1,40,-1
 458 -464 l 1,41,42
 462 -430 462 -430 471.5 -367.5 c 128,-1,43
 481 -305 481 -305 494 -222.5 c 128,-1,44
 507 -140 507 -140 523 -41 c 128,-1,45
 539 58 539 58 557 166 c 1,46,47
 471 59 471 59 402.5 9 c 128,-1,48
 334 -41 334 -41 269 -41 c 0,49,50
 233 -41 233 -41 192.5 -22 c 128,-1,51
 152 -3 152 -3 117.5 38.5 c 128,-1,52
 83 80 83 80 60.5 145.5 c 128,-1,53
 38 211 38 211 38 305 c 0,54,55
 38 384 38 384 58.5 460.5 c 128,-1,56
 79 537 79 537 118 606.5 c 128,-1,57
 157 676 157 676 212.5 736 c 128,-1,58
 268 796 268 796 339 842 c 0,59,60
 367 860 367 860 403.5 877 c 128,-1,61
 440 894 440 894 479 907 c 128,-1,62
 518 920 518 920 556.5 928 c 128,-1,63
 595 936 595 936 627 936 c 0,64,65
 669 936 669 936 710.5 916 c 128,-1,66
 752 896 752 896 788 873 c 1,67,68
 822 891 822 891 855.5 906.5 c 128,-1,69
 889 922 889 922 917 936 c 1,70,-1
 951 871 l 1,21,22
EndSplineSet
EndChar

StartChar: r
Encoding: 114 114 85
Width: 836
GlyphClass: 2
Flags: W
AnchorPoint: "Anchor-4" 836 870 basechar 0
AnchorPoint: "Anchor-3" 219 -100 basechar 0
AnchorPoint: "Anchor-2" 190 0 basechar 0
AnchorPoint: "Anchor-1" 219 -100 basechar 0
AnchorPoint: "Anchor-0" 515 1000 basechar 0
LayerCount: 2
Fore
SplineSet
892 850 m 1,0,1
 884 839 884 839 872 819.5 c 128,-1,2
 860 800 860 800 846 776.5 c 128,-1,3
 832 753 832 753 817.5 729 c 128,-1,4
 803 705 803 705 789.5 685 c 128,-1,5
 776 665 776 665 765 652.5 c 128,-1,6
 754 640 754 640 748 640 c 0,7,8
 729 640 729 640 712 652 c 128,-1,9
 695 664 695 664 679.5 678.5 c 128,-1,10
 664 693 664 693 649 705 c 128,-1,11
 634 717 634 717 619 717 c 0,12,13
 593 717 593 717 561 692 c 128,-1,14
 529 667 529 667 497 622 c 128,-1,15
 465 577 465 577 436 516 c 128,-1,16
 407 455 407 455 386 383 c 0,17,18
 365 308 365 308 351.5 225.5 c 128,-1,19
 338 143 338 143 341 63 c 1,20,21
 325 56 325 56 292 41.5 c 128,-1,22
 259 27 259 27 224 11 c 128,-1,23
 189 -5 189 -5 158 -19.5 c 128,-1,24
 127 -34 127 -34 115 -41 c 1,25,-1
 75 -3 l 1,26,27
 97 104 97 104 116 210 c 128,-1,28
 135 316 135 316 149.5 410 c 128,-1,29
 164 504 164 504 172 579.5 c 128,-1,30
 180 655 180 655 180 700 c 0,31,32
 180 723 180 723 176.5 736.5 c 128,-1,33
 173 750 173 750 167.5 756.5 c 128,-1,34
 162 763 162 763 154.5 765 c 128,-1,35
 147 767 147 767 139 767 c 0,36,37
 129 767 129 767 113.5 763.5 c 128,-1,38
 98 760 98 760 82 755 c 0,39,40
 64 750 64 750 44 743 c 1,41,-1
 26 810 l 1,42,43
 68 829 68 829 122 851 c 128,-1,44
 176 873 176 873 227.5 892 c 128,-1,45
 279 911 279 911 320.5 923.5 c 128,-1,46
 362 936 362 936 380 936 c 0,47,48
 394 936 394 936 403 931.5 c 128,-1,49
 412 927 412 927 417.5 915.5 c 128,-1,50
 423 904 423 904 425 885 c 128,-1,51
 427 866 427 866 427 836 c 0,52,53
 427 825 427 825 425.5 806.5 c 128,-1,54
 424 788 424 788 421 765.5 c 128,-1,55
 418 743 418 743 415 720 c 128,-1,56
 412 697 412 697 409 678 c 1,57,58
 457 757 457 757 499 807.5 c 128,-1,59
 541 858 541 858 578 886.5 c 128,-1,60
 615 915 615 915 648.5 925.5 c 128,-1,61
 682 936 682 936 714 936 c 0,62,63
 732 936 732 936 753.5 926 c 128,-1,64
 775 916 775 916 798.5 902 c 128,-1,65
 822 888 822 888 846 873.5 c 128,-1,66
 870 859 870 859 892 850 c 1,0,1
EndSplineSet
EndChar

StartChar: s
Encoding: 115 115 86
Width: 786
GlyphClass: 2
Flags: W
AnchorPoint: "Anchor-4" 786 870 basechar 0
AnchorPoint: "Anchor-3" 324 -100 basechar 0
AnchorPoint: "Anchor-2" 328 0 basechar 0
AnchorPoint: "Anchor-1" 324 -100 basechar 0
AnchorPoint: "Anchor-0" 475 1000 basechar 0
LayerCount: 2
Fore
SplineSet
788 844 m 1,0,1
 771 821 771 821 749.5 794 c 128,-1,2
 728 767 728 767 706.5 744 c 128,-1,3
 685 721 685 721 667 705 c 128,-1,4
 649 689 649 689 639 689 c 0,5,6
 623 689 623 689 603.5 710 c 128,-1,7
 584 731 584 731 559.5 755.5 c 128,-1,8
 535 780 535 780 505.5 801 c 128,-1,9
 476 822 476 822 440 822 c 0,10,11
 384 822 384 822 355 793.5 c 128,-1,12
 326 765 326 765 326 717 c 0,13,14
 326 670 326 670 367 635 c 128,-1,15
 408 600 408 600 489 559 c 0,16,17
 530 538 530 538 569.5 513 c 128,-1,18
 609 488 609 488 640.5 456 c 128,-1,19
 672 424 672 424 691 383 c 128,-1,20
 710 342 710 342 710 289 c 0,21,22
 710 243 710 243 690.5 200.5 c 128,-1,23
 671 158 671 158 638 121.5 c 128,-1,24
 605 85 605 85 561.5 55 c 128,-1,25
 518 25 518 25 470.5 3.5 c 128,-1,26
 423 -18 423 -18 374 -29.5 c 128,-1,27
 325 -41 325 -41 282 -41 c 0,28,29
 218 -41 218 -41 163 -25 c 128,-1,30
 108 -9 108 -9 67.5 14.5 c 128,-1,31
 27 38 27 38 4 65 c 128,-1,32
 -19 92 -19 92 -19 113 c 0,33,34
 -19 127 -19 127 -4.5 157.5 c 128,-1,35
 10 188 10 188 29 219.5 c 128,-1,36
 48 251 48 251 67.5 274.5 c 128,-1,37
 87 298 87 298 98 298 c 0,38,39
 107 298 107 298 117 282 c 128,-1,40
 127 266 127 266 140.5 242.5 c 128,-1,41
 154 219 154 219 172.5 191.5 c 128,-1,42
 191 164 191 164 215.5 140.5 c 128,-1,43
 240 117 240 117 272.5 101 c 128,-1,44
 305 85 305 85 347 85 c 0,45,46
 413 85 413 85 451 121.5 c 128,-1,47
 489 158 489 158 489 216 c 0,48,49
 489 250 489 250 472 279 c 128,-1,50
 455 308 455 308 426.5 333.5 c 128,-1,51
 398 359 398 359 362 380.5 c 128,-1,52
 326 402 326 402 289 421 c 0,53,54
 236 448 236 448 201 475.5 c 128,-1,55
 166 503 166 503 145.5 531.5 c 128,-1,56
 125 560 125 560 116.5 590.5 c 128,-1,57
 108 621 108 621 108 653 c 0,58,59
 108 716 108 716 145 768 c 128,-1,60
 182 820 182 820 238.5 857.5 c 128,-1,61
 295 895 295 895 363 915.5 c 128,-1,62
 431 936 431 936 493 936 c 0,63,64
 547 936 547 936 588 923.5 c 128,-1,65
 629 911 629 911 663.5 895.5 c 128,-1,66
 698 880 698 880 727.5 865 c 128,-1,67
 757 850 757 850 788 844 c 1,0,1
EndSplineSet
EndChar

StartChar: t
Encoding: 116 116 87
Width: 693
GlyphClass: 2
Flags: W
AnchorPoint: "Anchor-4" 627 870 basechar 0
AnchorPoint: "Anchor-3" 271 -100 basechar 0
AnchorPoint: "Anchor-2" 285 0 basechar 0
AnchorPoint: "Anchor-1" 271 -100 basechar 0
AnchorPoint: "Anchor-0" 456 1230 basechar 0
LayerCount: 2
Fore
SplineSet
663 155 m 1,0,1
 608 111 608 111 553 75 c 128,-1,2
 498 39 498 39 447.5 13.5 c 128,-1,3
 397 -12 397 -12 355.5 -26.5 c 128,-1,4
 314 -41 314 -41 286 -41 c 0,5,6
 256 -41 256 -41 225.5 -26 c 128,-1,7
 195 -11 195 -11 170.5 15.5 c 128,-1,8
 146 42 146 42 131 79 c 128,-1,9
 116 116 116 116 116 160 c 0,10,11
 116 179 116 179 116.5 198 c 128,-1,12
 117 217 117 217 118.5 237.5 c 128,-1,13
 120 258 120 258 122.5 281 c 128,-1,14
 125 304 125 304 130 332 c 2,15,-1
 202 785 l 1,16,-1
 67 785 l 1,17,-1
 44 824 l 1,18,-1
 164 905 l 1,19,-1
 221 905 l 1,20,-1
 227 940 l 1,21,22
 233 981 233 981 239.5 1004.5 c 128,-1,23
 246 1028 246 1028 254.5 1042 c 128,-1,24
 263 1056 263 1056 273 1064 c 128,-1,25
 283 1072 283 1072 296 1082 c 1,26,-1
 487 1176 l 1,27,-1
 515 1151 l 1,28,29
 507 1142 507 1142 499 1119 c 0,30,31
 491 1099 491 1099 482.5 1062 c 128,-1,32
 474 1025 474 1025 464 963 c 2,33,-1
 455 905 l 1,34,-1
 696 905 l 1,35,-1
 724 870 l 1,36,37
 714 856 714 856 694.5 836 c 128,-1,38
 675 816 675 816 654 796.5 c 128,-1,39
 633 777 633 777 614 761 c 128,-1,40
 595 745 595 745 586 740 c 1,41,42
 574 768 574 768 539 776.5 c 128,-1,43
 504 785 504 785 440 785 c 2,44,-1
 436 785 l 1,45,-1
 379 424 l 2,46,47
 376 405 376 405 373.5 383.5 c 128,-1,48
 371 362 371 362 369.5 342.5 c 128,-1,49
 368 323 368 323 367.5 306 c 128,-1,50
 367 289 367 289 367 279 c 0,51,52
 367 217 367 217 385.5 191 c 128,-1,53
 404 165 404 165 432 165 c 0,54,55
 467 165 467 165 514 180 c 128,-1,56
 561 195 561 195 636 229 c 1,57,-1
 663 155 l 1,0,1
EndSplineSet
EndChar

StartChar: u
Encoding: 117 117 88
Width: 1101
GlyphClass: 2
Flags: W
AnchorPoint: "Anchor-4" 1133 870 basechar 0
AnchorPoint: "Anchor-3" 836 0 basechar 0
AnchorPoint: "Anchor-2" 780 0 basechar 0
AnchorPoint: "Anchor-1" 469 -100 basechar 0
AnchorPoint: "Anchor-0" 620 1000 basechar 0
LayerCount: 2
Fore
SplineSet
1069 106 m 1,0,1
 1029 79 1029 79 988.5 52.5 c 128,-1,2
 948 26 948 26 910.5 5.5 c 128,-1,3
 873 -15 873 -15 840.5 -28 c 128,-1,4
 808 -41 808 -41 784 -41 c 0,5,6
 762 -41 762 -41 739.5 -26 c 128,-1,7
 717 -11 717 -11 698 20 c 128,-1,8
 679 51 679 51 666.5 98 c 128,-1,9
 654 145 654 145 651 208 c 1,10,11
 613 154 613 154 568.5 108.5 c 128,-1,12
 524 63 524 63 476.5 30 c 128,-1,13
 429 -3 429 -3 380.5 -22 c 128,-1,14
 332 -41 332 -41 287 -41 c 0,15,16
 258 -41 258 -41 227 -25.5 c 128,-1,17
 196 -10 196 -10 170 21 c 128,-1,18
 144 52 144 52 127 98 c 128,-1,19
 110 144 110 144 110 205 c 0,20,21
 110 235 110 235 115 276.5 c 128,-1,22
 120 318 120 318 127 364.5 c 128,-1,23
 134 411 134 411 143 460 c 128,-1,24
 152 509 152 509 159 554.5 c 128,-1,25
 166 600 166 600 171 637.5 c 128,-1,26
 176 675 176 675 176 700 c 0,27,28
 176 723 176 723 173 736.5 c 128,-1,29
 170 750 170 750 164.5 756.5 c 128,-1,30
 159 763 159 763 151.5 765 c 128,-1,31
 144 767 144 767 135 767 c 256,32,33
 126 767 126 767 110.5 763.5 c 128,-1,34
 95 760 95 760 79 755 c 0,35,36
 61 750 61 750 40 743 c 1,37,-1
 24 810 l 1,38,39
 66 829 66 829 121 851 c 128,-1,40
 176 873 176 873 228.5 892 c 128,-1,41
 281 911 281 911 323.5 923.5 c 128,-1,42
 366 936 366 936 384 936 c 0,43,44
 413 936 413 936 423 917 c 128,-1,45
 433 898 433 898 433 852 c 0,46,47
 433 823 433 823 427 776.5 c 128,-1,48
 421 730 421 730 412 675 c 128,-1,49
 403 620 403 620 393 561 c 128,-1,50
 383 502 383 502 374 447 c 128,-1,51
 365 392 365 392 359 345.5 c 128,-1,52
 353 299 353 299 353 270 c 0,53,54
 353 213 353 213 369.5 184 c 128,-1,55
 386 155 386 155 406 155 c 0,56,57
 423 155 423 155 449 169 c 128,-1,58
 475 183 475 183 508.5 213 c 128,-1,59
 542 243 542 243 581.5 290.5 c 128,-1,60
 621 338 621 338 666 405 c 1,61,62
 672 446 672 446 679.5 488 c 128,-1,63
 687 530 687 530 693 569 c 128,-1,64
 699 608 699 608 703.5 642 c 128,-1,65
 708 676 708 676 708 700 c 0,66,67
 708 723 708 723 705.5 736.5 c 128,-1,68
 703 750 703 750 698 756.5 c 128,-1,69
 693 763 693 763 686.5 765 c 128,-1,70
 680 767 680 767 671 767 c 256,71,72
 662 767 662 767 647.5 763.5 c 128,-1,73
 633 760 633 760 619 755 c 0,74,75
 602 750 602 750 584 743 c 1,76,-1
 566 810 l 1,77,78
 608 829 608 829 661.5 851 c 128,-1,79
 715 873 715 873 765.5 892 c 128,-1,80
 816 911 816 911 857.5 923.5 c 128,-1,81
 899 936 899 936 917 936 c 0,82,83
 945 936 945 936 954 917 c 128,-1,84
 963 898 963 898 963 852 c 0,85,86
 963 823 963 823 957.5 780 c 128,-1,87
 952 737 952 737 944 687.5 c 128,-1,88
 936 638 936 638 927 584.5 c 128,-1,89
 918 531 918 531 910 480.5 c 128,-1,90
 902 430 902 430 896.5 385 c 128,-1,91
 891 340 891 340 891 307 c 0,92,93
 891 216 891 216 905 180 c 128,-1,94
 919 144 919 144 944 144 c 0,95,96
 970 144 970 144 992.5 150.5 c 128,-1,97
 1015 157 1015 157 1051 172 c 1,98,-1
 1069 106 l 1,0,1
EndSplineSet
EndChar

StartChar: v
Encoding: 118 118 89
Width: 977
GlyphClass: 2
Flags: W
AnchorPoint: "Anchor-4" 977 870 basechar 0
AnchorPoint: "Anchor-3" 390 0 basechar 0
AnchorPoint: "Anchor-2" 430 0 basechar 0
AnchorPoint: "Anchor-1" 407 -100 basechar 0
AnchorPoint: "Anchor-0" 558 1000 basechar 0
LayerCount: 2
Fore
SplineSet
972 852 m 0,0,1
 972 820 972 820 949 763 c 128,-1,2
 926 706 926 706 874 611 c 128,-1,3
 822 516 822 516 738 376.5 c 128,-1,4
 654 237 654 237 531 40 c 1,5,6
 522 35 522 35 499 23.5 c 128,-1,7
 476 12 476 12 450 -0.5 c 128,-1,8
 424 -13 424 -13 400 -25 c 128,-1,9
 376 -37 376 -37 366 -41 c 1,10,-1
 326 -3 l 1,11,12
 315 82 315 82 298 181.5 c 128,-1,13
 281 281 281 281 263 376.5 c 128,-1,14
 245 472 245 472 227 552 c 128,-1,15
 209 632 209 632 195 678 c 0,16,17
 187 705 187 705 178 721 c 128,-1,18
 169 737 169 737 159.5 746 c 128,-1,19
 150 755 150 755 141 757.5 c 128,-1,20
 132 760 132 760 123 760 c 0,21,22
 113 760 113 760 97 756.5 c 128,-1,23
 81 753 81 753 65 748 c 0,24,25
 47 743 47 743 25 736 c 1,26,-1
 1 803 l 1,27,28
 43 824 43 824 91.5 847.5 c 128,-1,29
 140 871 140 871 184 890.5 c 128,-1,30
 228 910 228 910 263 923 c 128,-1,31
 298 936 298 936 313 936 c 0,32,33
 342 936 342 936 360.5 907.5 c 128,-1,34
 379 879 379 879 400 809 c 0,35,36
 408 783 408 783 419 734.5 c 128,-1,37
 430 686 430 686 441.5 626 c 128,-1,38
 453 566 453 566 465 502 c 128,-1,39
 477 438 477 438 486.5 383 c 128,-1,40
 496 328 496 328 502.5 287.5 c 128,-1,41
 509 247 509 247 510 234 c 1,42,43
 579 343 579 343 621.5 427.5 c 128,-1,44
 664 512 664 512 688 572.5 c 128,-1,45
 712 633 712 633 720 670.5 c 128,-1,46
 728 708 728 708 728 722 c 0,47,48
 728 771 728 771 673 771 c 0,49,50
 656 771 656 771 639.5 767.5 c 128,-1,51
 623 764 623 764 601 756 c 1,52,-1
 579 821 l 1,53,54
 610 838 610 838 654.5 858.5 c 128,-1,55
 699 879 699 879 743.5 896.5 c 128,-1,56
 788 914 788 914 827.5 925.5 c 128,-1,57
 867 937 867 937 890 936 c 0,58,59
 925 935 925 935 948.5 917.5 c 128,-1,60
 972 900 972 900 972 852 c 0,0,1
EndSplineSet
EndChar

StartChar: w
Encoding: 119 119 90
Width: 1388
GlyphClass: 2
Flags: W
AnchorPoint: "Anchor-4" 1388 870 basechar 0
AnchorPoint: "Anchor-3" 651 -100 basechar 0
AnchorPoint: "Anchor-2" 651 -100 basechar 0
AnchorPoint: "Anchor-1" 651 -100 basechar 0
AnchorPoint: "Anchor-0" 802 1000 basechar 0
LayerCount: 2
Fore
SplineSet
1391 860 m 0,0,1
 1391 833 1391 833 1384 801 c 128,-1,2
 1377 769 1377 769 1360.5 724.5 c 128,-1,3
 1344 680 1344 680 1316 620 c 128,-1,4
 1288 560 1288 560 1246 478.5 c 128,-1,5
 1204 397 1204 397 1146 290 c 128,-1,6
 1088 183 1088 183 1012 44 c 1,7,8
 1003 39 1003 39 980 27 c 128,-1,9
 957 15 957 15 931 1.5 c 128,-1,10
 905 -12 905 -12 881.5 -24.5 c 128,-1,11
 858 -37 858 -37 848 -41 c 1,12,-1
 807 -3 l 1,13,14
 796 82 796 82 784.5 164.5 c 128,-1,15
 773 247 773 247 761 322 c 128,-1,16
 749 397 749 397 736.5 460.5 c 128,-1,17
 724 524 724 524 711 570 c 1,18,19
 702 535 702 535 682.5 480.5 c 128,-1,20
 663 426 663 426 634 359 c 128,-1,21
 605 292 605 292 566.5 214.5 c 128,-1,22
 528 137 528 137 482 55 c 1,23,24
 473 50 473 50 447.5 36.5 c 128,-1,25
 422 23 422 23 392.5 7 c 128,-1,26
 363 -9 363 -9 336.5 -23 c 128,-1,27
 310 -37 310 -37 300 -41 c 1,28,-1
 261 -3 l 1,29,30
 255 54 255 54 248 121 c 128,-1,31
 241 188 241 188 233.5 256.5 c 128,-1,32
 226 325 226 325 219 392 c 128,-1,33
 212 459 212 459 205 515.5 c 128,-1,34
 198 572 198 572 192 614.5 c 128,-1,35
 186 657 186 657 181 678 c 0,36,37
 175 705 175 705 166.5 721 c 128,-1,38
 158 737 158 737 148.5 746 c 128,-1,39
 139 755 139 755 129 757.5 c 128,-1,40
 119 760 119 760 110 760 c 256,41,42
 101 760 101 760 85 756.5 c 128,-1,43
 69 753 69 753 52 748 c 0,44,45
 33 743 33 743 11 736 c 1,46,-1
 -11 803 l 1,47,48
 32 825 32 825 81 849 c 128,-1,49
 130 873 130 873 174 892 c 128,-1,50
 218 911 218 911 253 923.5 c 128,-1,51
 288 936 288 936 304 936 c 0,52,53
 332 936 332 936 346.5 903.5 c 128,-1,54
 361 871 361 871 377 799 c 0,55,56
 382 778 382 778 388.5 736.5 c 128,-1,57
 395 695 395 695 401.5 643 c 128,-1,58
 408 591 408 591 415 534 c 128,-1,59
 422 477 422 477 428 424 c 128,-1,60
 434 371 434 371 438 327 c 128,-1,61
 442 283 442 283 444 258 c 1,62,63
 484 336 484 336 519.5 416.5 c 128,-1,64
 555 497 555 497 581.5 571.5 c 128,-1,65
 608 646 608 646 624.5 710 c 128,-1,66
 641 774 641 774 643 819 c 1,67,68
 663 838 663 838 691 858.5 c 128,-1,69
 719 879 719 879 747 896 c 128,-1,70
 775 913 775 913 800.5 924.5 c 128,-1,71
 826 936 826 936 841 936 c 0,72,73
 845 936 845 936 851.5 919.5 c 128,-1,74
 858 903 858 903 866 876 c 128,-1,75
 874 849 874 849 882.5 813.5 c 128,-1,76
 891 778 891 778 899 741 c 128,-1,77
 907 704 907 704 914.5 667 c 128,-1,78
 922 630 922 630 927 600 c 0,79,80
 934 553 934 553 942.5 505 c 128,-1,81
 951 457 951 457 958.5 411.5 c 128,-1,82
 966 366 966 366 972 323.5 c 128,-1,83
 978 281 978 281 982 245 c 1,84,85
 1087 433 1087 433 1141 556 c 128,-1,86
 1195 679 1195 679 1195 739 c 0,87,88
 1195 760 1195 760 1180.5 772 c 128,-1,89
 1166 784 1166 784 1140 784 c 0,90,91
 1126 784 1126 784 1102 780 c 128,-1,92
 1078 776 1078 776 1056 769 c 1,93,-1
 1031 836 l 1,94,95
 1068 859 1068 859 1108 877.5 c 128,-1,96
 1148 896 1148 896 1185 909 c 128,-1,97
 1222 922 1222 922 1254 929 c 128,-1,98
 1286 936 1286 936 1307 936 c 0,99,100
 1324 936 1324 936 1339 933.5 c 128,-1,101
 1354 931 1354 931 1365.5 923 c 128,-1,102
 1377 915 1377 915 1384 900 c 128,-1,103
 1391 885 1391 885 1391 860 c 0,0,1
EndSplineSet
EndChar

StartChar: x
Encoding: 120 120 91
Width: 946
GlyphClass: 2
Flags: W
AnchorPoint: "Anchor-4" 946 870 basechar 0
AnchorPoint: "Anchor-3" 423 -100 basechar 0
AnchorPoint: "Anchor-2" 683 0 basechar 0
AnchorPoint: "Anchor-1" 423 -100 basechar 0
AnchorPoint: "Anchor-0" 573 1000 basechar 0
LayerCount: 2
Fore
SplineSet
930 102 m 1,0,1
 887 72 887 72 846 46 c 128,-1,2
 805 20 805 20 768 0.5 c 128,-1,3
 731 -19 731 -19 699 -30 c 128,-1,4
 667 -41 667 -41 642 -41 c 0,5,6
 614 -41 614 -41 586 -15.5 c 128,-1,7
 558 10 558 10 530.5 53.5 c 128,-1,8
 503 97 503 97 476.5 154.5 c 128,-1,9
 450 212 450 212 424 275 c 1,10,11
 384 221 384 221 336.5 153.5 c 128,-1,12
 289 86 289 86 235 5 c 1,13,14
 217 3 217 3 182.5 -2.5 c 128,-1,15
 148 -8 148 -8 110.5 -15 c 128,-1,16
 73 -22 73 -22 39 -29 c 128,-1,17
 5 -36 5 -36 -14 -41 c 1,18,-1
 -44 2 l 1,19,20
 -1 40 -1 40 52.5 89 c 128,-1,21
 106 138 106 138 161.5 191.5 c 128,-1,22
 217 245 217 245 271 300.5 c 128,-1,23
 325 356 325 356 371 408 c 1,24,25
 344 478 344 478 317.5 542.5 c 128,-1,26
 291 607 291 607 265.5 657 c 128,-1,27
 240 707 240 707 216 737 c 128,-1,28
 192 767 192 767 170 767 c 0,29,30
 161 767 161 767 140 763 c 128,-1,31
 119 759 119 759 97 754 c 0,32,33
 71 748 71 748 41 741 c 1,34,-1
 20 810 l 1,35,36
 62 831 62 831 108 853.5 c 128,-1,37
 154 876 154 876 195.5 894.5 c 128,-1,38
 237 913 237 913 270 924.5 c 128,-1,39
 303 936 303 936 319 936 c 0,40,41
 345 936 345 936 372 906 c 128,-1,42
 399 876 399 876 426.5 826 c 128,-1,43
 454 776 454 776 482.5 711 c 128,-1,44
 511 646 511 646 539 576 c 1,45,46
 572 617 572 617 600 655 c 128,-1,47
 628 693 628 693 648 723 c 128,-1,48
 668 753 668 753 679.5 774 c 128,-1,49
 691 795 691 795 691 801 c 0,50,51
 691 822 691 822 667 831 c 128,-1,52
 643 840 643 840 579 833 c 1,53,-1
 574 904 l 1,54,55
 607 911 607 911 645.5 916.5 c 128,-1,56
 684 922 684 922 721.5 926.5 c 128,-1,57
 759 931 759 931 791.5 933.5 c 128,-1,58
 824 936 824 936 845 936 c 0,59,60
 904 936 904 936 928.5 920 c 128,-1,61
 953 904 953 904 953 883 c 0,62,63
 953 845 953 845 860 740 c 128,-1,64
 767 635 767 635 589 451 c 1,65,66
 614 388 614 388 639 331 c 128,-1,67
 664 274 664 274 688 230.5 c 128,-1,68
 712 187 712 187 734 161.5 c 128,-1,69
 756 136 756 136 777 136 c 0,70,71
 800 136 800 136 834 143 c 128,-1,72
 868 150 868 150 905 169 c 1,73,-1
 930 102 l 1,0,1
EndSplineSet
EndChar

StartChar: y
Encoding: 121 121 92
Width: 979
GlyphClass: 2
Flags: W
AnchorPoint: "Anchor-4" 1146 870 basechar 0
AnchorPoint: "Anchor-3" 665 -100 basechar 0
AnchorPoint: "Anchor-2" 665 -100 basechar 0
AnchorPoint: "Anchor-1" 665 -100 basechar 0
AnchorPoint: "Anchor-0" 591 1000 basechar 0
LayerCount: 2
Fore
SplineSet
961 860 m 0,0,1
 961 826 961 826 934.5 755.5 c 128,-1,2
 908 685 908 685 860.5 584 c 128,-1,3
 813 483 813 483 747.5 356 c 128,-1,4
 682 229 682 229 604 82 c 0,5,6
 535 -47 535 -47 467.5 -154 c 128,-1,7
 400 -261 400 -261 329.5 -338 c 128,-1,8
 259 -415 259 -415 182 -457.5 c 128,-1,9
 105 -500 105 -500 17 -500 c 0,10,11
 -22 -500 -22 -500 -60 -490.5 c 128,-1,12
 -98 -481 -98 -481 -128 -467 c 128,-1,13
 -158 -453 -158 -453 -177 -438 c 128,-1,14
 -196 -423 -196 -423 -196 -412 c 0,15,16
 -196 -397 -196 -397 -179.5 -368 c 128,-1,17
 -163 -339 -163 -339 -140.5 -308 c 128,-1,18
 -118 -277 -118 -277 -94.5 -251.5 c 128,-1,19
 -71 -226 -71 -226 -57 -219 c 1,20,21
 -9 -264 -9 -264 39 -285.5 c 128,-1,22
 87 -307 87 -307 124 -307 c 0,23,24
 181 -307 181 -307 241 -248 c 128,-1,25
 301 -189 301 -189 369 -79 c 1,26,27
 358 -20 358 -20 343 51.5 c 128,-1,28
 328 123 328 123 310 197.5 c 128,-1,29
 292 272 292 272 272.5 346 c 128,-1,30
 253 420 253 420 234 485.5 c 128,-1,31
 215 551 215 551 197 602.5 c 128,-1,32
 179 654 179 654 165 685 c 0,33,34
 142 736 142 736 126 751.5 c 128,-1,35
 110 767 110 767 93 767 c 0,36,37
 84 767 84 767 67.5 763.5 c 128,-1,38
 51 760 51 760 35 755 c 0,39,40
 16 750 16 750 -5 743 c 1,41,-1
 -25 810 l 1,42,43
 20 832 20 832 68 854.5 c 128,-1,44
 116 877 116 877 158.5 895 c 128,-1,45
 201 913 201 913 235 924.5 c 128,-1,46
 269 936 269 936 287 936 c 0,47,48
 315 936 315 936 336 907 c 128,-1,49
 357 878 357 878 381 809 c 0,50,51
 399 759 399 759 419 693.5 c 128,-1,52
 439 628 439 628 459.5 552.5 c 128,-1,53
 480 477 480 477 500 395 c 128,-1,54
 520 313 520 313 538 230 c 1,55,56
 579 312 579 312 615.5 391.5 c 128,-1,57
 652 471 652 471 679.5 538.5 c 128,-1,58
 707 606 707 606 723 656.5 c 128,-1,59
 739 707 739 707 739 731 c 0,60,61
 739 781 739 781 686 784 c 1,62,63
 669 786 669 786 650.5 780 c 128,-1,64
 632 774 632 774 603 761 c 1,65,-1
 577 828 l 1,66,67
 613 849 613 849 654 868.5 c 128,-1,68
 695 888 695 888 735 903 c 128,-1,69
 775 918 775 918 810.5 927 c 128,-1,70
 846 936 846 936 871 936 c 0,71,72
 888 936 888 936 904 933.5 c 128,-1,73
 920 931 920 931 933 923 c 128,-1,74
 946 915 946 915 953.5 900 c 128,-1,75
 961 885 961 885 961 860 c 0,0,1
EndSplineSet
EndChar

StartChar: z
Encoding: 122 122 93
Width: 784
GlyphClass: 2
Flags: W
AnchorPoint: "Anchor-4" 784 870 basechar 0
AnchorPoint: "Anchor-3" 344 -100 basechar 0
AnchorPoint: "Anchor-2" 403 0 basechar 0
AnchorPoint: "Anchor-1" 344 -100 basechar 0
AnchorPoint: "Anchor-0" 495 1000 basechar 0
LayerCount: 2
Fore
SplineSet
784 874 m 1,0,1
 729 815 729 815 685.5 761.5 c 128,-1,2
 642 708 642 708 604 657 c 128,-1,3
 566 606 566 606 531.5 555 c 128,-1,4
 497 504 497 504 459.5 450 c 128,-1,5
 422 396 422 396 380 336.5 c 128,-1,6
 338 277 338 277 285 210 c 1,7,8
 298 214 298 214 312 218 c 0,9,10
 324 221 324 221 338.5 223.5 c 128,-1,11
 353 226 353 226 367 226 c 0,12,13
 387 226 387 226 417.5 217.5 c 128,-1,14
 448 209 448 209 481 199 c 128,-1,15
 514 189 514 189 546.5 180.5 c 128,-1,16
 579 172 579 172 605 172 c 0,17,18
 614 172 614 172 626 175.5 c 128,-1,19
 638 179 638 179 652 190 c 128,-1,20
 666 201 666 201 682.5 223 c 128,-1,21
 699 245 699 245 718 281 c 1,22,-1
 777 246 l 1,23,24
 749 184 749 184 724 134.5 c 128,-1,25
 699 85 699 85 670.5 50.5 c 128,-1,26
 642 16 642 16 606.5 -2 c 128,-1,27
 571 -20 571 -20 522 -20 c 0,28,29
 478 -20 478 -20 435.5 -9.5 c 128,-1,30
 393 1 393 1 353.5 13.5 c 128,-1,31
 314 26 314 26 280 36.5 c 128,-1,32
 246 47 246 47 220 47 c 0,33,34
 188 47 188 47 141 27 c 128,-1,35
 94 7 94 7 18 -31 c 1,36,-1
 -18 19 l 1,37,38
 32 79 32 79 81.5 145.5 c 128,-1,39
 131 212 131 212 179 279 c 128,-1,40
 227 346 227 346 272 411.5 c 128,-1,41
 317 477 317 477 358 536 c 128,-1,42
 399 595 399 595 434.5 644 c 128,-1,43
 470 693 470 693 499 728 c 1,44,-1
 268 728 l 2,45,46
 244 728 244 728 226 722.5 c 128,-1,47
 208 717 208 717 193 701.5 c 128,-1,48
 178 686 178 686 165 659.5 c 128,-1,49
 152 633 152 633 137 591 c 1,50,-1
 72 607 l 1,51,52
 81 652 81 652 93 701 c 128,-1,53
 105 750 105 750 116 795 c 128,-1,54
 127 840 127 840 135.5 877.5 c 128,-1,55
 144 915 144 915 148 936 c 1,56,57
 167 931 167 931 200 923 c 128,-1,58
 233 915 233 915 268 915 c 2,59,-1
 756 915 l 1,60,-1
 784 874 l 1,0,1
EndSplineSet
EndChar

StartChar: braceleft
Encoding: 123 123 94
Width: 688
Flags: W
LayerCount: 2
Fore
SplineSet
788 1523 m 1,0,1
 748 1499 748 1499 714 1470 c 128,-1,2
 680 1441 680 1441 654 1408.5 c 128,-1,3
 628 1376 628 1376 611 1340 c 128,-1,4
 594 1304 594 1304 588 1267 c 1,5,6
 581 1214 581 1214 581.5 1173.5 c 128,-1,7
 582 1133 582 1133 583.5 1095 c 128,-1,8
 585 1057 585 1057 585.5 1016 c 128,-1,9
 586 975 586 975 579 923 c 0,10,11
 573 881 573 881 554 840.5 c 128,-1,12
 535 800 535 800 506 764.5 c 128,-1,13
 477 729 477 729 439.5 700 c 128,-1,14
 402 671 402 671 360 653 c 1,15,16
 451 635 451 635 485.5 565.5 c 128,-1,17
 520 496 520 496 504 385 c 0,18,19
 497 331 497 331 485 285 c 128,-1,20
 473 239 473 239 460 196.5 c 128,-1,21
 447 154 447 154 435.5 113 c 128,-1,22
 424 72 424 72 418 28 c 0,23,24
 412 -13 412 -13 413 -46.5 c 128,-1,25
 414 -80 414 -80 426.5 -110 c 128,-1,26
 439 -140 439 -140 465.5 -167.5 c 128,-1,27
 492 -195 492 -195 537 -224 c 1,28,-1
 490 -315 l 1,29,30
 409 -281 409 -281 347.5 -246 c 128,-1,31
 286 -211 286 -211 246 -167.5 c 128,-1,32
 206 -124 206 -124 190 -69.5 c 128,-1,33
 174 -15 174 -15 184 57 c 0,34,35
 191 110 191 110 202.5 152.5 c 128,-1,36
 214 195 214 195 227 236 c 128,-1,37
 240 277 240 277 252 321 c 128,-1,38
 264 365 264 365 272 422 c 0,39,40
 283 503 283 503 255 537 c 128,-1,41
 227 571 227 571 168 571 c 2,42,-1
 149 571 l 2,43,44
 143 571 143 571 138 570.5 c 128,-1,45
 133 570 133 570 126.5 568.5 c 128,-1,46
 120 567 120 567 107 565 c 1,47,-1
 102 648 l 1,48,49
 211 679 211 679 266.5 733.5 c 128,-1,50
 322 788 322 788 333 863 c 1,51,52
 340 918 340 918 340 958 c 128,-1,53
 340 998 340 998 338 1035.5 c 128,-1,54
 336 1073 336 1073 335.5 1113.5 c 128,-1,55
 335 1154 335 1154 343 1210 c 0,56,57
 352 1277 352 1277 387.5 1334 c 128,-1,58
 423 1391 423 1391 478.5 1439 c 128,-1,59
 534 1487 534 1487 606 1526.5 c 128,-1,60
 678 1566 678 1566 761 1600 c 1,61,-1
 788 1523 l 1,0,1
EndSplineSet
EndChar

StartChar: bar
Encoding: 124 124 95
Width: 440
Flags: W
LayerCount: 2
Fore
SplineSet
193 -274 m 1,0,1
 183 -281 183 -281 166.5 -290 c 128,-1,2
 150 -299 150 -299 131.5 -308 c 128,-1,3
 113 -317 113 -317 95 -324.5 c 128,-1,4
 77 -332 77 -332 65 -336 c 1,5,-1
 28 -304 l 1,6,-1
 289 1539 l 1,7,8
 317 1556 317 1556 352 1573.5 c 128,-1,9
 387 1591 387 1591 416 1599 c 1,10,-1
 453 1570 l 1,11,-1
 193 -274 l 1,0,1
EndSplineSet
EndChar

StartChar: braceright
Encoding: 125 125 96
Width: 687
Flags: W
LayerCount: 2
Fore
SplineSet
603 636 m 1,0,1
 494 605 494 605 438.5 551 c 128,-1,2
 383 497 383 497 372 421 c 0,3,4
 364 366 364 366 364.5 326 c 128,-1,5
 365 286 365 286 367.5 249 c 128,-1,6
 370 212 370 212 370 171.5 c 128,-1,7
 370 131 370 131 363 75 c 1,8,9
 353 7 353 7 317 -49.5 c 128,-1,10
 281 -106 281 -106 225.5 -154 c 128,-1,11
 170 -202 170 -202 98 -242 c 128,-1,12
 26 -282 26 -282 -56 -316 c 1,13,-1
 -82 -238 l 1,14,15
 -3 -189 -3 -189 51.5 -123.5 c 128,-1,16
 106 -58 106 -58 116 18 c 0,17,18
 123 70 123 70 123 110.5 c 128,-1,19
 123 151 123 151 121.5 189.5 c 128,-1,20
 120 228 120 228 119.5 268.5 c 128,-1,21
 119 309 119 309 126 362 c 0,22,23
 132 404 132 404 151 444 c 128,-1,24
 170 484 170 484 199.5 519.5 c 128,-1,25
 229 555 229 555 266 584 c 128,-1,26
 303 613 303 613 345 631 c 1,27,28
 254 650 254 650 220 719 c 128,-1,29
 186 788 186 788 201 900 c 0,30,31
 208 954 208 954 220.5 1000 c 128,-1,32
 233 1046 233 1046 245.5 1088 c 128,-1,33
 258 1130 258 1130 269.5 1171 c 128,-1,34
 281 1212 281 1212 287 1256 c 0,35,36
 293 1297 293 1297 292 1331 c 128,-1,37
 291 1365 291 1365 278.5 1394.5 c 128,-1,38
 266 1424 266 1424 239 1451.5 c 128,-1,39
 212 1479 212 1479 167 1508 c 1,40,-1
 216 1599 l 1,41,42
 297 1566 297 1566 358.5 1530.5 c 128,-1,43
 420 1495 420 1495 459.5 1452 c 128,-1,44
 499 1409 499 1409 515 1354.5 c 128,-1,45
 531 1300 531 1300 521 1228 c 0,46,47
 513 1175 513 1175 501.5 1132.5 c 128,-1,48
 490 1090 490 1090 477.5 1048.5 c 128,-1,49
 465 1007 465 1007 453 963 c 128,-1,50
 441 919 441 919 434 863 c 1,51,52
 422 782 422 782 450 748 c 128,-1,53
 478 714 478 714 537 714 c 2,54,-1
 556 714 l 2,55,56
 562 714 562 714 566.5 714.5 c 128,-1,57
 571 715 571 715 578 716 c 128,-1,58
 585 717 585 717 599 720 c 1,59,-1
 603 636 l 1,0,1
EndSplineSet
EndChar

StartChar: asciitilde
Encoding: 126 126 97
Width: 984
Flags: W
LayerCount: 2
Fore
SplineSet
950 774 m 1,0,1
 924 725 924 725 887 672.5 c 128,-1,2
 850 620 850 620 807 576.5 c 128,-1,3
 764 533 764 533 718 505 c 128,-1,4
 672 477 672 477 628 477 c 0,5,6
 589 477 589 477 548.5 502 c 128,-1,7
 508 527 508 527 467.5 557 c 128,-1,8
 427 587 427 587 386 612 c 128,-1,9
 345 637 345 637 305 637 c 0,10,11
 259 637 259 637 215 598 c 128,-1,12
 171 559 171 559 121 475 c 1,13,-1
 75 502 l 1,14,15
 102 551 102 551 139 603.5 c 128,-1,16
 176 656 176 656 218.5 699.5 c 128,-1,17
 261 743 261 743 307 771 c 128,-1,18
 353 799 353 799 397 799 c 0,19,20
 440 799 440 799 481.5 774 c 128,-1,21
 523 749 523 749 563.5 719 c 128,-1,22
 604 689 604 689 642.5 664 c 128,-1,23
 681 639 681 639 719 639 c 0,24,25
 763 639 763 639 808.5 678 c 128,-1,26
 854 717 854 717 904 799 c 1,27,-1
 950 774 l 1,0,1
EndSplineSet
EndChar

StartChar: Ccedilla
Encoding: 199 199 100
Width: 1040
GlyphClass: 2
Flags: W
AnchorPoint: "Anchor-4" 1040 870 basechar 0
AnchorPoint: "Anchor-3" 406 -600 basechar 0
AnchorPoint: "Anchor-2" 406 -600 basechar 0
AnchorPoint: "Anchor-1" 406 -600 basechar 0
AnchorPoint: "Anchor-0" 701 1320 basechar 0
LayerCount: 2
Fore
SplineSet
637 -221 m 0,0,1
 637 -274 637 -274 603 -318 c 128,-1,2
 569 -362 569 -362 513.5 -387 c 128,-1,3
 458 -412 458 -412 386.5 -411.5 c 128,-1,4
 315 -411 315 -411 240 -375 c 1,5,-1
 238 -306 l 1,6,7
 280 -323 280 -323 315 -325.5 c 128,-1,8
 350 -328 350 -328 374.5 -320 c 128,-1,9
 399 -312 399 -312 413 -296.5 c 128,-1,10
 427 -281 427 -281 427 -261 c 0,11,12
 427 -240 427 -240 406.5 -226.5 c 128,-1,13
 386 -213 386 -213 357 -215 c 1,14,15
 372 -183 372 -183 384 -155 c 128,-1,16
 396 -127 396 -127 405.5 -101 c 128,-1,17
 415 -75 415 -75 422 -49 c 0,18,19
 426 -37 426 -37 429 -24 c 1,20,21
 370 -17 370 -17 317 5 c 0,22,23
 241 38 241 38 184 100 c 128,-1,24
 127 162 127 162 94 252.5 c 128,-1,25
 61 343 61 343 61 459 c 0,26,27
 61 553 61 553 81 650.5 c 128,-1,28
 101 748 101 748 141.5 840.5 c 128,-1,29
 182 933 182 933 244 1016.5 c 128,-1,30
 306 1100 306 1100 390 1167 c 0,31,32
 426 1195 426 1195 470.5 1218 c 128,-1,33
 515 1241 515 1241 562.5 1257 c 128,-1,34
 610 1273 610 1273 659.5 1281.5 c 128,-1,35
 709 1290 709 1290 756 1290 c 0,36,37
 805 1290 805 1290 853 1282 c 128,-1,38
 901 1274 901 1274 943.5 1260.5 c 128,-1,39
 986 1247 986 1247 1020 1229 c 128,-1,40
 1054 1211 1054 1211 1076 1190 c 0,41,42
 1078 1187 1078 1187 1072 1172 c 128,-1,43
 1066 1157 1066 1157 1055 1135.5 c 128,-1,44
 1044 1114 1044 1114 1029.5 1089 c 128,-1,45
 1015 1064 1015 1064 1000 1041.5 c 128,-1,46
 985 1019 985 1019 971.5 1000.5 c 128,-1,47
 958 982 958 982 949 975 c 1,48,-1
 889 990 l 1,49,50
 875 1022 875 1022 855.5 1051.5 c 128,-1,51
 836 1081 836 1081 809.5 1104 c 128,-1,52
 783 1127 783 1127 749.5 1140.5 c 128,-1,53
 716 1154 716 1154 675 1154 c 0,54,55
 635 1154 635 1154 598 1142.5 c 128,-1,56
 561 1131 561 1131 521 1100 c 0,57,58
 458 1051 458 1051 416 977 c 128,-1,59
 374 903 374 903 348.5 821.5 c 128,-1,60
 323 740 323 740 312.5 659.5 c 128,-1,61
 302 579 302 579 302 516 c 0,62,63
 302 407 302 407 330 333.5 c 128,-1,64
 358 260 358 260 400.5 216 c 128,-1,65
 443 172 443 172 493 153 c 128,-1,66
 543 134 543 134 588 134 c 0,67,68
 613 134 613 134 645.5 139.5 c 128,-1,69
 678 145 678 145 718.5 161.5 c 128,-1,70
 759 178 759 178 809 206 c 128,-1,71
 859 234 859 234 921 279 c 1,72,73
 926 277 926 277 931.5 267 c 128,-1,74
 937 257 937 257 942 245.5 c 128,-1,75
 947 234 947 234 951 224 c 128,-1,76
 955 214 955 214 957 211 c 1,77,78
 889 143 889 143 823.5 97.5 c 128,-1,79
 758 52 758 52 697.5 24.5 c 128,-1,80
 637 -3 637 -3 582 -15 c 0,81,82
 555 -21 555 -21 529 -24 c 1,83,84
 527 -39 527 -39 523 -55 c 0,85,86
 517 -84 517 -84 512 -98 c 1,87,88
 575 -100 575 -100 606 -136 c 128,-1,89
 637 -172 637 -172 637 -221 c 0,0,1
EndSplineSet
Ligature2: "'ccmp' Glyph Composition/Decomposition lookup 3 subtable" C uni0327
EndChar

StartChar: ccedilla
Encoding: 231 231 111
Width: 873
GlyphClass: 2
Flags: W
AnchorPoint: "Anchor-4" 961 870 basechar 0
AnchorPoint: "Anchor-3" 327 -600 basechar 0
AnchorPoint: "Anchor-2" 327 -600 basechar 0
AnchorPoint: "Anchor-1" 327 -600 basechar 0
AnchorPoint: "Anchor-0" 586 1000 basechar 0
LayerCount: 2
Fore
SplineSet
558 -221 m 0,0,1
 558 -274 558 -274 524 -318 c 128,-1,2
 490 -362 490 -362 434.5 -387 c 128,-1,3
 379 -412 379 -412 307.5 -411.5 c 128,-1,4
 236 -411 236 -411 161 -375 c 1,5,-1
 159 -306 l 1,6,7
 201 -323 201 -323 236 -325.5 c 128,-1,8
 271 -328 271 -328 295.5 -320 c 128,-1,9
 320 -312 320 -312 334 -296.5 c 128,-1,10
 348 -281 348 -281 348 -261 c 0,11,12
 348 -240 348 -240 327.5 -226.5 c 128,-1,13
 307 -213 307 -213 278 -215 c 1,14,15
 293 -183 293 -183 305 -155 c 128,-1,16
 317 -127 317 -127 326.5 -101 c 128,-1,17
 336 -75 336 -75 343 -49 c 0,18,19
 344 -45 344 -45 346 -41 c 1,20,21
 307 -39 307 -39 261 -24 c 0,22,23
 212 -7 212 -7 169.5 35 c 128,-1,24
 127 77 127 77 99 147 c 128,-1,25
 71 217 71 217 71 322 c 0,26,27
 71 389 71 389 85 458 c 128,-1,28
 99 527 99 527 130.5 592.5 c 128,-1,29
 162 658 162 658 212.5 718 c 128,-1,30
 263 778 263 778 337 827 c 0,31,32
 365 845 365 845 402 864.5 c 128,-1,33
 439 884 439 884 481 900 c 128,-1,34
 523 916 523 916 567 926 c 128,-1,35
 611 936 611 936 653 936 c 0,36,37
 697 936 697 936 732 921.5 c 128,-1,38
 767 907 767 907 796.5 888 c 128,-1,39
 826 869 826 869 852.5 850.5 c 128,-1,40
 879 832 879 832 906 823 c 1,41,42
 885 802 885 802 856 775.5 c 128,-1,43
 827 749 827 749 797 725 c 128,-1,44
 767 701 767 701 740 685 c 128,-1,45
 713 669 713 669 697 669 c 256,46,47
 681 669 681 669 664.5 688.5 c 128,-1,48
 648 708 648 708 628.5 731.5 c 128,-1,49
 609 755 609 755 585.5 774.5 c 128,-1,50
 562 794 562 794 533 794 c 0,51,52
 479 794 479 794 436.5 757 c 128,-1,53
 394 720 394 720 365.5 661.5 c 128,-1,54
 337 603 337 603 322 530.5 c 128,-1,55
 307 458 307 458 307 388 c 0,56,57
 307 323 307 323 317.5 272.5 c 128,-1,58
 328 222 328 222 347.5 186.5 c 128,-1,59
 367 151 367 151 393 132.5 c 128,-1,60
 419 114 419 114 451 114 c 0,61,62
 505 114 505 114 580.5 153.5 c 128,-1,63
 656 193 656 193 764 281 c 1,64,65
 768 276 768 276 775 265.5 c 128,-1,66
 782 255 782 255 790 244 c 128,-1,67
 798 233 798 233 804.5 223.5 c 128,-1,68
 811 214 811 214 813 210 c 1,69,70
 735 139 735 139 670 90.5 c 128,-1,71
 605 42 605 42 549 13 c 0,72,73
 496 -15 496 -15 450 -27 c 1,74,-1
 444 -55 l 2,75,76
 438 -84 438 -84 433 -98 c 1,77,78
 496 -100 496 -100 527 -136 c 128,-1,79
 558 -172 558 -172 558 -221 c 0,0,1
EndSplineSet
Ligature2: "'ccmp' Glyph Composition/Decomposition lookup 3 subtable" c uni0327
EndChar

StartChar: dagger
Encoding: 8224 8224 130
Width: 914
Flags: W
LayerCount: 2
Fore
SplineSet
971 1112 m 1,0,1
 962 1095 962 1095 943.5 1062.5 c 128,-1,2
 925 1030 925 1030 903 994 c 128,-1,3
 881 958 881 958 859.5 924.5 c 128,-1,4
 838 891 838 891 824 872 c 1,5,6
 797 891 797 891 771 905.5 c 128,-1,7
 745 920 745 920 717.5 931 c 128,-1,8
 690 942 690 942 660.5 949 c 128,-1,9
 631 956 631 956 596 959 c 1,10,11
 591 891 591 891 597.5 819 c 128,-1,12
 604 747 604 747 624 680 c 1,13,14
 576 569 576 569 545.5 469 c 128,-1,15
 515 369 515 369 501 273 c 0,16,17
 492 215 492 215 494 156.5 c 128,-1,18
 496 98 496 98 513 37 c 1,19,20
 504 30 504 30 481 18.5 c 128,-1,21
 458 7 458 7 431.5 -4.5 c 128,-1,22
 405 -16 405 -16 380.5 -26 c 128,-1,23
 356 -36 356 -36 345 -40 c 1,24,-1
 316 -12 l 1,25,26
 331 22 331 22 344.5 59 c 128,-1,27
 358 96 358 96 369.5 133.5 c 128,-1,28
 381 171 381 171 389 207 c 128,-1,29
 397 243 397 243 401 273 c 0,30,31
 413 372 413 372 410 471 c 128,-1,32
 407 570 407 570 390 680 c 1,33,34
 428 747 428 747 453.5 819 c 128,-1,35
 479 891 479 891 493 959 c 1,36,37
 408 951 408 951 326.5 930 c 128,-1,38
 245 909 245 909 160 872 c 1,39,-1
 138 923 l 1,40,41
 147 940 147 940 166 972 c 128,-1,42
 185 1004 185 1004 207 1040 c 128,-1,43
 229 1076 229 1076 250.5 1109.5 c 128,-1,44
 272 1143 272 1143 286 1162 c 1,45,46
 313 1144 313 1144 338.5 1129.5 c 128,-1,47
 364 1115 364 1115 390.5 1104.5 c 128,-1,48
 417 1094 417 1094 446 1087 c 128,-1,49
 475 1080 475 1080 509 1077 c 1,50,51
 515 1157 515 1157 504.5 1223.5 c 128,-1,52
 494 1290 494 1290 468 1361 c 1,53,54
 487 1373 487 1373 520 1390.5 c 128,-1,55
 553 1408 553 1408 587.5 1425.5 c 128,-1,56
 622 1443 622 1443 653.5 1458 c 128,-1,57
 685 1473 685 1473 701 1480 c 1,58,-1
 741 1448 l 1,59,60
 696 1357 696 1357 663.5 1263 c 128,-1,61
 631 1169 631 1169 613 1077 c 1,62,63
 698 1084 698 1084 780.5 1104.5 c 128,-1,64
 863 1125 863 1125 949 1162 c 1,65,-1
 971 1112 l 1,0,1
EndSplineSet
EndChar

StartChar: degree
Encoding: 176 176 131
Width: 669
Flags: W
LayerCount: 2
Fore
SplineSet
407 874 m 0,0,1
 434 874 434 874 455.5 887.5 c 128,-1,2
 477 901 477 901 492 922 c 128,-1,3
 507 943 507 943 515.5 969 c 128,-1,4
 524 995 524 995 524 1021 c 0,5,6
 524 1039 524 1039 519 1057 c 128,-1,7
 514 1075 514 1075 504.5 1089 c 128,-1,8
 495 1103 495 1103 480.5 1111.5 c 128,-1,9
 466 1120 466 1120 447 1120 c 0,10,11
 426 1120 426 1120 405 1108.5 c 128,-1,12
 384 1097 384 1097 367 1077.5 c 128,-1,13
 350 1058 350 1058 339.5 1031 c 128,-1,14
 329 1004 329 1004 329 974 c 0,15,16
 329 927 329 927 352 900.5 c 128,-1,17
 375 874 375 874 407 874 c 0,0,1
667 1073 m 0,18,19
 667 1000 667 1000 636.5 938.5 c 128,-1,20
 606 877 606 877 559.5 832 c 128,-1,21
 513 787 513 787 458 762 c 128,-1,22
 403 737 403 737 354 737 c 0,23,24
 309 737 309 737 277.5 753 c 128,-1,25
 246 769 246 769 225.5 794.5 c 128,-1,26
 205 820 205 820 195.5 852.5 c 128,-1,27
 186 885 186 885 186 918 c 0,28,29
 186 987 186 987 215.5 1048.5 c 128,-1,30
 245 1110 245 1110 290.5 1156.5 c 128,-1,31
 336 1203 336 1203 391 1230.5 c 128,-1,32
 446 1258 446 1258 498 1258 c 0,33,34
 538 1258 538 1258 569.5 1243 c 128,-1,35
 601 1228 601 1228 623 1202.5 c 128,-1,36
 645 1177 645 1177 656 1143.5 c 128,-1,37
 667 1110 667 1110 667 1073 c 0,18,19
EndSplineSet
EndChar

StartChar: cent
Encoding: 162 162 132
Width: 932
Flags: W
LayerCount: 2
Fore
SplineSet
318 510 m 0,0,1
 318 418 318 418 347 362 c 128,-1,2
 376 306 376 306 417 282 c 1,3,-1
 503 907 l 1,4,5
 460 887 460 887 425.5 844.5 c 128,-1,6
 391 802 391 802 367 747 c 128,-1,7
 343 692 343 692 330.5 630 c 128,-1,8
 318 568 318 568 318 510 c 0,0,1
636 1054 m 1,9,10
 644 1054 644 1054 653 1054.5 c 128,-1,11
 662 1055 662 1055 671 1055 c 0,12,13
 718 1055 718 1055 760 1038.5 c 128,-1,14
 802 1022 802 1022 838 1001 c 128,-1,15
 874 980 874 980 903.5 960.5 c 128,-1,16
 933 941 933 941 954 936 c 1,17,18
 942 926 942 926 925 908.5 c 128,-1,19
 908 891 908 891 889 871 c 128,-1,20
 870 851 870 851 849.5 830.5 c 128,-1,21
 829 810 829 810 810.5 793.5 c 128,-1,22
 792 777 792 777 776.5 766.5 c 128,-1,23
 761 756 761 756 751 756 c 0,24,25
 740 756 740 756 727 774.5 c 128,-1,26
 714 793 714 793 698.5 818 c 128,-1,27
 683 843 683 843 662.5 869 c 128,-1,28
 642 895 642 895 616 909 c 1,29,-1
 527 266 l 1,30,31
 554 271 554 271 582 284 c 128,-1,32
 610 297 610 297 641.5 318.5 c 128,-1,33
 673 340 673 340 710 369.5 c 128,-1,34
 747 399 747 399 793 437 c 1,35,36
 797 431 797 431 804.5 420.5 c 128,-1,37
 812 410 812 410 820 399 c 128,-1,38
 828 388 828 388 834.5 378 c 128,-1,39
 841 368 841 368 843 364 c 1,40,41
 786 312 786 312 739.5 272.5 c 128,-1,42
 693 233 693 233 653.5 204 c 128,-1,43
 614 175 614 175 578.5 156 c 128,-1,44
 543 137 543 137 508 126 c 1,45,-1
 491 5 l 1,46,47
 473 -12 473 -12 445 -26.5 c 128,-1,48
 417 -41 417 -41 394 -49 c 1,49,-1
 375 -27 l 1,50,-1
 394 111 l 1,51,52
 365 111 365 111 331.5 118.5 c 128,-1,53
 298 126 298 126 264 143 c 128,-1,54
 230 160 230 160 198.5 187 c 128,-1,55
 167 214 167 214 142.5 254 c 128,-1,56
 118 294 118 294 103.5 347.5 c 128,-1,57
 89 401 89 401 89 471 c 0,58,59
 89 538 89 538 107.5 606.5 c 128,-1,60
 126 675 126 675 163.5 740 c 128,-1,61
 201 805 201 805 256.5 864.5 c 128,-1,62
 312 924 312 924 386 973 c 0,63,64
 415 992 415 992 448.5 1007.5 c 128,-1,65
 482 1023 482 1023 521 1034 c 1,66,-1
 539 1164 l 1,67,68
 565 1182 565 1182 586 1195.5 c 128,-1,69
 607 1209 607 1209 635 1217 c 1,70,-1
 655 1194 l 1,71,-1
 636 1054 l 1,9,10
EndSplineSet
EndChar

StartChar: sterling
Encoding: 163 163 133
Width: 932
Flags: W
LayerCount: 2
Fore
SplineSet
627 521 m 1,0,-1
 383 521 l 1,1,2
 370 403 370 403 331.5 310 c 128,-1,3
 293 217 293 217 232 139 c 1,4,5
 274 143 274 143 304.5 144 c 128,-1,6
 335 145 335 145 358.5 144.5 c 128,-1,7
 382 144 382 144 401.5 143 c 128,-1,8
 421 142 421 142 442 140.5 c 128,-1,9
 463 139 463 139 487.5 138.5 c 128,-1,10
 512 138 512 138 546 139 c 0,11,12
 589 140 589 140 621 148.5 c 128,-1,13
 653 157 653 157 679 178 c 128,-1,14
 705 199 705 199 729.5 236 c 128,-1,15
 754 273 754 273 782 332 c 1,16,-1
 846 307 l 1,17,18
 836 264 836 264 823.5 216 c 128,-1,19
 811 168 811 168 798 125 c 128,-1,20
 785 82 785 82 774.5 48.5 c 128,-1,21
 764 15 764 15 759 0 c 1,22,23
 714 -25 714 -25 652 -28 c 128,-1,24
 590 -31 590 -31 518.5 -24 c 128,-1,25
 447 -17 447 -17 370.5 -5.5 c 128,-1,26
 294 6 294 6 221 11 c 128,-1,27
 148 16 148 16 82.5 8.5 c 128,-1,28
 17 1 17 1 -33 -30 c 1,29,-1
 -58 42 l 1,30,31
 -27 67 -27 67 -2 89 c 128,-1,32
 23 111 23 111 42.5 137 c 128,-1,33
 62 163 62 163 76 195.5 c 128,-1,34
 90 228 90 228 101 273 c 128,-1,35
 112 318 112 318 120 378.5 c 128,-1,36
 128 439 128 439 135 521 c 1,37,-1
 28 521 l 1,38,-1
 6 554 l 1,39,40
 9 561 9 561 15 573 c 128,-1,41
 21 585 21 585 28 597.5 c 128,-1,42
 35 610 35 610 41.5 622 c 128,-1,43
 48 634 48 634 52 642 c 1,44,-1
 145 642 l 1,45,46
 161 774 161 774 205 883 c 128,-1,47
 249 992 249 992 316 1070 c 128,-1,48
 383 1148 383 1148 471 1191.5 c 128,-1,49
 559 1235 559 1235 663 1235 c 0,50,51
 687 1235 687 1235 717 1233 c 128,-1,52
 747 1231 747 1231 781 1223.5 c 128,-1,53
 815 1216 815 1216 852.5 1202.5 c 128,-1,54
 890 1189 890 1189 929 1165 c 1,55,56
 926 1148 926 1148 920.5 1121.5 c 128,-1,57
 915 1095 915 1095 908 1064 c 128,-1,58
 901 1033 901 1033 893 1000 c 128,-1,59
 885 967 885 967 877.5 937.5 c 128,-1,60
 870 908 870 908 862.5 884.5 c 128,-1,61
 855 861 855 861 850 848 c 1,62,-1
 778 848 l 1,63,64
 782 972 782 972 742 1043 c 128,-1,65
 702 1114 702 1114 619 1114 c 0,66,67
 600 1114 600 1114 578 1110 c 128,-1,68
 556 1106 556 1106 532.5 1090.5 c 128,-1,69
 509 1075 509 1075 486.5 1045 c 128,-1,70
 464 1015 464 1015 445 962.5 c 128,-1,71
 426 910 426 910 411.5 831.5 c 128,-1,72
 397 753 397 753 391 642 c 1,73,-1
 651 642 l 1,74,-1
 678 612 l 1,75,-1
 627 521 l 1,0,-1
EndSplineSet
EndChar

StartChar: section
Encoding: 167 167 134
Width: 922
Flags: W
LayerCount: 2
Fore
SplineSet
639 511 m 1,0,1
 654 531 654 531 664.5 554.5 c 128,-1,2
 675 578 675 578 679 604 c 0,3,4
 686 654 686 654 676.5 692 c 128,-1,5
 667 730 667 730 641 763 c 128,-1,6
 615 796 615 796 572.5 828 c 128,-1,7
 530 860 530 860 470 899 c 1,8,9
 443 915 443 915 416 935 c 1,10,11
 394 912 394 912 378.5 883.5 c 128,-1,12
 363 855 363 855 359 828 c 0,13,14
 353 784 353 784 363 751 c 128,-1,15
 373 718 373 718 398.5 688 c 128,-1,16
 424 658 424 658 465.5 627.5 c 128,-1,17
 507 597 507 597 563 559 c 1,18,-1
 639 511 l 1,0,1
880 669 m 0,19,20
 868 584 868 584 830.5 518.5 c 128,-1,21
 793 453 793 453 745 410 c 1,22,23
 762 382 762 382 769.5 349.5 c 128,-1,24
 777 317 777 317 772 278 c 0,25,26
 762 207 762 207 736 157 c 128,-1,27
 710 107 710 107 674 72.5 c 128,-1,28
 638 38 638 38 596.5 18 c 128,-1,29
 555 -2 555 -2 513.5 -13 c 128,-1,30
 472 -24 472 -24 435.5 -27 c 128,-1,31
 399 -30 399 -30 373 -30 c 0,32,33
 344 -30 344 -30 310.5 -25 c 128,-1,34
 277 -20 277 -20 243.5 -10.5 c 128,-1,35
 210 -1 210 -1 177.5 13 c 128,-1,36
 145 27 145 27 118 46 c 0,37,38
 114 48 114 48 113.5 63.5 c 128,-1,39
 113 79 113 79 115 103.5 c 128,-1,40
 117 128 117 128 121.5 158.5 c 128,-1,41
 126 189 126 189 132.5 221 c 128,-1,42
 139 253 139 253 147 283.5 c 128,-1,43
 155 314 155 314 164 338 c 1,44,-1
 235 327 l 1,45,46
 237 274 237 274 252 230.5 c 128,-1,47
 267 187 267 187 291.5 156 c 128,-1,48
 316 125 316 125 349 108 c 128,-1,49
 382 91 382 91 421 91 c 0,50,51
 486 91 486 91 520.5 115.5 c 128,-1,52
 555 140 555 140 563 200 c 0,53,54
 569 240 569 240 551.5 271.5 c 128,-1,55
 534 303 534 303 503.5 329.5 c 128,-1,56
 473 356 473 356 434 379.5 c 128,-1,57
 395 403 395 403 357 427 c 0,58,59
 318 452 318 452 278.5 484.5 c 128,-1,60
 239 517 239 517 210 559.5 c 128,-1,61
 181 602 181 602 166.5 656 c 128,-1,62
 152 710 152 710 161 779 c 0,63,64
 166 813 166 813 180.5 847 c 128,-1,65
 195 881 195 881 216 912.5 c 128,-1,66
 237 944 237 944 264.5 971.5 c 128,-1,67
 292 999 292 999 322 1020 c 1,68,69
 295 1054 295 1054 280 1092.5 c 128,-1,70
 265 1131 265 1131 272 1178 c 0,71,72
 281 1240 281 1240 314.5 1289 c 128,-1,73
 348 1338 348 1338 397.5 1371.5 c 128,-1,74
 447 1405 447 1405 507.5 1422.5 c 128,-1,75
 568 1440 568 1440 629 1440 c 0,76,77
 668 1440 668 1440 706.5 1434.5 c 128,-1,78
 745 1429 745 1429 779.5 1418.5 c 128,-1,79
 814 1408 814 1408 842 1393.5 c 128,-1,80
 870 1379 870 1379 888 1361 c 0,81,82
 893 1356 893 1356 885.5 1327.5 c 128,-1,83
 878 1299 878 1299 865 1263.5 c 128,-1,84
 852 1228 852 1228 836 1193.5 c 128,-1,85
 820 1159 820 1159 807 1143 c 1,86,-1
 746 1151 l 1,87,88
 735 1240 735 1240 699.5 1287.5 c 128,-1,89
 664 1335 664 1335 605 1335 c 0,90,91
 551 1335 551 1335 517.5 1310 c 128,-1,92
 484 1285 484 1285 478 1240 c 0,93,94
 473 1207 473 1207 486 1181.5 c 128,-1,95
 499 1156 499 1156 526 1133 c 128,-1,96
 553 1110 553 1110 591 1086 c 128,-1,97
 629 1062 629 1062 676 1032 c 0,98,99
 716 1006 716 1006 757 974.5 c 128,-1,100
 798 943 798 943 828.5 900 c 128,-1,101
 859 857 859 857 874.5 801 c 128,-1,102
 890 745 890 745 880 669 c 0,19,20
EndSplineSet
EndChar

StartChar: bullet
Encoding: 8226 8226 135
Width: 529
Flags: W
LayerCount: 2
Fore
SplineSet
479 713 m 0,0,1
 479 657 479 657 461.5 599 c 128,-1,2
 444 541 444 541 410.5 494.5 c 128,-1,3
 377 448 377 448 328 418.5 c 128,-1,4
 279 389 279 389 215 389 c 0,5,6
 177 389 177 389 149 402 c 128,-1,7
 121 415 121 415 102.5 438 c 128,-1,8
 84 461 84 461 75 492 c 128,-1,9
 66 523 66 523 66 559 c 0,10,11
 66 615 66 615 84 673 c 128,-1,12
 102 731 102 731 136.5 778 c 128,-1,13
 171 825 171 825 220.5 855 c 128,-1,14
 270 885 270 885 332 885 c 0,15,16
 370 885 370 885 398 871.5 c 128,-1,17
 426 858 426 858 444 834.5 c 128,-1,18
 462 811 462 811 470.5 779.5 c 128,-1,19
 479 748 479 748 479 713 c 0,0,1
EndSplineSet
EndChar

StartChar: paragraph
Encoding: 182 182 136
Width: 1109
Flags: W
LayerCount: 2
Fore
SplineSet
1135 1187 m 1,0,1
 1071 1173 1071 1173 1037 1156 c 128,-1,2
 1003 1139 1003 1139 1001 1125 c 2,3,-1
 830 -115 l 2,4,5
 828 -128 828 -128 855 -145.5 c 128,-1,6
 882 -163 882 -163 947 -177 c 1,7,-1
 936 -250 l 1,8,-1
 324 -250 l 1,9,-1
 334 -177 l 1,10,11
 398 -163 398 -163 432.5 -146 c 128,-1,12
 467 -129 467 -129 469 -115 c 2,13,-1
 558 525 l 1,14,15
 541 522 541 522 521.5 520.5 c 128,-1,16
 502 519 502 519 477 519 c 0,17,18
 380 519 380 519 300.5 544 c 128,-1,19
 221 569 221 569 167 617.5 c 128,-1,20
 113 666 113 666 88.5 737.5 c 128,-1,21
 64 809 64 809 77 903 c 0,22,23
 89 988 89 988 131 1059 c 128,-1,24
 173 1130 173 1130 239.5 1181.5 c 128,-1,25
 306 1233 306 1233 394.5 1261.5 c 128,-1,26
 483 1290 483 1290 587 1290 c 0,27,28
 607 1290 607 1290 639 1288.5 c 128,-1,29
 671 1287 671 1287 710 1285 c 128,-1,30
 749 1283 749 1283 792 1280.5 c 128,-1,31
 835 1278 835 1278 877 1275 c 2,32,-1
 1087 1260 l 1,33,-1
 1144 1260 l 1,34,-1
 1135 1187 l 1,0,1
572 633 m 1,35,-1
 648 1174 l 1,36,37
 630 1176 630 1176 615 1176 c 2,38,-1
 588 1176 l 2,39,40
 544 1176 544 1176 499.5 1160 c 128,-1,41
 455 1144 455 1144 417.5 1113 c 128,-1,42
 380 1082 380 1082 353.5 1038 c 128,-1,43
 327 994 327 994 320 938 c 1,44,45
 312 884 312 884 319.5 829.5 c 128,-1,46
 327 775 327 775 352 731.5 c 128,-1,47
 377 688 377 688 421 660.5 c 128,-1,48
 465 633 465 633 532 633 c 2,49,-1
 572 633 l 1,35,-1
860 1142 m 1,50,51
 843 1147 843 1147 825 1151 c 128,-1,52
 807 1155 807 1155 789 1157 c 1,53,-1
 614 -115 l 2,54,55
 613 -121 613 -121 616 -126 c 128,-1,56
 619 -131 619 -131 624 -135 c 128,-1,57
 629 -139 629 -139 634.5 -142 c 128,-1,58
 640 -145 640 -145 645 -146 c 1,59,60
 656 -143 656 -143 670 -134.5 c 128,-1,61
 684 -126 684 -126 686 -115 c 2,62,-1
 860 1142 l 1,50,51
EndSplineSet
EndChar

StartChar: germandbls
Encoding: 223 223 137
Width: 1122
GlyphClass: 2
Flags: W
AnchorPoint: "Anchor-4" 1122 870 basechar 0
AnchorPoint: "Anchor-3" 436 -100 basechar 0
AnchorPoint: "Anchor-2" 436 -100 basechar 0
AnchorPoint: "Anchor-1" 436 -100 basechar 0
AnchorPoint: "Anchor-0" 674 1640 basechar 0
LayerCount: 2
Fore
SplineSet
1075 1225 m 0,0,1
 1075 1142 1075 1142 1051 1085.5 c 128,-1,2
 1027 1029 1027 1029 991 989 c 128,-1,3
 955 949 955 949 913 920 c 128,-1,4
 871 891 871 891 835 864 c 128,-1,5
 799 837 799 837 775 806 c 128,-1,6
 751 775 751 775 751 731 c 0,7,8
 751 695 751 695 775 666 c 128,-1,9
 799 637 799 637 835 609.5 c 128,-1,10
 871 582 871 582 912.5 554 c 128,-1,11
 954 526 954 526 990 491.5 c 128,-1,12
 1026 457 1026 457 1050 413 c 128,-1,13
 1074 369 1074 369 1074 311 c 0,14,15
 1074 249 1074 249 1041.5 186.5 c 128,-1,16
 1009 124 1009 124 952.5 73.5 c 128,-1,17
 896 23 896 23 821.5 -9 c 128,-1,18
 747 -41 747 -41 663 -41 c 0,19,20
 621 -41 621 -41 576 -25.5 c 128,-1,21
 531 -10 531 -10 494.5 13.5 c 128,-1,22
 458 37 458 37 434 63.5 c 128,-1,23
 410 90 410 90 410 112 c 0,24,25
 410 119 410 119 416.5 135.5 c 128,-1,26
 423 152 423 152 433 172.5 c 128,-1,27
 443 193 443 193 456 215 c 128,-1,28
 469 237 469 237 482 255.5 c 128,-1,29
 495 274 495 274 506 286 c 128,-1,30
 517 298 517 298 525 298 c 0,31,32
 531 298 531 298 540 282.5 c 128,-1,33
 549 267 549 267 560.5 243.5 c 128,-1,34
 572 220 572 220 586.5 192.5 c 128,-1,35
 601 165 601 165 619.5 141.5 c 128,-1,36
 638 118 638 118 661 102.5 c 128,-1,37
 684 87 684 87 711 87 c 0,38,39
 737 87 737 87 761.5 94 c 128,-1,40
 786 101 786 101 805.5 118 c 128,-1,41
 825 135 825 135 836.5 163 c 128,-1,42
 848 191 848 191 848 233 c 0,43,44
 848 290 848 290 824.5 330 c 128,-1,45
 801 370 801 370 765.5 400.5 c 128,-1,46
 730 431 730 431 689 456.5 c 128,-1,47
 648 482 648 482 612.5 511.5 c 128,-1,48
 577 541 577 541 553.5 578 c 128,-1,49
 530 615 530 615 530 668 c 0,50,51
 530 717 530 717 543.5 753.5 c 128,-1,52
 557 790 557 790 579 818 c 128,-1,53
 601 846 601 846 629.5 868.5 c 128,-1,54
 658 891 658 891 687 912.5 c 128,-1,55
 716 934 716 934 744.5 956 c 128,-1,56
 773 978 773 978 795 1006 c 128,-1,57
 817 1034 817 1034 830.5 1069.5 c 128,-1,58
 844 1105 844 1105 844 1153 c 0,59,60
 844 1198 844 1198 829 1238 c 128,-1,61
 814 1278 814 1278 790 1308.5 c 128,-1,62
 766 1339 766 1339 735 1357 c 128,-1,63
 704 1375 704 1375 672 1375 c 0,64,65
 610 1375 610 1375 565 1340 c 128,-1,66
 520 1305 520 1305 488 1246.5 c 128,-1,67
 456 1188 456 1188 437 1111.5 c 128,-1,68
 418 1035 418 1035 409 952 c 2,69,-1
 321 193 l 2,70,71
 308 82 308 82 264.5 -20.5 c 128,-1,72
 221 -123 221 -123 159.5 -211.5 c 128,-1,73
 98 -300 98 -300 24.5 -370 c 128,-1,74
 -49 -440 -49 -440 -123 -485 c 1,75,-1
 -165 -400 l 1,76,77
 -115 -372 -115 -372 -74 -315 c 128,-1,78
 -33 -258 -33 -258 -2.5 -184.5 c 128,-1,79
 28 -111 28 -111 48 -27 c 128,-1,80
 68 57 68 57 77 139 c 2,81,-1
 165 899 l 2,82,83
 185 1064 185 1064 262.5 1198 c 128,-1,84
 340 1332 340 1332 468 1425 c 1,85,86
 525 1468 525 1468 598.5 1493 c 128,-1,87
 672 1518 672 1518 745 1518 c 0,88,89
 824 1518 824 1518 885.5 1492 c 128,-1,90
 947 1466 947 1466 989 1424 c 128,-1,91
 1031 1382 1031 1382 1053 1329.5 c 128,-1,92
 1075 1277 1075 1277 1075 1225 c 0,0,1
EndSplineSet
EndChar

StartChar: registered
Encoding: 174 174 138
Width: 704
Flags: W
LayerCount: 2
Fore
SplineSet
755 1084 m 0,0,1
 744 1007 744 1007 712 941 c 128,-1,2
 680 875 680 875 632 826.5 c 128,-1,3
 584 778 584 778 522 750.5 c 128,-1,4
 460 723 460 723 390 723 c 0,5,6
 319 723 319 723 264.5 750.5 c 128,-1,7
 210 778 210 778 175 826.5 c 128,-1,8
 140 875 140 875 125.5 941 c 128,-1,9
 111 1007 111 1007 122 1084 c 0,10,11
 132 1160 132 1160 164.5 1226 c 128,-1,12
 197 1292 197 1292 245 1340.5 c 128,-1,13
 293 1389 293 1389 355 1417 c 128,-1,14
 417 1445 417 1445 487 1445 c 256,15,16
 557 1445 557 1445 611.5 1417.5 c 128,-1,17
 666 1390 666 1390 701.5 1341.5 c 128,-1,18
 737 1293 737 1293 751 1227 c 128,-1,19
 765 1161 765 1161 755 1084 c 0,0,1
683 1084 m 0,20,21
 691 1143 691 1143 681.5 1196 c 128,-1,22
 672 1249 672 1249 646 1288.5 c 128,-1,23
 620 1328 620 1328 576.5 1351.5 c 128,-1,24
 533 1375 533 1375 474 1375 c 256,25,26
 415 1375 415 1375 367 1351.5 c 128,-1,27
 319 1328 319 1328 283.5 1288.5 c 128,-1,28
 248 1249 248 1249 225 1196 c 128,-1,29
 202 1143 202 1143 194 1084 c 0,30,31
 186 1024 186 1024 195 971.5 c 128,-1,32
 204 919 204 919 230.5 879 c 128,-1,33
 257 839 257 839 299.5 816 c 128,-1,34
 342 793 342 793 401 793 c 256,35,36
 460 793 460 793 508.5 816 c 128,-1,37
 557 839 557 839 593 879 c 128,-1,38
 629 919 629 919 652 971.5 c 128,-1,39
 675 1024 675 1024 683 1084 c 0,20,21
269 883 m 1,40,-1
 271 909 l 1,41,42
 308 918 308 918 310 928 c 2,43,-1
 353 1245 l 1,44,45
 344 1243 344 1243 335.5 1242 c 128,-1,46
 327 1241 327 1241 319 1240 c 1,47,-1
 321 1277 l 1,48,49
 348 1284 348 1284 381 1289.5 c 128,-1,50
 414 1295 414 1295 451 1295 c 0,51,52
 490 1295 490 1295 517 1285.5 c 128,-1,53
 544 1276 544 1276 560.5 1260.5 c 128,-1,54
 577 1245 577 1245 583 1225.5 c 128,-1,55
 589 1206 589 1206 586 1186 c 0,56,57
 580 1141 580 1141 551 1113 c 128,-1,58
 522 1085 522 1085 480 1074 c 1,59,-1
 556 942 l 1,60,61
 561 931 561 931 571 929.5 c 128,-1,62
 581 928 581 928 601 936 c 1,63,-1
 604 918 l 1,64,-1
 601 916 l 2,65,66
 593 911 593 911 580.5 904.5 c 128,-1,67
 568 898 568 898 555 892 c 128,-1,68
 542 886 542 886 531.5 881.5 c 128,-1,69
 521 877 521 877 516 877 c 0,70,71
 508 877 508 877 500.5 883 c 128,-1,72
 493 889 493 889 491 895 c 2,73,-1
 422 1066 l 1,74,-1
 407 1066 l 2,75,76
 402 1066 402 1066 397 1068 c 1,77,-1
 378 928 l 2,78,79
 376 918 376 918 413 909 c 1,80,-1
 411 883 l 1,81,-1
 269 883 l 1,40,-1
423 1252 m 1,82,-1
 403 1112 l 1,83,84
 408 1111 408 1111 411 1111 c 2,85,-1
 420 1111 l 2,86,87
 460 1111 460 1111 483.5 1124.5 c 128,-1,88
 507 1138 507 1138 512 1177 c 0,89,90
 516 1206 516 1206 499 1229 c 128,-1,91
 482 1252 482 1252 436 1252 c 2,92,-1
 423 1252 l 1,82,-1
EndSplineSet
EndChar

